<svg width="30" height="30" viewBox="0 0 30 30" fill="none" xmlns="http://www.w3.org/2000/svg">
<path d="M30 15C30 23.2843 23.2843 30 15 30C6.71573 30 0 23.2843 0 15C0 6.71573 6.71573 0 15 0C23.2843 0 30 6.71573 30 15Z" fill="#ECEFF1"/>
<path fill-rule="evenodd" clip-rule="evenodd" d="M17.9465 21.08C17.9465 20.7556 17.942 20.28 18.4531 20.28C18.7242 20.28 18.9331 20.5175 18.9331 20.7067V21.2133C18.9331 21.7279 17.9465 21.8813 17.9465 21.08V21.08ZM17.9465 19.2667V17.5334C17.9465 17.4114 18.0055 17.2723 18.0625 17.1961C18.2961 16.8842 18.9331 17.0088 18.9331 17.4801V19.4C18.9331 19.9103 17.9465 20.0736 17.9465 19.2667V19.2667ZM14.6932 19.1867C14.6932 20.5664 15.3167 21.6217 16.251 22.2955C16.7929 22.6862 17.5721 23 18.2665 23C19.0054 23 19.4345 22.9503 20.0798 22.6267C20.3703 22.4809 20.3759 22.4824 20.651 22.2912C20.8465 22.1552 21.1001 21.9279 21.2492 21.7428C21.5067 21.4229 21.7175 21.1812 21.8897 20.7566C22.4933 19.268 22.2152 17.706 21.1131 16.6067C20.7989 16.2933 20.447 16.0355 20.0177 15.8355C19.2867 15.4949 18.4909 15.4096 17.646 15.5796C15.999 15.9111 14.6932 17.4732 14.6932 19.1867H14.6932Z" fill="#0F122B"/>
<path fill-rule="evenodd" clip-rule="evenodd" d="M11.0933 10.0933C11.0933 11.7561 12.5176 13.1866 14.0799 13.1866C14.6499 13.1866 15.063 13.1207 15.538 12.8848C15.8908 12.7096 16.1558 12.5084 16.4201 12.2469C16.5496 12.1187 16.6444 11.984 16.7543 11.8345C17.0887 11.3799 17.3065 10.6637 17.3065 10.0933C17.3065 9.62803 17.1749 9.14395 16.9816 8.73829C16.5173 7.76407 15.4231 7.00006 14.3466 7.00006C13.7357 7.00006 13.3917 7.0353 12.8621 7.30223C11.7799 7.84766 11.0933 8.88709 11.0933 10.0934L11.0933 10.0933Z" fill="#0F122B"/>
<path fill-rule="evenodd" clip-rule="evenodd" d="M10 18.2266V20.4666C10 20.8293 10.2251 21.0287 10.5857 21.0276L14.0533 21.0266C14.0301 20.9272 13.9581 20.7535 13.9233 20.65C13.2299 18.59 14.1874 16.2416 16.1077 15.1345C16.241 15.0577 16.5947 14.8754 16.7466 14.84C16.63 14.666 15.9392 14.331 15.7181 14.2418C14.2674 13.6566 12.6359 13.9822 11.4478 14.9812C10.6377 15.6624 10 16.8307 10 18.2267V18.2266Z" fill="#0F122B"/>
</svg>
