<svg width="30" height="30" viewBox="0 0 30 30" fill="none" xmlns="http://www.w3.org/2000/svg">
<path d="M15 0C6.72914 0 0 6.72914 0 15C0 23.2709 6.72914 30 15 30C23.2709 30 30 23.2709 30 15C30 6.72914 23.2709 0 15 0ZM15 4.37502C18.963 4.37502 22.1875 7.59949 22.1875 11.5625C22.1875 15.5256 18.963 18.75 15 18.75C11.037 18.75 7.81248 15.5255 7.81248 11.5625C7.81248 7.59943 11.037 4.37502 15 4.37502ZM15 27.5C10.9156 27.5 7.29375 25.5221 5.01135 22.4835C7.51189 21.2803 11.0829 20 15 20C18.9174 20 22.4887 21.2805 24.9887 22.4834C22.7063 25.5221 19.0845 27.5 15 27.5Z" fill="#D32907"/>
</svg>