<svg width="35" height="35" viewBox="0 0 35 35" fill="none" xmlns="http://www.w3.org/2000/svg">
<g clip-path="url(#clip0)">
<path d="M30.9896 14.5833C30.9896 15.9687 30.7854 17.3104 30.3917 18.5791C29.7792 18.3458 29.1229 18.2291 28.4375 18.2291C25.6375 18.2291 23.2896 20.2125 22.7354 22.852L18.5938 14.3354V1.13745C25.5354 1.69162 30.9896 7.49578 30.9896 14.5833Z" fill="#D32907"/>
<path d="M16.4058 1.13745V13.4895H4.05371C4.57871 6.91245 9.82871 1.66245 16.4058 1.13745Z" fill="#D32907"/>
<path d="M22.385 27.1541C20.8829 27.752 19.235 28.0728 17.4995 28.0728C15.4287 28.0728 13.46 27.6062 11.71 26.7749C12.1475 25.9583 12.3954 25.0395 12.3954 24.0624C12.3954 20.8395 9.78496 18.2291 6.56204 18.2291C5.87663 18.2291 5.22038 18.3458 4.60788 18.5791C4.31621 17.6603 4.12663 16.6833 4.05371 15.677H16.8141L22.385 27.1541Z" fill="#D32907"/>
<path d="M6.56185 27.7084C8.57539 27.7084 10.2077 26.0761 10.2077 24.0626C10.2077 22.049 8.57539 20.4167 6.56185 20.4167C4.54831 20.4167 2.91602 22.049 2.91602 24.0626C2.91602 26.0761 4.54831 27.7084 6.56185 27.7084Z" fill="#D32907"/>
<path d="M9.11458 29.1666H4.01042C1.79813 29.1666 0 30.9648 0 33.1771V33.9062C0 34.51 0.49 35 1.09375 35H12.0312C12.635 35 13.125 34.51 13.125 33.9062V33.1771C13.125 30.9648 11.3269 29.1666 9.11458 29.1666Z" fill="#D32907"/>
<path d="M28.4368 27.7084C30.4504 27.7084 32.0827 26.0761 32.0827 24.0626C32.0827 22.049 30.4504 20.4167 28.4368 20.4167C26.4233 20.4167 24.791 22.049 24.791 24.0626C24.791 26.0761 26.4233 27.7084 28.4368 27.7084Z" fill="#D32907"/>
<path d="M30.9896 29.1666H25.8854C23.6731 29.1666 21.875 30.9648 21.875 33.1771V33.9062C21.875 34.51 22.365 35 22.9688 35H33.9062C34.51 35 35 34.51 35 33.9062V33.1771C35 30.9648 33.2019 29.1666 30.9896 29.1666Z" fill="#D32907"/>
</g>
<defs>
<clipPath id="clip0">
<rect width="35" height="35" fill="white"/>
</clipPath>
</defs>
</svg>
