<svg width="27" height="35" viewBox="0 0 27 35" fill="none" xmlns="http://www.w3.org/2000/svg">
<path d="M17.876 8.75003H21.9922L17.876 4.63379V8.75003Z" fill="#D32907"/>
<path d="M16.626 9.37505V3.75H0.375977V35.0001H22.876V10H17.251C16.9057 10 16.626 9.72031 16.626 9.37505ZM4.12595 7.50006H9.12598V8.75003H4.12595V7.50006ZM4.12595 15H14.126V16.2501H4.12595V15ZM4.12595 22.5001H8.50095V23.75H4.12595V22.5001ZM6.62597 31.2501H4.12595V30H6.62597V31.2501ZM19.1259 31.2501H7.87601V30H19.1259V31.2501ZM19.1259 27.5H4.12595V26.25H19.1259V27.5ZM19.1259 23.75H9.751V22.5001H19.1259V23.75ZM19.1259 20.0001H4.12595V18.75H19.1259V20.0001ZM19.1259 16.2501H15.376V15H19.1259V16.2501ZM19.1259 12.5H4.12595V11.25H19.1259V12.5Z" fill="#D32907"/>
<path d="M4.12598 0V2.50001H17.251C17.2643 2.50001 17.2766 2.50706 17.2899 2.50762C17.3448 2.51106 17.3995 2.52179 17.4512 2.54005C17.471 2.54605 17.4902 2.55278 17.5091 2.56079C17.5775 2.59057 17.6397 2.63301 17.6929 2.68561L23.9429 8.93561C23.995 8.98877 24.0377 9.05059 24.0679 9.11872C24.0767 9.13826 24.0819 9.15748 24.0884 9.1775C24.1064 9.22954 24.1173 9.28351 24.1205 9.33812C24.1205 9.35173 24.1284 9.36374 24.1284 9.37735V31.25H26.6284V0H4.12598Z" fill="#D32907"/>
</svg>
