<svg width="35" height="31" viewBox="0 0 35 31" fill="none" xmlns="http://www.w3.org/2000/svg">
<path d="M1.93341 9.95471C1.62456 10.14 1.43555 10.4738 1.43555 10.8339V12.5429H4.16992C4.73621 12.5429 5.19531 13.002 5.19531 13.5683C5.19531 14.1346 4.73621 14.5937 4.16992 14.5937H1.43555V16.6445H4.16992C4.73621 16.6445 5.19531 17.1036 5.19531 17.6699C5.19531 18.2362 4.73621 18.6953 4.16992 18.6953H1.43555V20.7461H4.16992C4.73621 20.7461 5.19531 21.2052 5.19531 21.7714C5.19531 22.3377 4.73621 22.7968 4.16992 22.7968H1.43555V24.8476H4.16992C4.73621 24.8476 5.19531 25.3067 5.19531 25.873C5.19531 26.4393 4.73621 26.8984 4.16992 26.8984H1.43555V28.9492H1.02539C0.459102 28.9492 0 29.4083 0 29.9746C0 30.5409 0.459102 31 1.02539 31H7.24609V6.76704L1.93341 9.95471Z" fill="#D32907"/>
<path d="M24.6777 0.238281H10.3223C9.75598 0.238281 9.29688 0.697383 9.29688 1.26367V31H25.7031V1.26367C25.7031 0.697383 25.244 0.238281 24.6777 0.238281ZM14.4238 25.873C14.4238 26.4393 13.9647 26.8984 13.3984 26.8984C12.8321 26.8984 12.373 26.4393 12.373 25.873V5.36523C12.373 4.79895 12.8321 4.33984 13.3984 4.33984C13.9647 4.33984 14.4238 4.79895 14.4238 5.36523V25.873ZM18.5254 25.873C18.5254 26.4393 18.0663 26.8984 17.5 26.8984C16.9337 26.8984 16.4746 26.4393 16.4746 25.873V5.36523C16.4746 4.79895 16.9337 4.33984 17.5 4.33984C18.0663 4.33984 18.5254 4.79895 18.5254 5.36523V25.873ZM22.627 25.873C22.627 26.4393 22.1679 26.8984 21.6016 26.8984C21.0353 26.8984 20.5762 26.4393 20.5762 25.873V5.36523C20.5762 4.79895 21.0353 4.33984 21.6016 4.33984C22.1679 4.33984 22.627 4.79895 22.627 5.36523V25.873Z" fill="#D32907"/>
<path d="M33.9746 28.9492H33.5645V26.8984H30.8301C30.2638 26.8984 29.8047 26.4393 29.8047 25.873C29.8047 25.3067 30.2638 24.8476 30.8301 24.8476H33.5645V22.7968H30.8301C30.2638 22.7968 29.8047 22.3377 29.8047 21.7714C29.8047 21.2052 30.2638 20.7461 30.8301 20.7461H33.5645V18.6953H30.8301C30.2638 18.6953 29.8047 18.2362 29.8047 17.6699C29.8047 17.1036 30.2638 16.6445 30.8301 16.6445H33.5645V14.5937H30.8301C30.2638 14.5937 29.8047 14.1346 29.8047 13.5683C29.8047 13.002 30.2638 12.5429 30.8301 12.5429H33.5645V10.8339C33.5645 10.4738 33.3754 10.14 33.0666 9.95471L27.7539 6.76704V31H33.9746C34.5409 31 35 30.5409 35 29.9746C35 29.4083 34.5409 28.9492 33.9746 28.9492Z" fill="#D32907"/>
</svg>
