<svg width="17" height="17" viewBox="0 0 17 17" fill="none" xmlns="http://www.w3.org/2000/svg">
<path d="M15.5833 10.1013V2.83332C15.5833 2.05202 14.948 1.41664 14.1666 1.41664H12.3958C12.2001 1.41664 12.0416 1.57506 12.0416 1.77082V3.54164C12.0416 3.93211 11.7238 4.24997 11.3333 4.24997C10.9429 4.24997 10.625 3.93211 10.625 3.54164C10.625 3.24557 10.8152 2.97892 11.0981 2.87828C11.2393 2.82778 11.3333 2.69427 11.3333 2.54452V0.354178C11.3333 0.158412 11.1749 0 10.9792 0C10.7834 0 10.625 0.158412 10.625 0.354178V1.41668H5.3125C5.11673 1.41668 4.95832 1.57509 4.95832 1.77086V3.54168C4.95832 3.93215 4.64047 4.25 4.25 4.25C3.85953 4.25 3.54168 3.93215 3.54168 3.54168C3.54168 3.24561 3.7319 2.97895 4.01482 2.87831C4.15594 2.82781 4.25 2.6943 4.25 2.54455V0.354178C4.25 0.158412 4.09159 0 3.89582 0C3.70006 0 3.54164 0.158412 3.54164 0.354178V1.41668H1.41664C0.635342 1.41668 0 2.05202 0 2.83332V14.1666C0 14.9479 0.635342 15.5833 1.41668 15.5833H10.1013C10.8165 16.448 11.897 17 13.1042 17C15.2524 17 17 15.2524 17 13.1042C17 11.897 16.448 10.8165 15.5833 10.1013ZM9.20832 13.1042C9.20832 13.4729 9.26317 13.8284 9.35933 14.1667H1.41668V5.66668H14.1667V9.35936C13.8284 9.26321 13.4729 9.20836 13.1042 9.20836C10.956 9.20832 9.20832 10.956 9.20832 13.1042ZM15.1254 12.2921L12.6462 14.7712C12.5771 14.8404 12.4864 14.875 12.3958 14.875C12.3052 14.875 12.2146 14.8404 12.1454 14.7712L11.0829 13.7087C10.9445 13.5704 10.9445 13.3463 11.0829 13.2079C11.2213 13.0696 11.4454 13.0696 11.5837 13.2079L12.3958 14.02L14.6245 11.7913C14.7629 11.6529 14.987 11.6529 15.1254 11.7913C15.2637 11.9296 15.2637 12.1537 15.1254 12.2921Z" fill="#fff"/>
</svg>
