<svg width="18" height="16" viewBox="0 0 18 16" fill="none" xmlns="http://www.w3.org/2000/svg">
<path d="M10.8551 10.405C11.3517 10.405 11.8036 9.95324 11.8038 9.45664C11.804 8.95965 11.3521 8.50732 10.8551 8.50732C10.3581 8.50732 9.90612 8.95985 9.90637 9.45664C9.90662 9.95344 10.3585 10.405 10.8551 10.405V10.405Z" fill="#5E6072"/>
<path d="M11.2121 16C11.613 16 11.9661 15.7379 12.0418 15.3532L12.7419 11.7939C12.7519 11.7433 12.7554 11.6908 12.7554 11.6375C12.7554 11.1644 12.372 10.7811 11.899 10.7811H9.81146C9.3386 10.7811 8.95508 11.1644 8.95508 11.6375C8.95508 11.6908 8.95855 11.7433 8.9685 11.7938L9.66867 15.3532C9.74371 15.7347 10.0983 16 10.4983 16" fill="#5E6072"/>
<path d="M6.37756 10.405C6.87415 10.405 7.32608 9.95324 7.32628 9.45664C7.32647 8.95965 6.87455 8.50732 6.37756 8.50732C5.88056 8.50732 5.42858 8.95985 5.42883 9.45664C5.42908 9.95344 5.88096 10.405 6.37756 10.405Z" fill="#5E6072"/>
<path d="M6.73456 16C7.13543 16 7.48855 15.7379 7.56422 15.3532L8.26439 11.7939C8.27434 11.7433 8.27781 11.6908 8.27781 11.6375C8.27781 11.1644 7.8945 10.7811 7.42143 10.7811H5.33392C4.86106 10.7811 4.47754 11.1644 4.47754 11.6375C4.47754 11.6908 4.48101 11.7433 4.49096 11.7938L5.19113 15.3532C5.26616 15.7347 5.62072 16 6.02079 16" fill="#5E6072"/>
<path d="M15.3326 10.405C15.8292 10.405 16.2812 9.95324 16.2814 9.45664C16.2815 8.95965 15.8296 8.50732 15.3326 8.50732C14.8356 8.50732 14.3837 8.95985 14.3839 9.45664C14.3842 9.95344 14.836 10.405 15.3326 10.405Z" fill="#5E6072"/>
<path d="M15.6896 16C16.0905 16 16.4436 15.7379 16.5193 15.3532L17.2195 11.7939C17.2294 11.7433 17.2329 11.6908 17.2329 11.6375C17.2329 11.1644 16.8496 10.7811 16.3765 10.7811H14.289C13.8161 10.7811 13.4326 11.1644 13.4326 11.6375C13.4326 11.6908 13.4361 11.7433 13.446 11.7938L14.1462 15.3532C14.2212 15.7347 14.5758 16 14.9759 16" fill="#5E6072"/>
<path d="M1.90002 10.405C2.39662 10.405 2.84854 9.95324 2.84874 9.45664C2.84893 8.95965 2.39701 8.50732 1.90002 8.50732C1.40302 8.50732 0.951045 8.95985 0.951294 9.45664C0.951543 9.95344 1.40342 10.405 1.90002 10.405V10.405Z" fill="#5E6072"/>
<path d="M2.25702 16C2.65789 16 3.01101 15.7379 3.08668 15.3532L3.78685 11.7939C3.79681 11.7433 3.80028 11.6908 3.80028 11.6375C3.80028 11.1644 3.41696 10.7811 2.94389 10.7811H0.856383C0.383518 10.7811 0 11.1644 0 11.6375C0 11.6908 0.00347527 11.7433 0.0134206 11.7938L0.713595 15.3532C0.788626 15.7347 1.14318 16 1.54325 16" fill="#5E6072"/>
<path d="M13.0939 1.89764C13.5905 1.89764 14.0424 1.44592 14.0426 0.949321C14.0428 0.452324 13.5909 0 13.0939 0C12.5969 0 12.1449 0.452523 12.1451 0.949321C12.1454 1.44612 12.5973 1.89764 13.0939 1.89764Z" fill="#5E6072"/>
<path d="M13.4509 7.49268C13.8517 7.49268 14.2049 7.23055 14.2805 6.8459L14.9807 3.28657C14.9907 3.23598 14.9941 3.18344 14.9941 3.13019C14.9941 2.65712 14.6108 2.2738 14.1377 2.2738H12.0502C11.5774 2.2738 11.1938 2.65712 11.1938 3.13019C11.1938 3.18344 11.1973 3.23593 11.2073 3.2865L11.9074 6.8459C11.9825 7.22733 12.337 7.49268 12.7371 7.49268" fill="#5E6072"/>
<path d="M8.61633 1.89764C9.11292 1.89764 9.56485 1.44592 9.56505 0.949321C9.56524 0.452324 9.11332 0 8.61633 0C8.11933 0 7.66735 0.452523 7.6676 0.949321C7.66785 1.44612 8.11973 1.89764 8.61633 1.89764Z" fill="#5E6072"/>
<path d="M8.97333 7.49268C9.3742 7.49268 9.72732 7.23055 9.80299 6.8459L10.5032 3.28657C10.5131 3.23598 10.5166 3.18344 10.5166 3.13019C10.5166 2.65712 10.1333 2.2738 9.6602 2.2738H7.57269C7.09983 2.2738 6.71631 2.65712 6.71631 3.13019C6.71631 3.18344 6.71978 3.23593 6.72973 3.2865L7.4299 6.8459C7.50493 7.22733 7.85949 7.49268 8.25956 7.49268" fill="#5E6072"/>
<path d="M4.13879 1.89764C4.63538 1.89764 5.08731 1.44592 5.08751 0.949321C5.0877 0.452324 4.63578 0 4.13879 0C3.64179 0 3.18981 0.452523 3.19006 0.949321C3.19031 1.44612 3.64219 1.89764 4.13879 1.89764V1.89764Z" fill="#5E6072"/>
<path d="M4.49579 7.49268C4.89666 7.49268 5.24978 7.23055 5.32545 6.8459L6.02562 3.28657C6.03558 3.23598 6.03904 3.18344 6.03904 3.13019C6.03904 2.65712 5.65573 2.2738 5.18266 2.2738H3.09515C2.62229 2.2738 2.23877 2.65712 2.23877 3.13019C2.23877 3.18344 2.24224 3.23593 2.25219 3.2865L2.95236 6.8459C3.0274 7.22733 3.38195 7.49268 3.78202 7.49268" fill="#5E6072"/>
</svg>
