<svg width="30" height="30" viewBox="0 0 30 30" fill="none" xmlns="http://www.w3.org/2000/svg">
<circle cx="15" cy="15" r="15" fill="#ECEFF1"/>
<path d="M20.9313 11.3802C20.9058 11.3646 20.8795 11.3503 20.8525 11.3374C20.977 11.2312 21.0659 11.0894 21.1073 10.9311C21.1487 10.7728 21.1405 10.6056 21.0839 10.4521C21.0273 10.2986 20.925 10.1661 20.7908 10.0725C20.6566 9.97894 20.4969 9.92877 20.3333 9.92877C20.1697 9.92877 20.01 9.97894 19.8758 10.0725C19.7416 10.1661 19.6392 10.2986 19.5827 10.4521C19.5261 10.6056 19.5179 10.7728 19.5593 10.9311C19.6007 11.0894 19.6896 11.2312 19.8141 11.3374C19.7871 11.3503 19.7608 11.3646 19.7353 11.3802L18.3212 9.13336L17.6666 9.56003L19.272 12.1107C19.2709 12.1286 19.2666 12.1455 19.2666 12.1637V16.8667H20.2V14.4667H20.4666V16.8667H21.4V12.1637C21.4 12.1455 21.3957 12.1286 21.3946 12.1107L23 9.56003L22.3454 9.13336L20.9313 11.3802Z" fill="#5E6072"/>
<path d="M20.663 7.70213L20.3334 7L20.0038 7.70213L19.2667 7.81493L19.8001 8.3616L19.6742 9.13333L20.3334 8.7688L20.9926 9.13333L20.8667 8.3616L21.4001 7.81493L20.663 7.70213Z" fill="#5E6072"/>
<path d="M23 7.80005H22.2V8.33338H23V7.80005Z" fill="#5E6072"/>
<path d="M18.4666 7.80005H17.6666V8.33338H18.4666V7.80005Z" fill="#5E6072"/>
<path d="M8.06666 7H7.53333V7.53333H8.06666V7Z" fill="#5E6072"/>
<path d="M8.06666 8.06665H7.53333V8.59998H8.06666V8.06665Z" fill="#5E6072"/>
<path d="M8.59998 7.53333H8.06665V8.06666H8.59998V7.53333Z" fill="#5E6072"/>
<path d="M7.53333 7.53333H7V8.06666H7.53333V7.53333Z" fill="#5E6072"/>
<path d="M12.0667 9.39996H11.5333V9.9333H12.0667V9.39996Z" fill="#5E6072"/>
<path d="M12.0667 10.4667H11.5333V11H12.0667V10.4667Z" fill="#5E6072"/>
<path d="M12.6 9.93335H12.0667V10.4667H12.6V9.93335Z" fill="#5E6072"/>
<path d="M11.5333 9.93335H11V10.4667H11.5333V9.93335Z" fill="#5E6072"/>
<path d="M16.0666 19.5334V13.9334C16.2185 14.0852 16.3051 14.2904 16.3081 14.5051L16.3333 16.3334H16.8666V14.4076C16.8666 14.2403 16.8337 14.0746 16.7696 13.92C16.7056 13.7654 16.6117 13.6249 16.4934 13.5066C16.3751 13.3883 16.2346 13.2944 16.08 13.2303C15.9254 13.1663 15.7597 13.1334 15.5924 13.1334C15.7277 12.9791 15.8019 12.7807 15.801 12.5755C15.8001 12.3704 15.7241 12.1726 15.5874 12.0196L15.5686 12.001C15.4513 11.8959 15.3063 11.8269 15.1508 11.802C14.9953 11.7771 14.836 11.7974 14.6917 11.8605C14.5475 11.9237 14.4244 12.0269 14.3372 12.158C14.25 12.2892 14.2024 12.4426 14.2 12.6C14.2005 12.7974 14.2745 12.9876 14.4076 13.1334C14.2402 13.1334 14.0745 13.1663 13.9199 13.2303C13.7653 13.2944 13.6249 13.3883 13.5065 13.5066C13.3882 13.6249 13.2943 13.7654 13.2303 13.92C13.1663 14.0746 13.1333 14.2403 13.1333 14.4076V16.3334H13.6666L13.6918 14.5051C13.6948 14.2904 13.7814 14.0852 13.9333 13.9334V19.5334H14.8666V16.6H15.1333V19.5334H16.0666Z" fill="#5E6072"/>
<path d="M10.7334 22.2V16.6C10.8853 16.7519 10.9719 16.957 10.9749 17.1717L11 19H11.5334V17.0743C11.5334 16.9069 11.5004 16.7412 11.4364 16.5866C11.3723 16.432 11.2785 16.2915 11.1602 16.1732C11.0418 16.0549 10.9014 15.961 10.7467 15.897C10.5921 15.8329 10.4264 15.8 10.2591 15.8C10.3944 15.6458 10.4687 15.4473 10.4678 15.2422C10.4669 15.037 10.3909 14.8392 10.2542 14.6862L10.2354 14.6676C10.1181 14.5626 9.97302 14.4935 9.81755 14.4686C9.66207 14.4437 9.50271 14.464 9.35847 14.5271C9.21422 14.5903 9.09117 14.6936 9.00398 14.8247C8.91679 14.9558 8.86915 15.1092 8.86672 15.2666C8.86722 15.4641 8.94124 15.6542 9.07433 15.8C8.90699 15.8 8.74129 15.8329 8.58668 15.897C8.43208 15.961 8.2916 16.0549 8.17327 16.1732C8.05495 16.2915 7.96108 16.432 7.89705 16.5866C7.83301 16.7412 7.80005 16.9069 7.80005 17.0743V19H8.33338L8.35858 17.1717C8.36154 16.957 8.44817 16.7519 8.60005 16.6V22.2H9.53338V19.2666H9.80005V22.2H10.7334Z" fill="#5E6072"/>
<path d="M17.6667 17.1334C17.6316 17.1334 17.597 17.1402 17.5646 17.1536C17.5322 17.167 17.5028 17.1867 17.4781 17.2114C17.4533 17.2362 17.4337 17.2656 17.4203 17.298C17.4069 17.3303 17.4 17.365 17.4 17.4V19.8H12.3333C12.2983 19.8 12.2636 19.8069 12.2313 19.8203C12.1989 19.8337 12.1695 19.8533 12.1448 19.8781C12.12 19.9029 12.1003 19.9323 12.0869 19.9646C12.0735 19.997 12.0667 20.0317 12.0667 20.0667V22.4667H7V23H23V17.1334H17.6667ZM13.8868 21.4H13.3072V20.8667H13.8868L13.8868 21.4ZM15.0459 21.4H14.4663V20.8667H15.0459V21.4ZM16.2049 21.4H15.6254V20.8667H16.2049V21.4ZM17.364 21.4H16.7845V20.8667H17.364V21.4ZM19.2667 18.7334H18.7333V18.2H19.2667V18.7334ZM20.3333 18.7334H19.8V18.2H20.3333V18.7334ZM21.4 18.7334H20.8667V18.2H21.4V18.7334ZM22.4667 18.7334H21.9333V18.2H22.4667V18.7334Z" fill="#5E6072"/>
</svg>
