<svg width="16" height="16" viewBox="0 0 16 16" fill="none" xmlns="http://www.w3.org/2000/svg">
<path d="M13.9313 4.38019C13.9058 4.3646 13.8795 4.35032 13.8525 4.3374C13.977 4.23121 14.0659 4.0894 14.1073 3.9311C14.1487 3.7728 14.1405 3.60562 14.0839 3.4521C14.0273 3.29857 13.925 3.16609 13.7908 3.07251C13.6566 2.97894 13.4969 2.92877 13.3333 2.92877C13.1697 2.92877 13.01 2.97894 12.8758 3.07251C12.7416 3.16609 12.6392 3.29857 12.5827 3.4521C12.5261 3.60562 12.5179 3.7728 12.5593 3.9311C12.6007 4.0894 12.6896 4.23121 12.8141 4.3374C12.7871 4.35032 12.7608 4.3646 12.7353 4.38019L11.3212 2.13336L10.6666 2.56003L12.272 5.11073C12.2709 5.12859 12.2666 5.14554 12.2666 5.16369V9.86669H13.2V7.46669H13.4666V9.86669H14.4V5.16368C14.4 5.14553 14.3957 5.12859 14.3946 5.11072L16 2.56003L15.3454 2.13336L13.9313 4.38019Z" fill="#5E6072"/>
<path d="M13.663 0.702133L13.3334 0L13.0038 0.702133L12.2667 0.814933L12.8001 1.3616L12.6742 2.13333L13.3334 1.7688L13.9926 2.13333L13.8667 1.3616L14.4001 0.814933L13.663 0.702133Z" fill="#5E6072"/>
<path d="M16 0.800049H15.2V1.33338H16V0.800049Z" fill="#5E6072"/>
<path d="M11.4666 0.800049H10.6666V1.33338H11.4666V0.800049Z" fill="#5E6072"/>
<path d="M1.06666 0H0.533325V0.533333H1.06666V0Z" fill="#5E6072"/>
<path d="M1.06666 1.06665H0.533325V1.59998H1.06666V1.06665Z" fill="#5E6072"/>
<path d="M1.59998 0.533325H1.06665V1.06666H1.59998V0.533325Z" fill="#5E6072"/>
<path d="M0.533333 0.533325H0V1.06666H0.533333V0.533325Z" fill="#5E6072"/>
<path d="M5.06666 2.39996H4.53333V2.9333H5.06666V2.39996Z" fill="#5E6072"/>
<path d="M5.06666 3.46667H4.53333V4.00001H5.06666V3.46667Z" fill="#5E6072"/>
<path d="M5.59998 2.93335H5.06665V3.46668H5.59998V2.93335Z" fill="#5E6072"/>
<path d="M4.53333 2.93335H4V3.46668H4.53333V2.93335Z" fill="#5E6072"/>
<path d="M9.06663 12.5334V6.93335C9.21851 7.08522 9.30514 7.29035 9.30811 7.50511L9.3333 9.33335H9.86663V7.40764C9.86664 7.2403 9.83368 7.07459 9.76964 6.91999C9.7056 6.76538 9.61174 6.62491 9.49341 6.50658C9.37508 6.38825 9.2346 6.29439 9.08 6.23035C8.9254 6.16631 8.75969 6.13335 8.59235 6.13335C8.72769 5.97914 8.80191 5.78072 8.80101 5.57554C8.8001 5.37035 8.72413 5.1726 8.58743 5.01958L8.56862 5.00098C8.45131 4.89595 8.30628 4.82687 8.1508 4.80196C7.99532 4.77706 7.83597 4.79738 7.69172 4.86052C7.54747 4.92365 7.42442 5.02693 7.33723 5.15805C7.25005 5.28916 7.2024 5.44258 7.19997 5.60002C7.20047 5.79743 7.27449 5.98756 7.40758 6.13335C7.24024 6.13335 7.07454 6.16631 6.91994 6.23035C6.76533 6.29439 6.62485 6.38825 6.50653 6.50658C6.3882 6.62491 6.29434 6.76538 6.2303 6.91999C6.16626 7.07459 6.1333 7.2403 6.1333 7.40764V9.33335H6.66663L6.69183 7.50511C6.69479 7.29035 6.78143 7.08522 6.9333 6.93335V12.5334H7.86663V9.60002H8.1333V12.5334H9.06663Z" fill="#5E6072"/>
<path d="M3.73338 15.2V9.59998C3.88526 9.75185 3.97189 9.95698 3.97485 10.1717L4.00005 12H4.53338V10.0743C4.53338 9.90692 4.50042 9.74122 4.43639 9.58661C4.37235 9.43201 4.27848 9.29153 4.16016 9.17321C4.04183 9.05488 3.90135 8.96101 3.74675 8.89698C3.59214 8.83294 3.42644 8.79998 3.2591 8.79998C3.39444 8.64576 3.46866 8.44734 3.46776 8.24216C3.46685 8.03698 3.39088 7.83922 3.25418 7.68621L3.23537 7.66761C3.11806 7.56258 2.97302 7.49349 2.81755 7.46859C2.66207 7.44368 2.50271 7.46401 2.35847 7.52714C2.21422 7.59028 2.09117 7.69356 2.00398 7.82467C1.91679 7.95579 1.86915 8.10921 1.86672 8.26665C1.86722 8.46405 1.94124 8.65419 2.07433 8.79998C1.90699 8.79998 1.74129 8.83294 1.58668 8.89698C1.43208 8.96101 1.2916 9.05488 1.17327 9.17321C1.05495 9.29153 0.961083 9.43201 0.897045 9.58661C0.833007 9.74122 0.800047 9.90692 0.800049 10.0743V12H1.33338L1.35858 10.1717C1.36154 9.95698 1.44817 9.75185 1.60005 9.59998V15.2H2.53338V12.2666H2.80005V15.2H3.73338Z" fill="#5E6072"/>
<path d="M10.6667 10.1334C10.6316 10.1334 10.597 10.1402 10.5646 10.1536C10.5322 10.167 10.5028 10.1867 10.4781 10.2114C10.4533 10.2362 10.4337 10.2656 10.4203 10.298C10.4069 10.3303 10.4 10.365 10.4 10.4V12.8H5.33333C5.29831 12.8 5.26363 12.8069 5.23127 12.8203C5.19892 12.8337 5.16952 12.8533 5.14475 12.8781C5.11999 12.9029 5.10035 12.9323 5.08695 12.9646C5.07355 12.997 5.06666 13.0317 5.06667 13.0667V15.4667H0V16H16V10.1334H10.6667ZM6.88677 14.4H6.3072V13.8667H6.88676L6.88677 14.4ZM8.04585 14.4H7.46633V13.8667H8.04585V14.4ZM9.20495 14.4H8.62541V13.8667H9.20495V14.4ZM10.364 14.4H9.7845V13.8667H10.364V14.4ZM12.2667 11.7334H11.7333V11.2H12.2667V11.7334ZM13.3333 11.7334H12.8V11.2H13.3333V11.7334ZM14.4 11.7334H13.8667V11.2H14.4V11.7334ZM15.4667 11.7334H14.9333V11.2H15.4667V11.7334Z" fill="#5E6072"/>
</svg>
