<svg width="18" height="13" viewBox="0 0 18 13" fill="none" xmlns="http://www.w3.org/2000/svg">
<path fill-rule="evenodd" clip-rule="evenodd" d="M10.8638 10.0094C9.80875 10.9991 8.22226 11.6286 6.4473 11.6286C6.25969 11.6286 6.07509 11.6213 5.89222 11.608C4.78636 12.2069 3.55787 12.6419 2.15253 12.836C2.01312 12.8549 1.9163 12.7018 1.99332 12.5847C2.38661 11.9832 2.71191 11.3562 2.93782 10.6936C1.57422 9.87042 0.695557 8.57954 0.695557 7.12772C0.695557 4.68925 3.17362 2.70473 6.26528 2.62943C5.90513 3.27358 5.69557 4.01067 5.69557 4.83468C5.69557 7.70733 8.23431 9.52834 10.8638 10.0094Z" fill="#F1A40F"/>
<path fill-rule="evenodd" clip-rule="evenodd" d="M12.2477 0.334229C9.07211 0.334229 6.4968 2.3493 6.4968 4.83468C6.4968 7.32092 9.07211 9.33599 12.2477 9.33599C12.4353 9.33599 12.6199 9.32825 12.8028 9.31491C13.9086 9.91388 15.1371 10.3489 16.5425 10.543C16.6819 10.5623 16.7783 10.4091 16.7012 10.2917C16.3084 9.69056 15.9831 9.06362 15.7572 8.40096C17.1208 7.57781 17.9994 6.2865 17.9994 4.83468C17.9994 2.3493 15.4241 0.334229 12.2477 0.334229V0.334229ZM10.15 4.25809C9.83115 4.25809 9.57297 4.51583 9.57297 4.83468C9.57297 5.1531 9.83115 5.41214 10.15 5.41214C10.468 5.41214 10.7266 5.1531 10.7266 4.83468C10.7266 4.51583 10.468 4.25809 10.15 4.25809ZM12.2477 4.25809C11.9293 4.25809 11.6711 4.51583 11.6711 4.83468C11.6711 5.1531 11.9293 5.41214 12.2477 5.41214C12.5661 5.41214 12.8247 5.1531 12.8247 4.83468C12.8247 4.51583 12.5661 4.25809 12.2477 4.25809ZM14.3458 4.25809C14.027 4.25809 13.7692 4.51583 13.7692 4.83468C13.7692 5.1531 14.027 5.41214 14.3458 5.41214C14.6638 5.41214 14.9228 5.1531 14.9228 4.83468C14.9228 4.51583 14.6638 4.25809 14.3458 4.25809Z" fill="#F1A40F"/>
</svg>
