<svg width="18" height="14" viewBox="0 0 18 14" fill="none" xmlns="http://www.w3.org/2000/svg">
<path fill-rule="evenodd" clip-rule="evenodd" d="M10.5773 10.0644C9.47982 11.0939 7.8295 11.7487 5.98313 11.7487C5.78797 11.7487 5.59595 11.7411 5.40572 11.7273C4.25538 12.3503 2.97747 12.8029 1.51559 13.0047C1.37057 13.0244 1.26985 12.8651 1.34998 12.7433C1.75909 12.1176 2.09747 11.4654 2.33247 10.7761C0.914008 9.91983 0 8.57701 0 7.06679C0 4.53021 2.57775 2.46586 5.79379 2.38753C5.41915 3.05759 5.20116 3.82434 5.20116 4.6815C5.20116 7.66971 7.84203 9.56398 10.5773 10.0644Z" fill="#5E6072"/>
<path fill-rule="evenodd" clip-rule="evenodd" d="M12.0169 1.52588e-05C8.71355 1.52588e-05 6.03464 2.09615 6.03464 4.68152C6.03464 7.26778 8.71355 9.36392 12.0169 9.36392C12.212 9.36392 12.4041 9.35586 12.5943 9.34198C13.7446 9.96505 15.0226 10.4176 16.4844 10.6194C16.6295 10.6396 16.7297 10.4802 16.6496 10.358C16.2409 9.73274 15.9025 9.08058 15.6676 8.39127C17.086 7.535 18 6.19174 18 4.68152C18 2.09615 15.3211 1.52588e-05 12.0169 1.52588e-05V1.52588e-05ZM9.83481 4.08173C9.50313 4.08173 9.23457 4.34984 9.23457 4.68152C9.23457 5.01275 9.50313 5.28221 9.83481 5.28221C10.1656 5.28221 10.4346 5.01275 10.4346 4.68152C10.4346 4.34984 10.1656 4.08173 9.83481 4.08173ZM12.0169 4.08173C11.6857 4.08173 11.4171 4.34984 11.4171 4.68152C11.4171 5.01275 11.6857 5.28221 12.0169 5.28221C12.3481 5.28221 12.6171 5.01275 12.6171 4.68152C12.6171 4.34984 12.3481 4.08173 12.0169 4.08173ZM14.1994 4.08173C13.8677 4.08173 13.5996 4.34984 13.5996 4.68152C13.5996 5.01275 13.8677 5.28221 14.1994 5.28221C14.5302 5.28221 14.7996 5.01275 14.7996 4.68152C14.7996 4.34984 14.5302 4.08173 14.1994 4.08173Z" fill="#5E6072"/>
</svg>
