<svg width="35" height="33" viewBox="0 0 35 33" fill="none" xmlns="http://www.w3.org/2000/svg">
<path d="M28.7752 23.5C27.6565 23.5207 26.5604 23.1835 25.6468 22.5375C24.1367 21.4875 22.1328 21.4875 20.6226 22.5375C19.7096 23.1834 18.6141 23.5206 17.4959 23.5C16.3776 23.5205 15.2819 23.1833 14.3687 22.5375C13.6409 22.0056 12.758 21.7288 11.8568 21.75C10.9569 21.7294 10.0752 22.0062 9.3485 22.5375C8.43487 23.1839 7.33847 23.5211 6.2195 23.5C5.10089 23.5211 4.00486 23.1839 3.09167 22.5375C2.36494 22.0062 1.4833 21.7294 0.583333 21.75C0.261167 21.75 0 21.4888 0 21.1667C0 20.8445 0.261167 20.5833 0.583333 20.5833C1.70131 20.5628 2.7966 20.9 3.70942 21.5458C4.43601 22.0774 5.31774 22.3542 6.21775 22.3333C7.11773 22.354 7.99939 22.0772 8.72608 21.5458C9.64032 20.8993 10.7373 20.5621 11.8568 20.5833C12.9752 20.5628 14.0708 20.9001 14.9841 21.5458C15.7118 22.0777 16.5948 22.3546 17.4959 22.3333C18.3973 22.3549 19.2805 22.0781 20.0083 21.5458C21.8959 20.2625 24.3759 20.2625 26.2634 21.5458C27.7742 22.5958 29.7786 22.5958 31.2894 21.5458C32.2027 20.9001 33.2983 20.5628 34.4167 20.5833C34.7388 20.5833 35 20.8445 35 21.1667C35 21.4888 34.7388 21.75 34.4167 21.75C33.5151 21.7287 32.6318 22.0055 31.9037 22.5375C30.9901 23.1835 29.894 23.5207 28.7752 23.5Z" fill="#D32907"/>
<path d="M28.7752 27C27.6565 27.0207 26.5604 26.6835 25.6468 26.0375C24.1367 24.9875 22.1328 24.9875 20.6226 26.0375C19.7096 26.6834 18.6141 27.0206 17.4959 27C16.3776 27.0205 15.2819 26.6833 14.3687 26.0375C13.6409 25.5056 12.758 25.2288 11.8568 25.25C10.9569 25.2294 10.0752 25.5062 9.3485 26.0375C8.43487 26.6839 7.33847 27.0211 6.2195 27C5.10089 27.0211 4.00486 26.6839 3.09167 26.0375C2.36494 25.5062 1.4833 25.2294 0.583333 25.25C0.261167 25.25 0 24.9888 0 24.6667C0 24.3445 0.261167 24.0833 0.583333 24.0833C1.70131 24.0628 2.7966 24.4 3.70942 25.0458C4.43601 25.5774 5.31774 25.8542 6.21775 25.8333C7.11773 25.854 7.99939 25.5772 8.72608 25.0458C9.64032 24.3993 10.7373 24.0621 11.8568 24.0833C12.9752 24.0628 14.0708 24.4001 14.9841 25.0458C15.7118 25.5777 16.5948 25.8546 17.4959 25.8333C18.3973 25.8549 19.2805 25.5781 20.0083 25.0458C21.8959 23.7625 24.3759 23.7625 26.2634 25.0458C27.7742 26.0958 29.7786 26.0958 31.2894 25.0458C32.2027 24.4001 33.2983 24.0628 34.4167 24.0833C34.7388 24.0833 35 24.3445 35 24.6667C35 24.9888 34.7388 25.25 34.4167 25.25C33.5151 25.2287 32.6318 25.5055 31.9037 26.0375C30.9901 26.6835 29.894 27.0207 28.7752 27Z" fill="#D32907"/>
<path d="M28.7752 30.5C27.6565 30.5207 26.5604 30.1835 25.6468 29.5375C24.1367 28.4875 22.1328 28.4875 20.6226 29.5375C19.7096 30.1834 18.6141 30.5206 17.4959 30.5C16.3776 30.5205 15.2819 30.1833 14.3687 29.5375C13.6409 29.0056 12.758 28.7288 11.8568 28.75C10.9569 28.7294 10.0752 29.0062 9.3485 29.5375C8.43487 30.1839 7.33847 30.5212 6.2195 30.5C5.10089 30.5212 4.00486 30.1839 3.09167 29.5375C2.36494 29.0063 1.4833 28.7295 0.583333 28.75C0.261167 28.75 0 28.4888 0 28.1667C0 27.8445 0.261167 27.5833 0.583333 27.5833C1.70131 27.5628 2.7966 27.9 3.70942 28.5458C4.43601 29.0774 5.31774 29.3542 6.21775 29.3333C7.11773 29.354 7.99939 29.0772 8.72608 28.5458C9.64032 27.8994 10.7373 27.5621 11.8568 27.5833C12.9752 27.5629 14.0708 27.9001 14.9841 28.5458C15.7118 29.0778 16.5948 29.3546 17.4959 29.3333C18.3973 29.3549 19.2805 29.0781 20.0083 28.5458C21.8959 27.2625 24.3759 27.2625 26.2634 28.5458C27.7742 29.5958 29.7786 29.5958 31.2894 28.5458C32.2027 27.9001 33.2983 27.5629 34.4167 27.5833C34.7388 27.5833 35 27.8445 35 28.1667C35 28.4888 34.7388 28.75 34.4167 28.75C33.5151 28.7287 32.6318 29.0055 31.9037 29.5375C30.9901 30.1835 29.894 30.5207 28.7752 30.5Z" fill="#D32907"/>
<path d="M17.4947 31.0833C16.2693 31.1034 15.0689 30.7359 14.0647 30.0333C14.0425 30.0211 14.0211 30.0074 14.0006 29.9925V32.25C14.0006 32.5722 14.2617 32.8333 14.5839 32.8333H20.4172C20.7394 32.8333 21.0005 32.5722 21.0005 32.25V29.9925C20.976 30.0039 20.9526 30.0176 20.9305 30.0333C19.9246 30.7367 18.722 31.1042 17.4947 31.0833ZM20.9305 26.5333C19.9246 27.2367 18.722 27.6042 17.4947 27.5833C16.2693 27.6034 15.0689 27.2359 14.0647 26.5333C14.0425 26.5211 14.0211 26.5074 14.0006 26.4925V27.3733C14.4523 27.5543 14.8842 27.781 15.2897 28.05C15.9255 28.5238 16.702 28.7703 17.4947 28.75C18.2877 28.7723 19.0648 28.5256 19.6997 28.05C20.1104 27.7813 20.546 27.5527 21.0005 27.3675V26.4925C20.976 26.5039 20.9526 26.5176 20.9305 26.5333ZM20.9305 23.0333C19.9246 23.7367 18.722 24.1042 17.4947 24.0833C16.2693 24.1034 15.0689 23.7359 14.0647 23.0333C14.0425 23.0211 14.0211 23.0074 14.0006 22.9925V23.8733C14.4523 24.0543 14.8842 24.281 15.2897 24.55C15.9255 25.0238 16.702 25.2703 17.4947 25.25C18.2877 25.2723 19.0648 25.0256 19.6997 24.55C20.1104 24.2813 20.546 24.0527 21.0005 23.8675V22.9925C20.976 23.0039 20.9526 23.0176 20.9305 23.0333ZM24.378 8.555L17.9614 0.394165C17.8521 0.250031 17.6814 0.165746 17.5006 0.166665C17.321 0.165698 17.151 0.247461 17.0397 0.388332L10.6231 8.56083C10.4876 8.73676 10.4638 8.97431 10.5616 9.17363C10.6594 9.37295 10.8619 9.49947 11.0839 9.5H17.0047C17.3269 9.5 17.5881 9.76117 17.5881 10.0833C17.5881 10.4055 17.3269 10.6667 17.0047 10.6667H14.0006V11.8217H15.2547C15.5769 11.8217 15.8381 12.0828 15.8381 12.405C15.8381 12.7272 15.5769 12.9883 15.2547 12.9883H14.0006V14.155H17.0047C17.3269 14.155 17.5881 14.4162 17.5881 14.7383C17.5881 15.0605 17.3269 15.3217 17.0047 15.3217H14.0006V16.4883H15.2547C15.5769 16.4883 15.8381 16.7495 15.8381 17.0717C15.8381 17.3938 15.5769 17.655 15.2547 17.655H14.0006V20.3733C14.4517 20.5555 14.8835 20.7822 15.2897 21.05C15.9255 21.5238 16.702 21.7703 17.4947 21.75C18.2877 21.7723 19.0648 21.5256 19.6997 21.05C20.1104 20.7813 20.546 20.5527 21.0005 20.3675V10.0833C21.0005 9.76117 21.2617 9.5 21.5839 9.5H23.9172C24.1409 9.50273 24.3458 9.37523 24.4422 9.17333C24.5416 8.97204 24.5166 8.73159 24.378 8.555Z" fill="#D32907"/>
</svg>
