<svg width="17" height="17" viewBox="0 0 17 17" fill="none" xmlns="http://www.w3.org/2000/svg">
<path d="M10.3713 6.62632C10.1699 6.42375 9.9466 6.24419 9.70556 6.09092C9.06711 5.68209 8.32489 5.46485 7.56676 5.46485C6.51451 5.46289 5.50502 5.88098 4.76227 6.62632L1.15891 10.2325C0.417422 10.9754 0.000664764 11.982 8.21106e-07 13.0316C-0.00139346 15.222 1.77306 16.9987 3.96341 17.0001C5.01403 17.0038 6.0226 16.5877 6.76508 15.8443L9.73955 12.8699C9.7936 12.8163 9.82377 12.7432 9.82334 12.6671C9.82244 12.5106 9.69487 12.3846 9.53841 12.3854H9.42511C8.80366 12.3876 8.18775 12.2683 7.61211 12.0342C7.50605 11.9905 7.38414 12.0152 7.30334 12.0965L5.16455 14.2381C4.50041 14.9023 3.42362 14.9023 2.75948 14.2381C2.09534 13.574 2.09534 12.4972 2.75948 11.833L6.37701 8.21836C7.04062 7.55558 8.11564 7.55558 8.77926 8.21836C9.22649 8.63927 9.92409 8.63927 10.3713 8.21836C10.5637 8.02579 10.6804 7.77037 10.6999 7.49881C10.7206 7.17431 10.6009 6.85651 10.3713 6.62632Z" fill="#fff"/>
<path d="M15.8362 1.16166C14.2873 -0.38722 11.7761 -0.38722 10.2272 1.16166L7.25556 4.13045C7.17396 4.21245 7.15042 4.33577 7.19607 4.44207C7.24119 4.54867 7.34662 4.61709 7.46234 4.61486H7.56715C8.18787 4.61373 8.80278 4.73401 9.37732 4.96898C9.48339 5.01263 9.60529 4.988 9.68609 4.90666L11.8192 2.77637C12.4833 2.11223 13.5601 2.11223 14.2243 2.77637C14.8884 3.44051 14.8884 4.5173 14.2243 5.18144L11.5671 7.83578L11.5444 7.86128L10.6152 8.78479C9.95163 9.44757 8.87661 9.44757 8.213 8.78479C7.76577 8.36388 7.06816 8.36388 6.62096 8.78479C6.42732 8.97883 6.31057 9.23647 6.29234 9.50998C6.27163 9.83449 6.3913 10.1523 6.62096 10.3825C6.94885 10.7118 7.33248 10.9803 7.75408 11.1757C7.81357 11.204 7.87306 11.2267 7.93255 11.2522C7.99204 11.2777 8.05435 11.2975 8.11384 11.3202C8.17333 11.3428 8.23564 11.3626 8.29513 11.3796L8.46228 11.425C8.57558 11.4533 8.68891 11.476 8.80504 11.4958C8.94493 11.5166 9.08582 11.5298 9.22714 11.5354H9.42543H9.44242L9.61239 11.5156C9.6747 11.5128 9.73987 11.4986 9.81353 11.4986H9.90984L10.1053 11.4703L10.196 11.4533L10.3603 11.4193H10.3914C11.0873 11.2445 11.7227 10.8842 12.2299 10.3768L15.8361 6.77065C17.3851 5.22177 17.3851 2.71054 15.8362 1.16166Z" fill="#fff"/>
</svg>
