<svg width="17" height="16" viewBox="0 0 17 16" fill="none" xmlns="http://www.w3.org/2000/svg">
<path d="M11.5281 4.5L7.27812 6C6.85312 6.15 6.48125 6.45 6.32187 6.9L4.72812 10.9C4.56875 11.3 4.99375 11.7 5.41875 11.55L9.66875 10.05C10.0938 9.9 10.4656 9.6 10.625 9.15L12.2188 5.15C12.3781 4.75 11.9531 4.35 11.5281 4.5ZM9.24375 8.7C8.81875 9.1 8.18125 9.1 7.75625 8.7C7.33125 8.3 7.33125 7.7 7.75625 7.3C8.18125 6.9 8.81875 6.9 9.24375 7.3C9.66875 7.7 9.66875 8.3 9.24375 8.7ZM8.5 0C3.825 0 0 3.6 0 8C0 12.4 3.825 16 8.5 16C13.175 16 17 12.4 17 8C17 3.6 13.175 0 8.5 0ZM8.5 14C4.99375 14 2.125 11.3 2.125 8C2.125 4.7 4.99375 2 8.5 2C12.0062 2 14.875 4.7 14.875 8C14.875 11.3 12.0062 14 8.5 14Z" fill="#fff"/>
</svg>
