<svg width="21" height="21" viewBox="0 0 21 21" fill="none" xmlns="http://www.w3.org/2000/svg">
<path d="M0.000121617 10.3748C0.000121366 16.1046 4.64514 20.7495 10.3751 20.7495C16.105 20.7495 20.75 16.1046 20.75 10.3748C20.75 4.64494 16.105 -2.03037e-07 10.3751 -4.53495e-07C4.64514 -7.03953e-07 0.000121867 4.64494 0.000121617 10.3748Z" fill="white"/>
<path d="M12.8283 10.1037H10.9775L10.9775 16.8857H8.1726V10.1037H6.83862V7.7198H8.1726V6.17959C8.14245 5.80028 8.19495 5.41895 8.32648 5.06191C8.45801 4.70486 8.66544 4.38061 8.93445 4.11151C9.20346 3.84241 9.52765 3.63489 9.88466 3.50325C10.2417 3.37161 10.623 3.31899 11.0023 3.34903L13.0798 3.35759V5.6679H11.5722C11.4878 5.66289 11.4033 5.67669 11.3249 5.7083C11.2465 5.73991 11.1761 5.78855 11.1188 5.85069C11.0615 5.91284 11.0187 5.98694 10.9935 6.06765C10.9683 6.14835 10.9614 6.23364 10.9732 6.31735V7.7198H13.0747L12.8283 10.1037Z" fill="black"/>
</svg>
