<svg width="30" height="31" viewBox="0 0 30 31" fill="none" xmlns="http://www.w3.org/2000/svg">
<path d="M15.0001 30.1231C6.72901 30.1231 0 23.3666 0 15.0616C0 6.75666 6.72889 0 15.0001 0C23.271 0 30 6.75654 30 15.0616C30 23.3665 23.2711 30.1231 15.0001 30.1231Z" fill="#3C5999"/>
<path fill-rule="evenodd" clip-rule="evenodd" d="M12.6463 15.1325V23.862C12.6463 23.9875 12.7475 24.0893 12.8726 24.0893H16.1011C16.2262 24.0893 16.3277 23.9875 16.3277 23.862V14.9903H18.6682C18.7858 14.9903 18.8837 14.9 18.8938 14.7821L19.1189 12.1092C19.1301 11.9766 19.0258 11.8627 18.8933 11.8627H16.3277V9.96621C16.3277 9.52163 16.6864 9.1614 17.1291 9.1614H18.933C19.0581 9.1614 19.1593 9.05961 19.1593 8.93413V6.26099C19.1593 6.13538 19.0581 6.03372 18.933 6.03372H15.885C14.0964 6.03372 12.6464 7.48964 12.6464 9.28565V11.8627H11.0321C10.907 11.8627 10.8058 11.9644 10.8058 12.0902V14.7631C10.8058 14.8887 10.907 14.9903 11.0321 14.9903H12.6464V15.1325H12.6463Z" fill="white"/>
</svg>
