<svg width="7" height="14" viewBox="0 0 7 14" fill="none" xmlns="http://www.w3.org/2000/svg">
    <path d="M5.98965 6.76288H4.13884L4.13884 13.5449H1.33398L1.33398 6.76288H0L0 4.37898H1.33398L1.33398 2.83877C1.30383 2.45946 1.35633 2.07813 1.48786 1.72109C1.61939 1.36404 1.82682 1.03978 2.09583 0.770689C2.36484 0.501593 2.68903 0.294066 3.04603 0.162427C3.40304 0.0307886 3.78435 -0.0218286 4.16366 0.00820883L6.24121 0.0167657V2.32708H4.73353C4.64914 2.32207 4.56469 2.33587 4.48628 2.36748C4.40788 2.39909 4.33747 2.44773 4.28016 2.50987C4.22284 2.57202 4.18005 2.64612 4.15487 2.72683C4.12969 2.80753 4.12276 2.89282 4.13457 2.97653V4.37898H6.23608L5.98965 6.76288Z" fill="#D32907"/>
</svg>