<svg width="34" height="34" viewBox="0 0 34 34" fill="none" xmlns="http://www.w3.org/2000/svg">
<circle cx="16.8519" cy="16.8519" r="15.8519" fill="#D32907" stroke="white" stroke-width="2"/>
<path d="M20.7272 16.5445H18.3281L18.3281 25.336H14.6921L14.6921 16.5445H12.9629V13.4542H14.6921V11.4577C14.653 10.966 14.7211 10.4717 14.8916 10.0088C15.0621 9.54598 15.331 9.12565 15.6797 8.77682C16.0284 8.42799 16.4487 8.15897 16.9115 7.98833C17.3742 7.81769 17.8685 7.74948 18.3602 7.78842L21.0533 7.79951V10.7944L19.099 10.7944C18.9896 10.7879 18.8801 10.8058 18.7784 10.8467C18.6768 10.8877 18.5855 10.9508 18.5112 11.0313C18.4369 11.1119 18.3815 11.2079 18.3488 11.3126C18.3162 11.4172 18.3072 11.5277 18.3225 11.6362V13.4542H21.0467L20.7272 16.5445Z" fill="white"/>
</svg>
