<svg width="26" height="35" viewBox="0 0 26 35" fill="none" xmlns="http://www.w3.org/2000/svg">
<path d="M21.1601 7.24401C19.597 7.24401 18.3388 5.94771 18.3388 4.42266V0H0.991286C0.457516 0 0 0.457516 0 0.991285V34.0087C0 34.5425 0.457516 35 0.991286 35H24.5915C25.1253 35 25.5447 34.5425 25.5447 34.0087V7.24401H21.1601ZM8.23529 17.6525C7.8159 18.0338 7.20588 18.1863 6.32898 18.1863H5.07081V20.1307C5.07081 21.2745 3.69826 21.2745 3.69826 20.1307V14.8693C3.69826 14.2593 3.96514 14.0305 4.57516 14.0305C5.33769 14.0305 6.939 13.9924 7.54902 14.1449C9.22658 14.6024 9.22658 16.8519 8.23529 17.6525ZM15.7843 18.5294C15.5556 19.7113 14.793 20.5882 13.573 20.7789L10.9423 20.8551C10.2179 20.8551 10.0654 20.5501 10.0654 19.8638V14.8693C10.0654 14.2593 10.3322 14.0305 10.9041 14.0305C11.7429 14.0305 13.1917 13.9542 13.9161 14.1449C15.6699 14.6024 16.1656 16.8137 15.7843 18.5294ZM21.6558 14.9455C21.5414 15.0599 21.3889 15.098 21.1601 15.098H18.4532V16.8519H20.7407C21.5795 16.8519 21.5795 17.8813 20.7407 17.8813H18.4532V20.1307C18.4532 21.122 17.5763 21.122 17.2712 20.7789C17.1569 20.6264 17.0806 20.3976 17.0806 20.1307V14.8693C17.0806 14.2593 17.3475 14.0305 17.9194 14.0305H21.1601C21.9227 14.0305 21.9227 14.7168 21.6558 14.9455Z" fill="#D32907"/>
<path d="M6.02347 15.0599H5.10844V17.1569H5.07031C6.0616 17.1569 7.5104 17.3475 7.5104 16.0893C7.5104 15.2505 6.9385 15.0599 6.02347 15.0599Z" fill="#D32907"/>
<path d="M12.3525 15.1743H11.4375V19.7876C12.0094 19.7876 12.9626 19.8257 13.4201 19.6732C14.7164 19.2157 14.6401 16.6993 14.1826 15.9368C13.7632 15.2505 13.1532 15.1743 12.3525 15.1743Z" fill="#D32907"/>
<path d="M21.1604 5.56645H24.363L19.9785 1.18192V4.38453C19.9785 5.0708 20.5123 5.56645 21.1604 5.56645Z" fill="#D32907"/>
</svg>
