<svg width="14" height="12" viewBox="0 0 14 12" fill="none" xmlns="http://www.w3.org/2000/svg">
<path d="M12.9372 2.35037H11.0569V1.81898C11.0569 0.817518 10.2394 0 9.23796 0H4.76204C3.76058 0 2.94307 0.817518 2.94307 1.81898V2.35037H1.06277C0.470073 2.35037 0 2.82044 0 3.41314V10.4438C0 11.0365 0.470073 11.5066 1.06277 11.5066H3.90365H10.4847H12.9372C13.5299 11.5066 14 11.0365 14 10.4438V3.41314C13.9796 2.82044 13.5095 2.35037 12.9372 2.35037ZM8.91095 8.07299C8.87007 8.4 8.68613 8.64525 8.46131 8.84963C8.27737 9.01314 8.05255 9.13577 7.82774 9.21752C7.74599 9.23796 7.72555 9.27883 7.72555 9.36058C7.72555 9.60584 7.72555 9.83066 7.72555 10.0759C7.25547 10.0759 6.80584 10.0759 6.33577 10.0759C6.33577 9.85109 6.33577 9.62628 6.33577 9.4219C6.33577 9.31971 6.31533 9.27883 6.21314 9.23796C5.86569 9.13577 5.57956 8.93139 5.35474 8.66569C5.19124 8.46131 5.08905 8.21606 5.08905 7.92993C5.55912 7.92993 6.00876 7.92993 6.47883 7.92993C6.6219 8.31825 7.07153 8.44088 7.39854 8.19562C7.58248 8.05255 7.58248 7.82774 7.41898 7.66423C7.29635 7.56204 7.17372 7.52117 7.01022 7.52117C6.6219 7.52117 6.25401 7.45985 5.92701 7.27591C5.55912 7.07153 5.25255 6.82628 5.12993 6.39708C4.98686 5.90657 5.1708 5.39562 5.64088 5.04817C5.82482 4.92555 6.0292 4.82336 6.23358 4.74161C6.29489 4.70073 6.33577 4.68029 6.33577 4.59854C6.33577 4.43504 6.33577 4.27153 6.33577 4.12847C6.80584 4.12847 7.25547 4.12847 7.72555 4.12847C7.72555 4.29197 7.72555 4.47591 7.72555 4.63942C7.72555 4.70073 7.74599 4.72117 7.8073 4.76204C8.11387 4.86423 8.37956 5.02774 8.58394 5.25255C8.78832 5.47737 8.93139 5.74307 8.93139 6.07007C8.89051 6.07007 8.87007 6.07007 8.8292 6.07007C8.42044 6.07007 8.03212 6.07007 7.62336 6.07007C7.56204 6.07007 7.50073 6.07007 7.50073 5.98832C7.50073 5.94745 7.48029 5.92701 7.45985 5.88613C7.27591 5.6 6.72409 5.6 6.51971 5.86569C6.41752 6.00876 6.43796 6.17226 6.56058 6.29489C6.68321 6.41752 6.84671 6.45839 7.01022 6.45839C7.50073 6.45839 7.9708 6.58102 8.35912 6.90803C8.76788 7.19416 8.97226 7.58248 8.91095 8.07299ZM10.0146 2.35037H3.96496V1.81898C3.96496 1.36934 4.33285 1.0219 4.76204 1.0219H9.21752C9.66715 1.0219 10.0146 1.38978 10.0146 1.81898V2.35037Z" fill="#5E6072"/>
</svg>
