<svg width="35" height="35" viewBox="0 0 35 35" fill="none" xmlns="http://www.w3.org/2000/svg">
<path d="M3.25734 6.3584C2.79853 6.3584 2.42383 6.7331 2.42383 7.19191C2.42383 7.65073 2.79853 8.02543 3.25734 8.02543C3.71616 8.02543 4.09086 7.65073 4.09086 7.19191C4.09086 6.7331 3.71616 6.3584 3.25734 6.3584Z" fill="#D32907"/>
<path d="M27.7813 4.05664H1.46056C0.657636 4.06429 0.00764693 4.71428 0 5.52485V19.3046C0 20.0999 0.665283 20.7193 1.46056 20.7193V20.7117H14.4221C15.4697 19.9317 16.7391 19.5111 18.0391 19.5111C18.2991 19.5187 18.5591 19.5417 18.8114 19.5799L18.7656 17.7676C18.7579 17.7141 18.7503 17.6605 18.7503 17.5994C18.7503 17.5382 18.7579 17.477 18.7656 17.4158C16.5556 19.2511 13.4051 19.4117 11.0192 17.8135C8.04457 15.8176 7.24929 11.7953 9.24514 8.82068C11.241 5.84602 15.2633 5.05074 18.2379 7.04659C21.2126 9.04244 22.0079 13.0647 20.012 16.0394C21.3273 15.4047 23.3843 15.1982 24.8219 15.1982C26.5119 15.1982 28.0642 15.4276 29.2113 15.81V5.52485C29.2113 4.72957 28.5842 4.05664 27.7813 4.05664ZM3.25759 9.55478C1.95761 9.55478 0.894691 8.50715 0.894691 7.19953C0.894691 5.8919 1.95761 4.83663 3.25759 4.83663C4.55757 4.83663 5.61285 5.8919 5.62049 7.19188C5.62049 8.49951 4.55757 9.55478 3.25759 9.55478Z" fill="#D32907"/>
<path d="M14.6209 7.43665C11.8757 7.43665 9.65039 9.6619 9.65039 12.4072C9.65039 15.1524 11.8757 17.3777 14.6209 17.3777C17.3662 17.3777 19.5914 15.1524 19.5914 12.4072C19.5914 9.66955 17.3662 7.44429 14.6209 7.43665Z" fill="#D32907"/>
<path d="M29.2498 17.4618C28.3016 16.98 26.3516 16.7277 24.8299 16.7277C22.2758 16.7277 20.7617 17.2859 20.3564 17.5994C20.7541 17.9129 22.2758 18.4711 24.8299 18.4711C26.0228 18.4711 27.2004 18.3412 28.1487 18.1117C28.7375 17.9665 29.1122 17.8135 29.3416 17.6912C29.2957 17.6223 29.2651 17.5382 29.2498 17.4618Z" fill="#D32907"/>
<path d="M24.8449 20.0082C23.3002 20.0082 21.5643 19.8093 20.3408 19.3123L20.3561 20.0005C20.8302 20.1993 21.2814 20.4593 21.6867 20.7729C22.5737 20.987 23.6902 21.1093 24.8372 21.1093C27.4142 21.1093 29.2113 20.4899 29.5171 20.1229H29.5248V19.297C28.1483 19.8399 26.1295 20.0082 24.8449 20.0082Z" fill="#D32907"/>
<path d="M32.3537 8.94306H30.7402V16.6894C31.0461 17.0259 31.1302 17.3547 31.1302 17.5994C31.1379 17.76 31.1073 17.9206 31.0461 18.0735V20.0846C31.0461 20.1229 31.0538 20.1535 31.0538 20.1917C31.0538 20.2376 31.0461 20.2835 31.0461 20.3217V22.4017C31.9714 22.4322 32.8967 22.5546 33.799 22.7534V10.373V10.3654C33.7914 9.57011 33.149 8.93541 32.3537 8.94306Z" fill="#D32907"/>
<path d="M34.2894 24.4969C33.3488 24.1375 31.873 23.931 30.3436 23.931H30.2824C29.1124 23.931 27.9807 24.0534 27.1013 24.2981C26.3901 24.4816 26.0307 24.6804 25.8701 24.8028C26.2678 25.1163 27.7895 25.6745 30.3436 25.6745C32.9129 25.6745 34.4576 25.124 34.8858 24.8028C34.7023 24.6728 34.5035 24.5734 34.2894 24.4969Z" fill="#D32907"/>
<path d="M4.58789 22.2488V24.1529C4.58789 24.9558 5.23023 25.6058 6.03316 25.6134H12.0589C12.0589 25.537 12.0589 25.537 12.0589 25.5064C12.0589 24.3517 12.3954 23.2199 13.0072 22.2488H4.58789Z" fill="#D32907"/>
<path d="M34.9923 29.0928C33.6617 29.651 31.7117 29.8345 30.3353 29.8345C28.8594 29.8345 27.1236 29.6434 25.8848 29.1539L25.9001 30.018C25.9918 30.1175 26.3512 30.3698 27.223 30.5916C28.1177 30.821 29.2571 30.9433 30.4423 30.9433C33.1952 30.9433 34.7552 30.301 34.9999 30.0028L34.9923 29.0928Z" fill="#D32907"/>
<path d="M18.039 23.6176C16.9914 23.6176 16.1426 24.4664 16.1426 25.514C16.1426 26.5616 16.9914 27.4104 18.039 27.4104C19.0866 27.4104 19.9355 26.5616 19.9355 25.514C19.9355 24.4664 19.0866 23.6176 18.039 23.6176Z" fill="#D32907"/>
<path d="M24.3403 27.9075C24.065 27.8999 23.7974 27.8922 23.5374 27.8693C23.3844 28.2287 23.1933 28.5804 22.9639 28.9092C23.4074 28.9628 23.8739 29.001 24.3556 29.0163L24.3403 27.9075Z" fill="#D32907"/>
<path d="M24.3174 26.3705L24.3021 25.2617C24.2027 25.2617 24.1033 25.2617 24.0115 25.254C24.0192 25.3458 24.0192 25.4299 24.0192 25.514C24.0192 25.797 23.9962 26.0722 23.958 26.3552C24.0804 26.3628 24.1951 26.3705 24.3174 26.3705Z" fill="#D32907"/>
<path d="M34.9695 26.4622C34.7324 26.5616 34.4877 26.6457 34.243 26.7145C33.1648 27.028 31.7807 27.1963 30.3431 27.1963C28.829 27.1963 27.0778 26.9974 25.8467 26.5004L25.862 27.4257C26.2596 27.7392 27.7814 28.2974 30.3431 28.2974C33.1342 28.2974 34.7171 27.6474 34.9695 27.3492C34.9695 27.3186 34.9695 27.2957 34.9771 27.2727L34.9695 26.4622Z" fill="#D32907"/>
<path d="M28.7911 22.134C27.6823 22.4628 26.2753 22.6387 24.8376 22.6387C24.2947 22.6387 23.7594 22.6158 23.2471 22.5699C23.4535 22.9293 23.6218 23.3116 23.7441 23.7093C24.0653 23.7322 24.4094 23.7475 24.7535 23.7475C25.1282 23.3805 25.7323 23.0746 26.5505 22.8452C27.3917 22.6081 28.4546 22.4552 29.5252 22.4017V21.874C29.2958 21.9658 29.0587 22.0576 28.7911 22.134Z" fill="#D32907"/>
<path d="M22.3905 24.6116C22.1917 23.6481 21.6794 22.7763 20.93 22.134C20.4788 21.7363 19.9435 21.4381 19.3624 21.2622C19.3547 21.2622 19.3394 21.2546 19.3318 21.2546C16.9765 20.5434 14.4913 21.8663 13.7801 24.2216C13.0689 26.5768 14.3919 29.0621 16.7471 29.7733C19.1024 30.4844 21.5876 29.1615 22.2988 26.8063C22.5129 26.0951 22.5511 25.3457 22.3905 24.6116ZM18.0394 28.9397C16.1506 28.9397 14.6136 27.4027 14.6136 25.5139C14.6136 23.6251 16.1506 22.0881 18.0394 22.0881C19.9282 22.0881 21.4653 23.6251 21.4653 25.5139C21.4653 27.4027 19.9282 28.9397 18.0394 28.9397Z" fill="#D32907"/>
</svg>
