<svg width="25" height="25" viewBox="0 0 25 25" fill="none" xmlns="http://www.w3.org/2000/svg">
<path d="M3.71094 11.7188C4.30183 11.7188 4.83665 11.4817 5.23186 11.101L7.39994 12.1849C7.38907 12.2732 7.37305 12.36 7.37305 12.4512C7.37305 13.6627 8.35876 14.6484 9.57031 14.6484C10.7819 14.6484 11.7676 13.6627 11.7676 12.4512C11.7676 12.113 11.6844 11.7964 11.5473 11.5099L14.4884 8.56876C14.7749 8.7059 15.0915 8.78906 15.4297 8.78906C16.6412 8.78906 17.627 7.80334 17.627 6.5918C17.627 6.36368 17.5821 6.14796 17.5173 5.94101L20.0727 4.02489C20.4214 4.25777 20.8393 4.39453 21.2891 4.39453C22.5006 4.39453 23.4863 3.40881 23.4863 2.19727C23.4863 0.985718 22.5006 0 21.2891 0C20.0775 0 19.0918 0.985718 19.0918 2.19727C19.0918 2.42538 19.1366 2.64111 19.2015 2.84805L16.646 4.76418C16.2973 4.53129 15.8794 4.39453 15.4297 4.39453C14.2181 4.39453 13.2324 5.38025 13.2324 6.5918C13.2324 6.92997 13.3156 7.24659 13.4527 7.53307L10.5116 10.4742C10.2251 10.3371 9.90849 10.2539 9.57031 10.2539C8.97942 10.2539 8.4446 10.491 8.04939 10.8717L5.88131 9.78775C5.89218 9.69944 5.9082 9.61266 5.9082 9.52148C5.9082 8.30994 4.92249 7.32422 3.71094 7.32422C2.49939 7.32422 1.51367 8.30994 1.51367 9.52148C1.51367 10.733 2.49939 11.7188 3.71094 11.7188Z" fill="white"/>
<path d="M24.2676 23.5352H23.4863V8.05664C23.4863 7.6519 23.1586 7.32422 22.7539 7.32422H19.8242C19.4195 7.32422 19.0918 7.6519 19.0918 8.05664V23.5352H17.627V12.4512C17.627 12.0464 17.2993 11.7188 16.8945 11.7188H13.9648C13.5601 11.7188 13.2324 12.0464 13.2324 12.4512V23.5352H11.7676V18.3105C11.7676 17.9058 11.4399 17.5781 11.0352 17.5781H8.10547C7.70073 17.5781 7.37305 17.9058 7.37305 18.3105V23.5352H5.9082V15.3809C5.9082 14.9761 5.58052 14.6484 5.17578 14.6484H2.24609C1.84135 14.6484 1.51367 14.9761 1.51367 15.3809V23.5352H0.732422C0.327683 23.5352 0 23.8628 0 24.2676C0 24.6723 0.327683 25 0.732422 25H24.2676C24.6723 25 25 24.6723 25 24.2676C25 23.8628 24.6723 23.5352 24.2676 23.5352Z" fill="white"/>
</svg>
