<svg width="33" height="34" viewBox="0 0 33 34" fill="none" xmlns="http://www.w3.org/2000/svg">
<path d="M10.4844 15.3125C10.4844 12.5989 8.27609 10.3906 5.5625 10.3906C2.84891 10.3906 0.640625 12.5989 0.640625 15.3125C0.640625 18.0261 2.84891 20.2344 5.5625 20.2344C8.27609 20.2344 10.4844 18.0261 10.4844 15.3125ZM7.20312 14.2188H6.10938V14.1389C6.10938 13.8813 5.89992 13.6719 5.64234 13.6719H5.48266C5.22508 13.6719 5.01562 13.8813 5.01562 14.1389C5.01562 14.3172 5.11461 14.4774 5.2743 14.5573L6.3407 15.0899C6.87281 15.3563 7.20312 15.8916 7.20312 16.4861C7.20312 17.1828 6.74102 17.7674 6.10938 17.9676V19.1406H5.01562V17.9676C4.38398 17.7674 3.92188 17.1828 3.92188 16.4861V15.8594H5.01562V16.4861C5.01562 16.7437 5.22508 16.9531 5.48266 16.9531H5.64234C5.89992 16.9531 6.10938 16.7437 6.10938 16.4861C6.10938 16.3078 6.01039 16.1476 5.8507 16.0677L4.7843 15.5351C4.25219 15.2687 3.92188 14.7334 3.92188 14.1389C3.92188 13.4422 4.38398 12.8576 5.01562 12.6574V11.4844H6.10938V12.6574C6.74102 12.8576 7.20312 13.4422 7.20312 14.1389V14.2188Z" fill="#D32907"/>
<path d="M1.73438 23.5156H5.01562V33.3594H1.73438V23.5156Z" fill="#D32907"/>
<path d="M8.29688 24.6094H11.5781V33.3594H8.29688V24.6094Z" fill="#D32907"/>
<path d="M14.8594 18.0469H18.1406V33.3594H14.8594V18.0469Z" fill="#D32907"/>
<path d="M25.1565 19.1406C24.6047 19.1406 24.1562 19.5891 24.1562 20.1403C24.1562 20.4034 24.2629 20.6609 24.4488 20.8474L26.0233 22.4219H29.7595L30.6848 19.1844C30.7073 19.1045 30.7188 19.022 30.7188 18.9394C30.7188 18.4472 30.3184 18.0469 29.8268 18.0469H28.33C27.8378 18.0469 27.4375 18.4472 27.4375 18.9394V20.2344H26.3438V19.1406H25.1565Z" fill="#D32907"/>
<path d="M31.6944 26.437L29.8689 23.5156H26.0998L24.2744 26.437C23.8391 27.1327 23.6094 27.9344 23.6094 28.7552V28.9844C23.6094 31.3966 25.5721 33.3594 27.9844 33.3594C30.3966 33.3594 32.3594 31.3966 32.3594 28.9844V28.7552C32.3594 27.9344 32.1297 27.1327 31.6944 26.437ZM29.625 27.3438H28.5312V27.2639C28.5312 27.0069 28.3218 26.7969 28.0642 26.7969H27.9045C27.647 26.7969 27.4375 27.0069 27.4375 27.2639C27.4375 27.4416 27.5365 27.6019 27.6962 27.6817L28.7626 28.2149C29.2947 28.4812 29.625 29.0166 29.625 29.6111C29.625 30.3084 29.1629 30.893 28.5312 31.0926V32.2656H27.4375V31.0926C26.8059 30.8924 26.3438 30.3078 26.3438 29.6111V28.9844H27.4375V29.6111C27.4375 29.8681 27.647 30.0781 27.9045 30.0781H28.0642C28.3218 30.0781 28.5312 29.8681 28.5312 29.6111C28.5312 29.4334 28.4323 29.2731 28.2726 29.1933L27.2062 28.6601C26.6741 28.3938 26.3438 27.8584 26.3438 27.2639C26.3438 26.5666 26.8059 25.982 27.4375 25.7824V24.6094H28.5312V25.7824C29.1629 25.9826 29.625 26.5672 29.625 27.2639V27.3438Z" fill="#D32907"/>
<path d="M22.5156 28.9844V28.7552C22.5156 27.7288 22.8033 26.7269 23.3474 25.8568L25.1029 23.0475L23.6761 21.6207C23.2802 21.2259 23.0625 20.7003 23.0625 20.1403C23.0625 19.1423 23.7663 18.3072 24.7031 18.0994V13.6719H21.4219V33.3594H24.7173C23.3841 32.3613 22.5156 30.7743 22.5156 28.9844Z" fill="#D32907"/>
<path d="M15.4069 15.8594C16.6133 15.8594 17.5944 14.8783 17.5944 13.6719C17.5944 13.4728 17.5588 13.2836 17.5091 13.1004L21.4985 10.8205C21.8961 11.229 22.4495 11.4844 23.0631 11.4844C24.2695 11.4844 25.2506 10.5033 25.2506 9.29688C25.2506 8.89219 25.133 8.51813 24.9405 8.19273L30.7194 2.41391V5.46875H31.8131V0.546875H26.8912V1.64062H29.9461L24.1673 7.41945C23.8419 7.22695 23.4678 7.10938 23.0631 7.10938C21.8567 7.10938 20.8756 8.09047 20.8756 9.29688C20.8756 9.49594 20.9112 9.68516 20.9609 9.86836L16.9715 12.1483C16.5739 11.7398 16.0205 11.4844 15.4069 11.4844C14.2666 11.4844 13.3386 12.3643 13.2391 13.4788L11.377 13.7895C11.4683 14.1384 11.5295 14.4982 11.5569 14.8684L13.4119 14.5595C13.7526 15.3234 14.5171 15.8594 15.4069 15.8594Z" fill="#D32907"/>
</svg>
