<svg width="16" height="16" viewBox="0 0 16 16" fill="none" xmlns="http://www.w3.org/2000/svg">
<path d="M0 8C0 12.4103 3.58974 16 8 16C12.4103 16 16 12.4103 16 8C16 3.58974 12.4103 0 8 0C3.58974 0 0 3.58974 0 8ZM2.89641 7.52L3.88308 6.78359C3.92615 6.75077 3.98154 6.73641 4.03487 6.74462C4.08821 6.75282 4.13744 6.78154 4.17026 6.82462L6.05128 9.34359L11.9959 4.84513C12.039 4.81231 12.0944 4.79795 12.1477 4.80615C12.201 4.81436 12.2503 4.84308 12.2831 4.88615L13.0256 5.86667C13.0933 5.95692 13.0769 6.08615 12.9867 6.15385L5.88718 11.5262C5.85231 11.5528 5.80718 11.5672 5.7641 11.5672C5.75385 11.5672 5.74564 11.5672 5.73538 11.5651C5.68205 11.5569 5.63282 11.5282 5.6 11.4851L2.85333 7.80718C2.78564 7.71692 2.8041 7.58769 2.89641 7.52Z" fill="#5E6072"/>
</svg>
