<svg width="36" height="36" viewBox="0 0 36 36" fill="none" xmlns="http://www.w3.org/2000/svg">
<path d="M18 36C27.9411 36 36 27.9411 36 18C36 8.05887 27.9411 0 18 0C8.05887 0 0 8.05887 0 18C0 27.9411 8.05887 36 18 36Z" fill="#DC4E41"/>
<path d="M14.8132 21.4038C14.1331 21.7115 13.453 21.8462 12.734 21.8462C10.441 21.8462 8.88642 20.2692 8.88642 18C8.88642 15.6731 10.441 14.1538 12.7728 14.1538C14.0748 14.1538 15.1436 14.6346 16.0763 15.6538L18.5247 13.4615C17.1839 11.8654 15.1241 11 12.5785 11C8.16743 11 5 13.9038 5 18C5 22.0962 8.16743 25 12.5008 25C14.4829 25 16.6398 24.4038 18.2138 23.2885V17.7115H14.8132V21.4038Z" fill="white"/>
<path d="M30 16.5962H26.716V13.4231H23.7234V16.5962H20.42V19.4038H23.7234V22.5769H26.716V19.4038H30V16.5962Z" fill="white"/>
</svg>
