<svg width="31" height="31" viewBox="0 0 31 31" fill="none" xmlns="http://www.w3.org/2000/svg">
<path d="M28.8182 15.4252C28.8182 22.7115 22.9356 28.618 15.6793 28.618C8.4232 28.618 2.54065 22.7115 2.54065 15.4252C2.54065 8.13902 8.4232 2.23254 15.6793 2.23254C22.9357 2.23254 28.8182 8.13902 28.8182 15.4252Z" fill="white"/>
<path d="M15.6929 30.6152C7.42204 30.6152 0.692932 23.8584 0.692932 15.5536C0.692932 7.24857 7.42204 0.491943 15.6929 0.491943C23.9638 0.491943 30.6929 7.24857 30.6929 15.5536C30.6929 23.8584 23.9638 30.6152 15.6929 30.6152ZM20.7507 9.44261C20.1377 9.44261 19.6407 9.94166 19.6407 10.5571C19.6407 11.1726 20.1377 11.6716 20.7507 11.6716C21.3636 11.6716 21.8606 11.1726 21.8606 10.5571C21.8606 9.94166 21.3636 9.44261 20.7507 9.44261ZM15.8161 10.8719C13.2453 10.8719 11.1535 12.9721 11.1535 15.5536C11.1535 18.1352 13.2453 20.2354 15.8161 20.2354C18.3869 20.2354 20.4785 18.1351 20.4785 15.5536C20.4785 12.972 18.3869 10.8719 15.8161 10.8719ZM15.8161 18.5527C14.1694 18.5527 12.8294 17.2073 12.8294 15.5537C12.8294 13.9002 14.1694 12.5548 15.8161 12.5548C17.4629 12.5548 18.8026 13.9002 18.8026 15.5537C18.8026 17.2073 17.4629 18.5527 15.8161 18.5527ZM25.2241 11.6626C25.2241 8.50904 22.6779 5.95252 19.5368 5.95252H12.0311C8.89004 5.95252 6.34385 8.50904 6.34385 11.6626V19.2001C6.34385 22.3539 8.89004 24.9104 12.0311 24.9104H19.5368C22.6779 24.9104 25.2241 22.3539 25.2241 19.2001V11.6626ZM23.4429 19.2001C23.4429 21.3661 21.6941 23.122 19.5368 23.122H12.0311C9.8737 23.122 8.12496 21.3662 8.12496 19.2001V11.6626C8.12496 9.49675 9.87383 7.74094 12.0311 7.74094H19.5368C21.6942 7.74094 23.4429 9.49675 23.4429 11.6626V19.2001Z" fill="url(#paint0_linear)"/>
<defs>
<linearGradient id="paint0_linear" x1="-1.40007" y1="30.1678" x2="51.2653" y2="-14.4927" gradientUnits="userSpaceOnUse">
<stop stop-color="#FBE189"/>
<stop offset="0.2" stop-color="#FBBA45"/>
<stop offset="0.368627" stop-color="#F65174"/>
<stop offset="0.521569" stop-color="#D53691"/>
<stop offset="0.729412" stop-color="#8E39CE"/>
<stop offset="1" stop-color="#5A4EE8"/>
</linearGradient>
</defs>
</svg>
