<svg width="35" height="34" viewBox="0 0 35 34" fill="none" xmlns="http://www.w3.org/2000/svg">
<circle cx="17.3704" cy="17.1481" r="15.8519" fill="#D32907" stroke="white" stroke-width="2"/>
<path d="M21.1034 25.1333H12.5219C11.9648 25.1333 11.4131 25.0232 10.8987 24.8092C10.3843 24.5952 9.91727 24.2816 9.52452 23.8864C9.13177 23.4913 8.82103 23.0223 8.61019 22.5066C8.39934 21.9909 8.29256 21.4386 8.29598 20.8815V12.3C8.29598 11.1792 8.74121 10.1043 9.53372 9.31182C10.3262 8.51931 11.4011 8.07408 12.5219 8.07408H21.1034C22.2242 8.07408 23.2991 8.51931 24.0916 9.31182C24.8841 10.1043 25.3293 11.1792 25.3293 12.3V20.8815C25.3327 21.4386 25.2259 21.9909 25.0151 22.5066C24.8043 23.0223 24.4935 23.4913 24.1008 23.8864C23.708 24.2816 23.241 24.5952 22.7266 24.8092C22.2122 25.0232 21.6605 25.1333 21.1034 25.1333ZM12.5219 10.6667C12.0898 10.6701 11.6763 10.8432 11.3707 11.1488C11.0651 11.4544 10.892 11.8679 10.8886 12.3V20.8815C10.892 21.3136 11.0651 21.7271 11.3707 22.0327C11.6763 22.3383 12.0898 22.5114 12.5219 22.5148H21.1034C21.3196 22.5165 21.534 22.4756 21.7344 22.3945C21.9348 22.3133 22.1172 22.1935 22.2713 22.0418C22.4254 21.8901 22.5481 21.7096 22.6324 21.5105C22.7167 21.3114 22.7609 21.0977 22.7626 20.8815V12.3C22.7609 12.0838 22.7167 11.8701 22.6324 11.671C22.5481 11.4719 22.4254 11.2913 22.2713 11.1397C22.1172 10.988 21.9348 10.8682 21.7344 10.787C21.534 10.7059 21.3196 10.665 21.1034 10.6667H12.5219Z" fill="white"/>
<path d="M16.8266 19.5852C16.226 19.5929 15.6367 19.4213 15.1341 19.0924C14.6315 18.7635 14.2384 18.2922 14.0049 17.7387C13.7715 17.1853 13.7084 16.5748 13.8237 15.9853C13.939 15.3958 14.2275 14.8541 14.6522 14.4293C15.077 14.0046 15.6187 13.7161 16.2082 13.6008C16.7977 13.4855 17.4082 13.5486 17.9616 13.782C18.5151 14.0155 18.9864 14.4086 19.3153 14.9112C19.6442 15.4138 19.8158 16.0031 19.8081 16.6037C19.798 17.3913 19.4806 18.1438 18.9237 18.7008C18.3667 19.2577 17.6142 19.5751 16.8266 19.5852ZM16.8266 14.8407C16.4857 14.8331 16.1503 14.9268 15.8626 15.1098C15.5749 15.2928 15.348 15.5571 15.2105 15.869C15.073 16.181 15.0311 16.5268 15.0901 16.8626C15.149 17.1984 15.3063 17.5092 15.5419 17.7557C15.7775 18.0021 16.0808 18.1732 16.4136 18.2473C16.7465 18.3213 17.0938 18.2951 17.4116 18.1718C17.7295 18.0485 18.0037 17.8337 18.1995 17.5546C18.3953 17.2755 18.504 16.9446 18.5118 16.6037C18.5152 16.1521 18.3401 15.7174 18.0244 15.3945C17.7087 15.0715 17.2782 14.8864 16.8266 14.8796V14.8407Z" fill="white"/>
<path d="M21.2854 21.05C21.6577 21.05 21.9595 20.7482 21.9595 20.3759C21.9595 20.0036 21.6577 19.7018 21.2854 19.7018C20.9131 19.7018 20.6113 20.0036 20.6113 20.3759C20.6113 20.7482 20.9131 21.05 21.2854 21.05Z" fill="white"/>
</svg>
