<svg width="15" height="16" viewBox="0 0 15 16" fill="none" xmlns="http://www.w3.org/2000/svg">
<path d="M12.8742 11.536L12.8814 8.62445V6.83704V6.50358C12.819 5.80797 12.2983 5.23786 11.6064 5.12671V4.44545C11.6064 4.06538 11.2908 3.76419 10.9288 3.76419H9.18137C8.80335 3.76419 8.50556 4.08151 8.50556 4.44545V8.3394L4.5898 6.5215L4.58623 6.70975V8.65672L3.2881 8.05972C3.17398 6.45517 3.06165 4.85062 2.94574 3.24607C2.94039 3.15284 2.8655 3.08472 2.77278 3.08472H1.30704C1.21788 3.08472 1.14299 3.15284 1.13408 3.24607C1.05562 4.34505 0.957545 5.72013 0.871954 6.9464L0 6.5484L0.00534936 6.70975V7.84997V8.65672V16H0.550989H1.81523H3.67326H5.40469H7.26272H8.8194H9.1992H10.5562V13.9222H11.9613V15.9982H14.0172V11.536H12.8742ZM2.40724 14.8132H1.13764V13.8935H2.40724V14.8132ZM2.40724 13.6855H1.13764V12.7658H2.40724V13.6855ZM3.83731 14.8132H2.56772V13.8935H3.83731V14.8132ZM3.83731 13.6855H2.56772V12.7658H3.83731V13.6855ZM6.3872 14.8132H5.1176V13.8935H6.3872V14.8132ZM6.3872 13.6855H5.1176V12.7658H6.3872V13.6855ZM7.81727 14.8132H6.54946V13.8935H7.81906V14.8132H7.81727ZM7.81727 13.6855H6.54946V12.7658H7.81906V13.6855H7.81727ZM11.1963 5.12671C10.4724 5.20559 9.90533 5.79184 9.85897 6.51971L9.82865 6.83704V11.5377H9.16711V8.65493L8.89964 8.52764V4.44545C8.89964 4.28768 9.02446 4.17653 9.16711 4.17653H10.9306C11.0875 4.17653 11.1981 4.30382 11.1981 4.44545V5.12671H11.1963Z" fill="#5E6072"/>
<path d="M1.6869 2.46978C1.73861 2.60962 1.77249 2.76738 1.77249 2.90722C1.77249 2.92515 1.79032 2.94128 1.80816 2.94128H2.20758C2.22541 2.94128 2.24146 2.90722 2.24146 2.88929C2.20758 2.81937 2.18975 2.73153 2.15408 2.64547C2.06671 2.3138 2.24146 2.08612 2.51963 2.17397C2.65871 2.20803 2.77997 2.26181 2.91905 2.29588C3.3363 2.41779 3.59664 2.26181 3.68402 1.8423C3.75356 1.5447 3.94435 1.33494 4.20469 1.3188C4.37944 1.30088 4.57023 1.3188 4.76103 1.3188C4.98749 1.3188 5.09091 1.17897 5.07308 0.917218C5.05703 0.77738 5.00354 0.619614 4.95183 0.497704C4.58628 -0.253477 3.61447 -0.061648 3.30064 0.461848C3.14372 0.707461 3.02247 1.00327 2.90122 1.28295C2.79601 1.4927 2.58917 1.61462 2.37876 1.56262C2.27534 1.5447 2.17013 1.51063 2.06671 1.49271C1.719 1.44071 1.51037 1.73832 1.57991 2.08612C1.5817 2.24389 1.63341 2.3658 1.6869 2.46978Z" fill="#5E6072"/>
</svg>
