<svg width="30" height="30" viewBox="0 0 30 30" fill="none" xmlns="http://www.w3.org/2000/svg">
<circle cx="15" cy="15" r="15" fill="#ECEFF1"/>
<path d="M20.8742 18.536L20.8814 15.6245V13.837V13.5036C20.819 12.808 20.2983 12.2379 19.6064 12.1267V11.4454C19.6064 11.0654 19.2908 10.7642 18.9288 10.7642H17.1814C16.8033 10.7642 16.5056 11.0815 16.5056 11.4454V15.3394L12.5898 13.5215L12.5862 13.7097V15.6567L11.2881 15.0597C11.174 13.4552 11.0616 11.8506 10.9457 10.2461C10.9404 10.1528 10.8655 10.0847 10.7728 10.0847H9.30704C9.21788 10.0847 9.14299 10.1528 9.13408 10.2461C9.05562 11.3451 8.95754 12.7201 8.87195 13.9464L8 13.5484L8.00535 13.7097V14.85V15.6567V23H8.55099H9.81523H11.6733H13.4047H15.2627H16.8194H17.1992H18.5562V20.9222H19.9613V22.9982H22.0172V18.536H20.8742ZM10.4072 21.8132H9.13764V20.8935H10.4072V21.8132ZM10.4072 20.6855H9.13764V19.7658H10.4072V20.6855ZM11.8373 21.8132H10.5677V20.8935H11.8373V21.8132ZM11.8373 20.6855H10.5677V19.7658H11.8373V20.6855ZM14.3872 21.8132H13.1176V20.8935H14.3872V21.8132ZM14.3872 20.6855H13.1176V19.7658H14.3872V20.6855ZM15.8173 21.8132H14.5495V20.8935H15.8191V21.8132H15.8173ZM15.8173 20.6855H14.5495V19.7658H15.8191V20.6855H15.8173ZM19.1963 12.1267C18.4724 12.2056 17.9053 12.7918 17.859 13.5197L17.8287 13.837V18.5377H17.1671V15.6549L16.8996 15.5276V11.4454C16.8996 11.2877 17.0245 11.1765 17.1671 11.1765H18.9306C19.0875 11.1765 19.1981 11.3038 19.1981 11.4454V12.1267H19.1963Z" fill="#5E6072"/>
<path d="M9.6869 9.46978C9.73861 9.60962 9.77249 9.76738 9.77249 9.90722C9.77249 9.92515 9.79032 9.94128 9.80816 9.94128H10.2076C10.2254 9.94128 10.2415 9.90722 10.2415 9.88929C10.2076 9.81937 10.1897 9.73153 10.1541 9.64547C10.0667 9.3138 10.2415 9.08612 10.5196 9.17397C10.6587 9.20803 10.78 9.26181 10.919 9.29588C11.3363 9.41779 11.5966 9.26181 11.684 8.8423C11.7536 8.5447 11.9444 8.33494 12.2047 8.3188C12.3794 8.30088 12.5702 8.3188 12.761 8.3188C12.9875 8.3188 13.0909 8.17897 13.0731 7.91722C13.057 7.77738 13.0035 7.61961 12.9518 7.4977C12.5863 6.74652 11.6145 6.93835 11.3006 7.46185C11.1437 7.70746 11.0225 8.00327 10.9012 8.28295C10.796 8.4927 10.5892 8.61462 10.3788 8.56262C10.2753 8.5447 10.1701 8.51063 10.0667 8.49271C9.719 8.44071 9.51037 8.73832 9.57991 9.08612C9.5817 9.24389 9.63341 9.3658 9.6869 9.46978Z" fill="#5E6072"/>
</svg>
