<svg width="24" height="24" viewBox="0 0 24 24" fill="none" xmlns="http://www.w3.org/2000/svg">
<g clip-path="url(#clip0)">
<path d="M11.7 23.4C18.1617 23.4 23.4 18.1617 23.4 11.7C23.4 5.23827 18.1617 0 11.7 0C5.23827 0 0 5.23827 0 11.7C0 18.1617 5.23827 23.4 11.7 23.4Z" fill="white"/>
<path d="M14.9999 18.2801H8.37993C7.95014 18.2801 7.52458 18.1951 7.12775 18.0301C6.73092 17.865 6.37065 17.6231 6.06767 17.3182C5.76468 17.0134 5.52497 16.6516 5.36232 16.2538C5.19967 15.856 5.1173 15.4299 5.11993 15.0001V8.38012C5.11993 7.51551 5.4634 6.68632 6.07477 6.07495C6.68614 5.46358 7.51533 5.12012 8.37993 5.12012H14.9999C15.8645 5.12012 16.6937 5.46358 17.3051 6.07495C17.9165 6.68632 18.2599 7.51551 18.2599 8.38012V15.0001C18.2626 15.4299 18.1802 15.856 18.0175 16.2538C17.8549 16.6516 17.6152 17.0134 17.3122 17.3182C17.0092 17.6231 16.6489 17.865 16.2521 18.0301C15.8553 18.1951 15.4297 18.2801 14.9999 18.2801V18.2801ZM8.37993 7.12012C8.04657 7.12273 7.7276 7.25632 7.49187 7.49205C7.25614 7.72778 7.12255 8.04675 7.11993 8.38012V15.0001C7.12255 15.3335 7.25614 15.6525 7.49187 15.8882C7.7276 16.1239 8.04657 16.2575 8.37993 16.2601H14.9999C15.1667 16.2614 15.3321 16.2299 15.4867 16.1673C15.6413 16.1047 15.782 16.0122 15.9009 15.8952C16.0198 15.7782 16.1144 15.639 16.1794 15.4854C16.2445 15.3318 16.2786 15.1669 16.2799 15.0001V8.38012C16.2786 8.21334 16.2445 8.04845 16.1794 7.89486C16.1144 7.74128 16.0198 7.60201 15.9009 7.48501C15.782 7.36801 15.6413 7.27556 15.4867 7.21295C15.3321 7.15034 15.1667 7.1188 14.9999 7.12012H8.37993Z" fill="black"/>
<path d="M11.6999 13.9999C11.2366 14.0058 10.782 13.8735 10.3943 13.6197C10.0065 13.366 9.70326 13.0024 9.5232 12.5755C9.34314 12.1485 9.29447 11.6776 9.38342 11.2228C9.47236 10.7681 9.69488 10.3502 10.0225 10.0225C10.3502 9.69488 10.7681 9.47236 11.2228 9.38342C11.6776 9.29447 12.1485 9.34314 12.5755 9.5232C13.0024 9.70326 13.366 10.0065 13.6197 10.3943C13.8735 10.782 14.0058 11.2366 13.9999 11.6999C13.9921 12.3075 13.7473 12.888 13.3176 13.3176C12.888 13.7473 12.3075 13.9921 11.6999 13.9999V13.9999ZM11.6999 10.3399C11.4369 10.334 11.1782 10.4063 10.9562 10.5475C10.7343 10.6887 10.5593 10.8925 10.4532 11.1332C10.3471 11.3739 10.3148 11.6406 10.3603 11.8996C10.4058 12.1587 10.5271 12.3984 10.7088 12.5886C10.8906 12.7787 11.1246 12.9107 11.3813 12.9678C11.6381 13.0249 11.906 13.0047 12.1512 12.9096C12.3964 12.8144 12.6079 12.6487 12.759 12.4334C12.9101 12.2181 12.9939 11.9628 12.9999 11.6999C13.0026 11.3515 12.8674 11.0162 12.6239 10.7671C12.3804 10.5179 12.0482 10.3752 11.6999 10.3699V10.3399Z" fill="black"/>
<path d="M15.1401 15.1301C15.4273 15.1301 15.6601 14.8973 15.6601 14.6101C15.6601 14.3229 15.4273 14.0901 15.1401 14.0901C14.8529 14.0901 14.6201 14.3229 14.6201 14.6101C14.6201 14.8973 14.8529 15.1301 15.1401 15.1301Z" fill="black"/>
</g>
<defs>
<clipPath id="clip0">
<rect width="23.4" height="23.4" fill="white"/>
</clipPath>
</defs>
</svg>
