<svg width="14" height="14" viewBox="0 0 14 14" fill="none" xmlns="http://www.w3.org/2000/svg">
    <path d="M10.0002 13.28H3.38018C2.95038 13.28 2.52482 13.195 2.12799 13.0299C1.73116 12.8649 1.37089 12.6229 1.06791 12.3181C0.764929 12.0133 0.525217 11.6515 0.362567 11.2537C0.199918 10.8559 0.117542 10.4298 0.120179 10V3.38C0.120179 2.51539 0.463642 1.6862 1.07501 1.07483C1.68638 0.463459 2.51557 0.119995 3.38018 0.119995H10.0002C10.8648 0.119995 11.694 0.463459 12.3053 1.07483C12.9167 1.6862 13.2602 2.51539 13.2602 3.38V10C13.2628 10.4298 13.1804 10.8559 13.0178 11.2537C12.8551 11.6515 12.6154 12.0133 12.3124 12.3181C12.0095 12.6229 11.6492 12.8649 11.2524 13.0299C10.8555 13.195 10.43 13.28 10.0002 13.28ZM3.38018 2.12C3.04681 2.12261 2.72785 2.2562 2.49211 2.49193C2.25638 2.72766 2.12279 3.04663 2.12018 3.38V10C2.12279 10.3334 2.25638 10.6523 2.49211 10.8881C2.72785 11.1238 3.04681 11.2574 3.38018 11.26H10.0002C10.167 11.2613 10.3324 11.2298 10.487 11.1672C10.6415 11.1046 10.7823 11.0121 10.9011 10.8951C11.02 10.7781 11.1147 10.6388 11.1797 10.4852C11.2447 10.3317 11.2789 10.1668 11.2802 10V3.38C11.2789 3.21322 11.2447 3.04833 11.1797 2.89474C11.1147 2.74116 11.02 2.60189 10.9011 2.48489C10.7823 2.36788 10.6415 2.27544 10.487 2.21283C10.3324 2.15022 10.167 2.11868 10.0002 2.12H3.38018Z" fill="#D32907"/>
    <path d="M6.70063 9.00002C6.2373 9.00595 5.78272 8.87359 5.39499 8.61987C5.00726 8.36614 4.70399 8.00257 4.52393 7.57561C4.34387 7.14866 4.2952 6.67772 4.38415 6.22296C4.47309 5.76821 4.69561 5.3503 5.02326 5.02265C5.35091 4.695 5.76882 4.47248 6.22357 4.38354C6.67833 4.29459 7.14927 4.34326 7.57623 4.52332C8.00318 4.70338 8.36675 5.00665 8.62048 5.39438C8.8742 5.78211 9.00656 6.23669 9.00063 6.70002C8.99286 7.3076 8.74804 7.88811 8.31838 8.31777C7.88872 8.74743 7.30821 8.99225 6.70063 9.00002ZM6.70063 5.34002C6.43768 5.33416 6.17889 5.40639 5.95698 5.54759C5.73507 5.68879 5.56002 5.89261 5.45394 6.1333C5.34786 6.37398 5.31553 6.64071 5.36103 6.89976C5.40653 7.15882 5.52781 7.39856 5.70956 7.58869C5.8913 7.77882 6.12533 7.9108 6.38207 7.96793C6.63881 8.02507 6.90673 8.00479 7.15195 7.90968C7.39717 7.81456 7.60868 7.64887 7.75974 7.43356C7.9108 7.21824 7.99463 6.96297 8.00063 6.70002C8.00331 6.35164 7.86816 6.01634 7.62464 5.76719C7.38112 5.51805 7.04898 5.37529 6.70063 5.37002V5.34002Z" fill="#D32907"/>
    <path d="M10.1401 10.13C10.4273 10.13 10.6601 9.89715 10.6601 9.60997C10.6601 9.32278 10.4273 9.08997 10.1401 9.08997C9.85293 9.08997 9.62012 9.32278 9.62012 9.60997C9.62012 9.89715 9.85293 10.13 10.1401 10.13Z" fill="#D32907"/>
</svg>