<svg width="93" height="79" viewBox="0 0 93 79" fill="none" xmlns="http://www.w3.org/2000/svg">
<path d="M87.6385 13.9068H72.1866V7.72598C72.1814 3.46116 68.7254 0.00510861 64.4606 0H49.0086C44.7438 0.00510861 41.2877 3.46116 41.2826 7.72598V13.9068H36.647C35.7936 13.9068 35.1018 14.5986 35.1018 15.452C35.1018 16.3054 35.7936 16.9972 36.647 16.9972H87.6385C88.4919 16.9972 89.1837 17.689 89.1837 18.5424V40.1751C89.1837 41.0285 88.4919 41.7203 87.6385 41.7203H83.0029V35.5395C83.0029 32.9794 80.9275 30.9039 78.3673 30.9039H69.0962C66.536 30.9039 64.4606 32.9794 64.4606 35.5395V41.7203H49.0086V35.5395C49.0086 32.9794 46.9332 30.9039 44.373 30.9039H35.1018C34.2484 30.9039 33.5566 31.5957 33.5566 32.4491C33.5566 33.3025 34.2484 33.9943 35.1018 33.9943H44.373C45.2264 33.9943 45.9182 34.6861 45.9182 35.5395V41.7203H41.2826V38.6299C41.2826 37.7765 40.5908 37.0847 39.7374 37.0847C38.884 37.0847 38.1922 37.7765 38.1922 38.6299V41.7203H36.2762C35.4228 41.7203 34.731 42.4121 34.731 43.2655C34.731 44.1189 35.4228 44.8107 36.2762 44.8107H45.9182V47.9011C45.9182 48.7545 45.2264 49.4463 44.373 49.4463H38.6867C37.8333 49.4463 37.1415 50.1381 37.1415 50.9915C37.1415 51.8449 37.8333 52.5367 38.6867 52.5367H44.373C46.9332 52.5367 49.0086 50.4613 49.0086 47.9011V44.8107H64.4606V47.9011C64.4606 50.4613 66.536 52.5367 69.0962 52.5367H75.2769C77.8371 52.5367 79.9125 50.4613 79.9125 47.9011V44.8107H86.0933V63.3531C86.0933 65.0598 84.7097 66.4435 83.0029 66.4435H38.1922C37.3388 66.4435 36.647 67.1353 36.647 67.9886C36.647 68.842 37.3388 69.5338 38.1922 69.5338H83.0029C86.4165 69.5338 89.1837 66.7666 89.1837 63.3531V44.5264C91.0292 43.8739 92.266 42.1325 92.2741 40.1751V18.5424C92.2741 15.9822 90.1987 13.9068 87.6385 13.9068ZM44.373 13.9068V7.72598C44.373 5.16582 46.4484 3.09039 49.0086 3.09039H64.4606C67.0207 3.09039 69.0962 5.16582 69.0962 7.72598V13.9068H44.373ZM76.8221 47.9011C76.8221 48.7545 76.1303 49.4463 75.2769 49.4463H69.0962C68.2428 49.4463 67.551 48.7545 67.551 47.9011V44.8107H76.8221V47.9011ZM78.3673 41.7203H75.2769V38.6299C75.2769 37.7765 74.5851 37.0847 73.7318 37.0847C72.8784 37.0847 72.1866 37.7765 72.1866 38.6299V41.7203H67.551V35.5395C67.551 34.6861 68.2428 33.9943 69.0962 33.9943H78.3673C79.2207 33.9943 79.9125 34.6861 79.9125 35.5395V41.7203H78.3673Z" fill="white"/>
<path d="M81.4581 63.3532C82.3115 63.3532 83.0033 62.6614 83.0033 61.808V57.1724C83.0033 56.319 82.3115 55.6272 81.4581 55.6272C80.6047 55.6272 79.9129 56.319 79.9129 57.1724V60.2628H76.8225C75.9692 60.2628 75.2773 60.9546 75.2773 61.808C75.2773 62.6614 75.9692 63.3532 76.8225 63.3532H81.4581Z" fill="white"/>
<path d="M32.1304 16.1367L32.8937 10.0378C33.1136 8.27816 32.5671 6.50885 31.3932 5.17974C30.2193 3.85062 28.5311 3.08975 26.7578 3.09058H19.6499C18.7965 3.09058 18.1047 3.78238 18.1047 4.63577C18.1047 5.48916 18.7965 6.18097 19.6499 6.18097H26.7578C27.644 6.18122 28.4875 6.56194 29.0739 7.22642C29.6604 7.89089 29.9333 8.77516 29.8234 9.65457L29.0647 15.7612C29.0213 16.1018 28.8664 16.4185 28.6244 16.662L23.8219 21.4521L18.1047 27.1694L7.58497 16.6543C7.34288 16.4108 7.18806 16.0941 7.14458 15.7535L6.3828 9.65457C6.27284 8.77463 6.54619 7.88985 7.13331 7.22526C7.72044 6.56068 8.56477 6.18033 9.45156 6.18097H11.9239C12.7773 6.18097 13.4691 5.48916 13.4691 4.63577C13.4691 3.78238 12.7773 3.09058 11.9239 3.09058H9.45156C7.67757 3.09041 5.98903 3.8525 4.81559 5.18294C3.64214 6.51338 3.09693 8.28389 3.31868 10.044L4.082 16.1428C4.21097 17.1651 4.67565 18.1157 5.40315 18.8454L8.41165 21.8539L0.151025 58.9896C-0.315031 61.0547 0.313613 63.2144 1.8152 64.7068L13.7348 76.6265C16.1502 79.0351 20.0591 79.0351 22.4745 76.6265L34.32 64.7825C35.8638 63.2305 36.4761 60.9801 35.9316 58.8598L26.6372 23.0128L30.8093 18.8408C31.5371 18.1107 32.0018 17.1595 32.1304 16.1367ZM6.94371 42.714L19.2048 30.4529L24.1093 25.5485L25.7549 31.8946L4.65064 52.9881L6.94371 42.714ZM15.9198 29.3589L8.1845 37.0942L10.9968 24.4375L15.9198 29.3589ZM3.16725 59.6587L3.40212 58.6079L26.6481 35.3635L28.2937 41.7081L5.74309 64.2587L4.00011 62.5157C3.25203 61.7686 2.93785 60.6908 3.16725 59.6587ZM30.8386 51.5248L11.9239 70.4395L7.928 66.4436L29.193 45.1786L30.8386 51.5248ZM32.135 62.5915L20.2896 74.4354C19.0828 75.6418 17.1266 75.6418 15.9198 74.4354L14.1088 72.6244L31.7379 54.9953L32.9401 59.6309C33.2123 60.6906 32.9064 61.8154 32.135 62.5915Z" fill="white"/>
</svg>
