<svg width="36" height="36" viewBox="0 0 36 36" fill="none" xmlns="http://www.w3.org/2000/svg">
<path fill-rule="evenodd" clip-rule="evenodd" d="M17.8764 35.8763C27.7493 35.8763 35.7528 27.8728 35.7528 17.9999C35.7528 8.12707 27.7493 0.123535 17.8764 0.123535C8.00354 0.123535 0 8.12707 0 17.9999C0 27.8728 8.00354 35.8763 17.8764 35.8763Z" fill="#346DA6"/>
<path fill-rule="evenodd" clip-rule="evenodd" d="M13.0395 26.237V15.3331H9.6694V26.237H13.0395ZM13.0395 11.4681C13.0195 10.4923 12.3691 9.74939 11.3127 9.74939C10.2559 9.74939 9.56543 10.4923 9.56543 11.4681C9.56543 12.4227 10.2358 13.1872 11.2722 13.1872H11.2923C12.3691 13.1872 13.0395 12.4227 13.0395 11.4681ZM18.5377 26.237V20.0245C18.5377 19.692 18.5617 19.3595 18.6595 19.1225C18.9268 18.4578 19.5351 17.7698 20.5566 17.7698C21.8948 17.7698 22.734 18.5293 22.734 20.0245V26.237H26.1269V19.8582C26.1269 16.4412 24.3028 14.8512 21.8698 14.8512C19.8749 14.8512 18.9992 15.9665 18.513 16.7256L18.5374 15.2673H15.1504C15.1991 16.3111 15.1504 26.237 15.1504 26.237H18.5377Z" fill="white"/>
</svg>
