<svg width="12" height="12" viewBox="0 0 12 12" fill="none" xmlns="http://www.w3.org/2000/svg">
    <path d="M11.5654 6.78148V11.0598H9.08398V7.06812C9.08398 6.06614 8.72631 5.38161 7.82785 5.38161C7.54812 5.38311 7.27569 5.47108 7.0479 5.63345C6.82012 5.79583 6.64811 6.02467 6.55546 6.28861C6.49069 6.48316 6.4617 6.68783 6.46989 6.89271L6.46989 11.0581L3.98844 11.0581C3.98844 11.0581 4.02181 4.29833 3.98844 3.59925L6.46989 3.59925V4.656C6.46476 4.66456 6.45791 4.67226 6.45363 4.68081H6.46989V4.656C6.69433 4.26604 7.02131 3.94502 7.41533 3.7278C7.80935 3.51058 8.25535 3.40545 8.70491 3.42384C10.3367 3.42384 11.5594 4.49 11.5594 6.78062L11.5654 6.78148ZM1.40088 0.00459045C1.22404 -0.0103564 1.04601 0.01129 0.8779 0.0681786C0.70979 0.125067 0.555201 0.215979 0.423774 0.335245C0.292348 0.454511 0.186902 0.599574 0.11401 0.761388C0.0411174 0.923203 0.00234171 1.0983 0.000102825 1.27576C-0.00213606 1.45322 0.0322089 1.62924 0.100996 1.79284C0.169782 1.95644 0.271536 2.10412 0.399912 2.22666C0.528288 2.3492 0.680534 2.44399 0.847156 2.5051C1.01378 2.56621 1.1912 2.59234 1.36837 2.58186L1.38463 2.58186C1.56256 2.59746 1.7418 2.57602 1.91104 2.51889C2.08028 2.46177 2.23584 2.37019 2.36793 2.24995C2.50001 2.1297 2.60574 1.98339 2.67846 1.82025C2.75118 1.6571 2.7893 1.48066 2.79043 1.30204C2.79156 1.12343 2.75566 0.946517 2.68501 0.782466C2.61435 0.618416 2.51047 0.470785 2.37992 0.348883C2.24936 0.22698 2.09497 0.133451 1.92646 0.0741944C1.75796 0.0149375 1.579 -0.00876166 1.40088 0.00459045ZM0.144756 11.059H2.62621L2.62621 3.60011L0.144756 3.60011L0.144756 11.059Z" fill="#D32907"/>
</svg>