<svg width="21" height="20" viewBox="0 0 21 20" fill="none" xmlns="http://www.w3.org/2000/svg">
<path d="M-4.37114e-07 10C-6.78525e-07 15.5228 4.70101 20 10.5 20C16.299 20 21 15.5228 21 10C21 4.47715 16.299 -2.05488e-07 10.5 -4.5897e-07C4.70101 -7.12451e-07 -1.95703e-07 4.47715 -4.37114e-07 10Z" fill="white"/>
<path d="M16.8242 11.1145V15.3928H14.3428V11.4011C14.3428 10.3991 13.9851 9.71461 13.0866 9.71461C12.8069 9.71612 12.5345 9.80409 12.3067 9.96646C12.0789 10.1288 11.9069 10.3577 11.8142 10.6216C11.7495 10.8162 11.7205 11.0208 11.7287 11.2257L11.7287 15.3911L9.24723 15.3911C9.24723 15.3911 9.2806 8.63134 9.24723 7.93226L11.7287 7.93226V8.98901C11.7235 8.99756 11.7167 9.00526 11.7124 9.01382H11.7287V8.98901C11.9531 8.59905 12.2801 8.27803 12.6741 8.06081C13.0681 7.84358 13.5141 7.73846 13.9637 7.75685C15.5955 7.75685 16.8182 8.82301 16.8182 11.1136L16.8242 11.1145ZM6.65967 4.3376C6.48283 4.32265 6.3048 4.3443 6.13669 4.40119C5.96858 4.45808 5.81399 4.54899 5.68256 4.66825C5.55114 4.78752 5.44569 4.93258 5.3728 5.0944C5.29991 5.25621 5.26113 5.43131 5.25889 5.60877C5.25665 5.78623 5.291 5.96225 5.35978 6.12585C5.42857 6.28945 5.53032 6.43713 5.6587 6.55967C5.78708 6.68221 5.93932 6.777 6.10594 6.83811C6.27257 6.89922 6.44999 6.92535 6.62716 6.91487H6.64342C6.82135 6.93047 7.00059 6.90903 7.16983 6.8519C7.33907 6.79477 7.49463 6.7032 7.62671 6.58296C7.7588 6.46271 7.86453 6.3164 7.93725 6.15325C8.00997 5.99011 8.04809 5.81367 8.04922 5.63505C8.05035 5.45644 8.01445 5.27952 7.9438 5.11547C7.87314 4.95142 7.76926 4.80379 7.63871 4.68189C7.50815 4.55999 7.35376 4.46646 7.18525 4.4072C7.01675 4.34795 6.83779 4.32425 6.65967 4.3376ZM5.40355 15.392H7.885L7.885 7.93311H5.40355L5.40355 15.392Z" fill="black"/>
</svg>
