<svg width="26" height="25" viewBox="0 0 26 25" fill="none" xmlns="http://www.w3.org/2000/svg">
<circle cx="13.0313" cy="12.3438" r="12.3438" fill="#6B6B6B"/>
<path d="M18.3161 13.0858V17.1481H15.9599V13.358C15.9599 12.4066 15.6203 11.7566 14.7672 11.7566C14.5016 11.758 14.2429 11.8415 14.0266 11.9957C13.8103 12.1499 13.647 12.3672 13.559 12.6178C13.4975 12.8025 13.47 12.9969 13.4778 13.1914L13.4778 17.1465H11.1216C11.1216 17.1465 11.1533 10.728 11.1216 10.0642H13.4778V11.0676C13.4729 11.0757 13.4664 11.083 13.4623 11.0912H13.4778V11.0676C13.6909 10.6973 14.0013 10.3925 14.3755 10.1863C14.7496 9.98 15.1731 9.88018 15.6 9.89764C17.1494 9.89764 18.3104 10.91 18.3104 13.085L18.3161 13.0858ZM8.66464 6.651C8.49672 6.6368 8.32768 6.65736 8.16806 6.71137C8.00843 6.76539 7.86165 6.85171 7.73685 6.96496C7.61206 7.0782 7.51194 7.21594 7.44273 7.36959C7.37351 7.52324 7.3367 7.68949 7.33457 7.85799C7.33244 8.0265 7.36506 8.19363 7.43037 8.34897C7.49568 8.50432 7.5923 8.64454 7.7142 8.76089C7.83609 8.87725 7.98065 8.96725 8.13886 9.02528C8.29707 9.0833 8.46554 9.10812 8.63377 9.09816H8.6492C8.81816 9.11298 8.98835 9.09262 9.14904 9.03837C9.30974 8.98413 9.45745 8.89718 9.58286 8.78301C9.70828 8.66883 9.80868 8.52991 9.87772 8.375C9.94677 8.22009 9.98297 8.05255 9.98404 7.88295C9.98511 7.71335 9.95103 7.54537 9.88394 7.3896C9.81685 7.23383 9.71822 7.09366 9.59425 6.97791C9.47029 6.86216 9.32368 6.77335 9.16369 6.71709C9.00369 6.66082 8.83377 6.63832 8.66464 6.651ZM7.47192 17.1473H9.82811L9.82811 10.065H7.47192L7.47192 17.1473Z" fill="white"/>
</svg>
