<svg width="31" height="31" viewBox="0 0 31 31" fill="none" xmlns="http://www.w3.org/2000/svg">
<path d="M15.8466 30.123C7.57542 30.123 0.846497 23.3665 0.846497 15.0616C0.846497 6.75645 7.57542 0 15.8466 0C24.1176 0 30.8465 6.75645 30.8465 15.0616C30.8465 23.3665 24.1176 30.123 15.8466 30.123Z" fill="#007AB8"/>
<path d="M24.3275 16.208V21.8318C24.3275 21.9708 24.2153 22.0835 24.0769 22.0835H21.1855C21.0472 22.0835 20.935 21.9708 20.935 21.8318V16.6018C20.935 15.2253 20.4452 14.2853 19.2168 14.2853C18.2796 14.2853 17.7226 14.9182 17.4767 15.5309C17.3874 15.75 17.3645 16.0541 17.3645 16.3612V21.8315C17.3645 21.9704 17.2523 22.0831 17.1139 22.0831H14.2234C14.0846 22.0831 13.9722 21.9709 13.9729 21.8315C13.9793 20.4387 14.0084 13.6808 13.9788 12.0924C13.9761 11.9519 14.0891 11.8379 14.2293 11.8379H17.1141C17.2524 11.8379 17.3646 11.9505 17.3646 12.0895V13.2897C17.3577 13.3012 17.3482 13.3122 17.3422 13.3233H17.3646V13.2897C17.8155 12.593 18.6195 11.5973 20.4222 11.5973C22.6541 11.5973 24.3275 13.0616 24.3275 16.208ZM8.95494 22.0835H11.8455C11.9837 22.0835 12.0959 21.9708 12.0959 21.8318V12.0895C12.0959 11.9505 11.9837 11.8379 11.8455 11.8379H8.95494C8.81654 11.8379 8.70447 11.9505 8.70447 12.0895V21.8318C8.70447 21.9708 8.81654 22.0835 8.95494 22.0835Z" fill="white"/>
<path d="M12.1138 8.71267C12.1138 9.71981 11.3007 10.5362 10.2979 10.5362C9.2949 10.5362 8.48184 9.71981 8.48184 8.71267C8.48184 7.70577 9.2949 6.88937 10.2979 6.88937C11.3007 6.88937 12.1138 7.70577 12.1138 8.71267Z" fill="white"/>
</svg>
