<svg width="35" height="34" viewBox="0 0 35 34" fill="none" xmlns="http://www.w3.org/2000/svg">
<circle cx="17.5188" cy="17.1481" r="15.8519" fill="#D32907" stroke="white" stroke-width="2"/>
<path d="M24.7334 18.1612V23.7072H21.5167V18.5328C21.5167 17.2339 21.0531 16.3465 19.8884 16.3465C19.5258 16.3485 19.1727 16.4625 18.8774 16.673C18.5821 16.8835 18.3591 17.1801 18.239 17.5223C18.1551 17.7745 18.1175 18.0398 18.1281 18.3054V23.705H14.9114C14.9114 23.705 14.9547 14.9423 14.9114 14.0361L18.1281 14.0361V15.4059C18.1215 15.417 18.1126 15.427 18.107 15.4381H18.1281V15.4059C18.419 14.9004 18.8429 14.4843 19.3537 14.2027C19.8644 13.9211 20.4426 13.7848 21.0254 13.8087C23.1406 13.8087 24.7257 15.1907 24.7257 18.1601L24.7334 18.1612ZM11.5572 9.37632C11.3279 9.35695 11.0972 9.38501 10.8792 9.45875C10.6613 9.5325 10.4609 9.65034 10.2905 9.80495C10.1202 9.95955 9.98349 10.1476 9.889 10.3574C9.79451 10.5671 9.74425 10.7941 9.74134 11.0241C9.73844 11.2542 9.78296 11.4823 9.87213 11.6944C9.9613 11.9065 10.0932 12.0979 10.2596 12.2568C10.426 12.4156 10.6234 12.5385 10.8394 12.6177C11.0554 12.6969 11.2854 12.7308 11.515 12.7172H11.5361C11.7668 12.7374 11.9991 12.7097 12.2185 12.6356C12.4379 12.5615 12.6395 12.4428 12.8107 12.287C12.982 12.1311 13.119 11.9414 13.2133 11.7299C13.3076 11.5185 13.357 11.2897 13.3584 11.0582C13.3599 10.8267 13.3134 10.5973 13.2218 10.3847C13.1302 10.172 12.9955 9.98065 12.8263 9.82263C12.6571 9.6646 12.4569 9.54336 12.2385 9.46655C12.02 9.38973 11.7881 9.35901 11.5572 9.37632ZM9.92886 23.7061H13.1456L13.1456 14.0372H9.92886L9.92886 23.7061Z" fill="white"/>
</svg>
