<svg width="11" height="15" viewBox="0 0 11 15" fill="none" xmlns="http://www.w3.org/2000/svg">
<path d="M5.35437 15C5.86712 15 6.33286 14.7387 6.60035 14.3011C8.47461 11.2347 10.7087 7.19331 10.7087 5.35433C10.7087 2.40194 8.3068 0 5.35437 0C2.40194 0 0 2.40194 0 5.35433C0 7.19331 2.23418 11.2347 4.1084 14.3011C4.37589 14.7387 4.84167 15 5.35437 15ZM3.20222 4.9867C3.20222 3.80005 4.16769 2.83462 5.35437 2.83462C6.54106 2.83462 7.50653 3.80005 7.50653 4.9867C7.50653 6.17339 6.54106 7.13882 5.35437 7.13882C4.16769 7.13882 3.20222 6.17343 3.20222 4.9867Z" fill="#787878"/>
</svg>
