<svg width="22" height="30" viewBox="0 0 22 30" fill="none" xmlns="http://www.w3.org/2000/svg">
    <path d="M19.25 11H18.3333V7.33333C18.3333 3.289 15.0443 0 11 0C6.95567 0 3.66667 3.289 3.66667 7.33333V11H2.75C1.23444 11 0 12.2332 0 13.75V26.5833C0 28.1001 1.23444 29.3333 2.75 29.3333H19.25C20.7656 29.3333 22 28.1001 22 26.5833V13.75C22 12.2332 20.7656 11 19.25 11ZM6.11111 7.33333C6.11111 4.63711 8.30378 2.44444 11 2.44444C13.6962 2.44444 15.8889 4.63711 15.8889 7.33333V11H6.11111V7.33333ZM12.2222 20.438V23.2222C12.2222 23.8969 11.6759 24.4444 11 24.4444C10.3241 24.4444 9.77778 23.8969 9.77778 23.2222V20.438C9.05056 20.0139 8.55556 19.2341 8.55556 18.3333C8.55556 16.9852 9.65189 15.8889 11 15.8889C12.3481 15.8889 13.4444 16.9852 13.4444 18.3333C13.4444 19.2341 12.9494 20.0139 12.2222 20.438Z" fill="#D32907"/>
</svg>