<svg width="17" height="17" viewBox="0 0 17 17" fill="none" xmlns="http://www.w3.org/2000/svg">
<path d="M10.625 9.20829C10.2333 9.20829 9.91671 9.52567 9.91671 9.91658V12.75C9.91671 13.1403 9.59933 13.4583 9.20829 13.4583H7.08329V2.83329C7.08329 2.22837 6.69795 1.68791 6.11858 1.48675L5.90886 1.41658H9.20829C9.59933 1.41658 9.91671 1.7346 9.91671 2.125V4.25C9.91671 4.64091 10.2333 4.95829 10.625 4.95829C11.0167 4.95829 11.3333 4.64091 11.3333 4.25V2.125C11.3333 0.953423 10.3799 0 9.20829 0H1.59375C1.56677 0 1.5442 0.0120621 1.51801 0.015564C1.48389 0.0127106 1.45134 0 1.41671 0C0.635399 0 0 0.635269 0 1.41658V14.1666C0 14.7715 0.385338 15.312 0.964706 15.5131L5.22755 16.9341C5.37203 16.9787 5.51574 17 5.66671 17C6.44802 17 7.08329 16.3646 7.08329 15.5833V14.875H9.20829C10.3799 14.875 11.3333 13.9216 11.3333 12.75V9.91658C11.3333 9.52567 11.0167 9.20829 10.625 9.20829Z" fill="#fff"/>
<path d="M16.7922 6.58253L13.9588 3.74924C13.7563 3.54665 13.4517 3.48569 13.1868 3.59541C12.9226 3.70527 12.7497 3.96376 12.7497 4.25001V6.37501H9.91643C9.52538 6.37501 9.20801 6.69225 9.20801 7.0833C9.20801 7.47434 9.52538 7.79159 9.91643 7.79159H12.7497V9.91659C12.7497 10.2028 12.9226 10.4613 13.1868 10.5712C13.4517 10.6809 13.7563 10.62 13.9588 10.4175L16.7922 7.58407C17.0691 7.30716 17.0691 6.85944 16.7922 6.58253Z" fill="#fff"/>
</svg>
