<svg width="14" height="14" viewBox="0 0 14 14" fill="none" xmlns="http://www.w3.org/2000/svg">
<path d="M14 13.6889C14 13.86 13.86 14 13.6889 14H13.0667H11.2H9.64444H7.77778H6.22222H4.35556H2.8H0.933333H0.311111C0.14 14 0 13.86 0 13.6889C0 13.5178 0.14 13.3778 0.311111 13.3778H0.622222V8.71111C0.622222 8.54 0.762222 8.4 0.933333 8.4H2.8C2.97111 8.4 3.11111 8.54 3.11111 8.71111V13.3778H4.04444V5.91111C4.04444 5.74 4.18444 5.6 4.35556 5.6H6.22222C6.39333 5.6 6.53333 5.74 6.53333 5.91111V13.3778H7.46667V3.11111C7.46667 2.94 7.60667 2.8 7.77778 2.8H9.64444C9.81556 2.8 9.95556 2.94 9.95556 3.11111V13.3778H10.8889V0.311111C10.8889 0.14 11.0289 0 11.2 0H13.0667C13.2378 0 13.3778 0.14 13.3778 0.311111V13.3778H13.6889C13.86 13.3778 14 13.5178 14 13.6889Z" fill="black"/>
</svg>
