<svg width="25" height="25" viewBox="0 0 25 25" fill="none" xmlns="http://www.w3.org/2000/svg">
<path d="M18.6335 16.2913L17.1733 17.775C17.1313 17.8241 17.077 17.8613 17.0161 17.8827L13.3428 19.1005H15.603C15.8611 19.1005 16.0703 19.3097 16.0703 19.5678C16.0703 19.8258 15.8611 20.035 15.603 20.035H3.16096C2.9029 20.035 2.69367 19.8258 2.69367 19.5678C2.69367 19.3097 2.9029 19.1005 3.16096 19.1005H12.8796C12.8399 19.1005 12.8029 19.0573 12.7701 19.0245C12.645 18.9015 12.6012 18.7176 12.6573 18.5515L12.9389 17.6986H3.16096C2.9029 17.6986 2.69367 17.4894 2.69367 17.2313C2.69367 16.9732 2.9029 16.764 3.16096 16.764H13.2513L13.9102 14.784C13.9266 14.7194 13.959 14.6601 14.0047 14.6117L18.6335 9.96755V4.73131H14.4227C14.1646 4.73131 13.9606 4.54855 13.9606 4.29026V0H0.117188V25H18.6335V16.2913ZM3.16096 14.4276H9.76188C10.0199 14.4276 10.2292 14.6368 10.2292 14.8949C10.2292 15.1529 10.0199 15.3621 9.76188 15.3621H3.16096C2.9029 15.3621 2.69367 15.1529 2.69367 14.8949C2.69367 14.6368 2.9029 14.4276 3.16096 14.4276ZM15.603 22.3715H3.16096C2.9029 22.3715 2.69367 22.1623 2.69367 21.9042C2.69367 21.6461 2.9029 21.4369 3.16096 21.4369H15.603C15.8611 21.4369 16.0703 21.6461 16.0703 21.9042C16.0703 22.1623 15.8611 22.3715 15.603 22.3715Z" fill="white"/>
<path d="M14.8945 0.689758V3.79673H18.0227L14.8945 0.689758Z" fill="white"/>
<path d="M13.8408 17.9697L16.0036 17.2466L14.5639 15.8069L13.8408 17.9697Z" fill="white"/>
<path d="M16.8676 16.7889L22.784 10.8595L20.9509 9.02637L15.0215 14.9428L16.8676 16.7889Z" fill="white"/>
<path d="M24.8596 8.77903L23.0311 6.95071L21.6123 8.36627L23.444 10.1978L24.8596 8.77903Z" fill="white"/>
</svg>
