<svg width="35" height="35" viewBox="0 0 35 35" fill="none" xmlns="http://www.w3.org/2000/svg">
<path d="M26.086 22.8078L24.0416 24.885C23.9828 24.9537 23.9068 25.0058 23.8215 25.0358L18.6789 26.7407H21.8432C22.2045 26.7407 22.4974 27.0336 22.4974 27.3949C22.4974 27.7561 22.2045 28.0491 21.8432 28.0491H4.42437C4.06308 28.0491 3.77016 27.7561 3.77016 27.3949C3.77016 27.0336 4.06308 26.7407 4.42437 26.7407H18.0304C17.9749 26.7407 17.9231 26.6803 17.8771 26.6343C17.7021 26.4621 17.6407 26.2046 17.7193 25.9721L18.1135 24.778H4.42437C4.06308 24.778 3.77016 24.4851 3.77016 24.1238C3.77016 23.7626 4.06308 23.4696 4.42437 23.4696H18.5508L19.4733 20.6976C19.4963 20.6072 19.5417 20.5241 19.6056 20.4564L26.086 13.9546V6.62383H20.1908C19.8295 6.62383 19.5439 6.36796 19.5439 6.00636V0H0.163086V35H26.086V22.8078ZM4.42437 20.1986H13.6657C14.0269 20.1986 14.3199 20.4915 14.3199 20.8528C14.3199 21.2141 14.0269 21.507 13.6657 21.507H4.42437C4.06308 21.507 3.77016 21.2141 3.77016 20.8528C3.77016 20.4915 4.06308 20.1986 4.42437 20.1986ZM21.8432 31.3201H4.42437C4.06308 31.3201 3.77016 31.0272 3.77016 30.6659C3.77016 30.3046 4.06308 30.0117 4.42437 30.0117H21.8432C22.2045 30.0117 22.4974 30.3046 22.4974 30.6659C22.4974 31.0272 22.2045 31.3201 21.8432 31.3201Z" fill="#D32907"/>
<path d="M20.8525 0.965698V5.31546H25.232L20.8525 0.965698Z" fill="#D32907"/>
<path d="M19.376 25.1576L22.4039 24.1453L20.3883 22.1296L19.376 25.1576Z" fill="#D32907"/>
<path d="M23.6139 23.5045L31.8968 15.2033L29.3305 12.637L21.0293 20.9199L23.6139 23.5045Z" fill="#D32907"/>
<path d="M34.8031 12.2906L32.2431 9.73096L30.2568 11.7127L32.8213 14.2769L34.8031 12.2906Z" fill="#D32907"/>
</svg>
