<svg width="14" height="14" viewBox="0 0 14 14" fill="none" xmlns="http://www.w3.org/2000/svg">
<path d="M11.9573 4.94915C11.5063 4.94915 11.0791 5.09622 10.7259 5.36384L8.62643 3.26782C8.88629 2.92568 9.04266 2.50083 9.04266 2.03928C9.04266 0.91491 8.12651 0 7 0C5.87349 0 4.95734 0.91491 4.95734 2.03928C4.95734 2.50083 5.11343 2.92568 5.37328 3.26782L3.27323 5.36468C2.93052 5.10526 2.50497 4.94915 2.04266 4.94915C0.916424 4.94915 0 5.86406 0 6.98843C0 8.1128 0.916424 9.02771 2.04266 9.02771C2.50497 9.02771 2.93052 8.8716 3.27323 8.61217L5.37357 10.709C5.11371 11.0512 4.95734 11.476 4.95734 11.9379C4.95734 13.0622 5.87377 13.9771 7 13.9771C8.12623 13.9771 9.04266 13.0625 9.04266 11.9379C9.04266 11.4763 8.88629 11.0512 8.62643 10.709L10.7262 8.61274C11.0791 8.88064 11.5069 9.02771 11.9576 9.02771C13.0836 9.02771 14 8.11308 14 6.98843C14 5.86378 13.0839 4.94915 11.9573 4.94915ZM9.92176 6.84728H9.03531C8.96546 5.83555 8.15479 5.02593 7.14138 4.95621V4.0715C7.64724 4.0365 8.10333 3.81942 8.44179 3.48264L10.511 5.54874C10.1601 5.90019 9.95484 6.35694 9.92176 6.84728ZM5.55821 3.48236C5.89667 3.81942 6.35276 4.0365 6.85862 4.0715V4.95592C6.36634 4.98952 5.90798 5.19474 5.55566 5.54648C5.20334 5.89822 4.99778 6.35609 4.96441 6.84728H4.07824C4.04346 6.34226 3.82574 5.88664 3.48841 5.54874L5.55821 3.48236ZM4.07824 7.12958H4.96441C4.99778 7.62076 5.20334 8.07864 5.55595 8.43038C5.90826 8.78183 6.3669 8.98763 6.8589 9.02094V9.90536C6.35305 9.94008 5.89695 10.1574 5.55849 10.4942L3.48841 8.42784C3.82574 8.08993 4.04318 7.6346 4.07824 7.12958ZM8.44151 10.4945C8.10361 10.1577 7.64724 9.94036 7.14166 9.90536V9.02065C8.15479 8.95093 8.96546 8.14131 9.03531 7.12958H9.92176C9.95484 7.61964 10.1601 8.07667 10.5113 8.42812L8.44151 10.4945Z" fill="black"/>
</svg>
