<svg width="17" height="17" viewBox="0 0 17 17" fill="none" xmlns="http://www.w3.org/2000/svg">
<path d="M10.3713 6.62632C10.1699 6.42375 9.9466 6.24419 9.70556 6.09092C9.06711 5.68209 8.32489 5.46485 7.56676 5.46485C6.51451 5.46289 5.50502 5.88098 4.76227 6.62632L1.15891 10.2325C0.417422 10.9754 0.000664764 11.982 8.21106e-07 13.0316C-0.00139346 15.222 1.77306 16.9987 3.96341 17.0001C5.01403 17.0038 6.0226 16.5877 6.76508 15.8443L9.73955 12.8699C9.7936 12.8163 9.82377 12.7432 9.82334 12.6671C9.82244 12.5106 9.69487 12.3846 9.53841 12.3854H9.42511C8.80366 12.3876 8.18775 12.2683 7.61211 12.0342C7.50605 11.9905 7.38414 12.0152 7.30334 12.0965L5.16455 14.2381C4.50041 14.9023 3.42362 14.9023 2.75948 14.2381C2.09534 13.574 2.09534 12.4972 2.75948 11.833L6.37701 8.21836C7.04062 7.55558 8.11564 7.55558 8.77926 8.21836C9.22649 8.63927 9.92409 8.63927 10.3713 8.21836C10.5637 8.02579 10.6804 7.77037 10.6999 7.49881C10.7206 7.17431 10.6009 6.85651 10.3713 6.62632Z" fill="#E14C22"/>
<path d="M15.8352 1.16166C14.2863 -0.38722 11.7751 -0.38722 10.2262 1.16166L7.25458 4.13045C7.17298 4.21245 7.14945 4.33577 7.19509 4.44207C7.24021 4.54867 7.34564 4.61709 7.46137 4.61486H7.56617C8.18689 4.61373 8.8018 4.73401 9.37635 4.96898C9.48241 5.01263 9.60431 4.988 9.68511 4.90666L11.8182 2.77637C12.4824 2.11223 13.5592 2.11223 14.2233 2.77637C14.8874 3.44051 14.8874 4.5173 14.2233 5.18144L11.5661 7.83578L11.5434 7.86128L10.6143 8.78479C9.95066 9.44757 8.87563 9.44757 8.21202 8.78479C7.76479 8.36388 7.06718 8.36388 6.61999 8.78479C6.42635 8.97883 6.30959 9.23647 6.29137 9.50998C6.27065 9.83449 6.39033 10.1523 6.61999 10.3825C6.94787 10.7118 7.3315 10.9803 7.7531 11.1757C7.81259 11.204 7.87208 11.2267 7.93157 11.2522C7.99106 11.2777 8.05337 11.2975 8.11286 11.3202C8.17235 11.3428 8.23466 11.3626 8.29415 11.3796L8.4613 11.425C8.5746 11.4533 8.68794 11.476 8.80406 11.4958C8.94395 11.5166 9.08484 11.5298 9.22616 11.5354H9.42445H9.44145L9.61142 11.5156C9.67373 11.5128 9.73889 11.4986 9.81256 11.4986H9.90886L10.1043 11.4703L10.195 11.4533L10.3593 11.4193H10.3905C11.0863 11.2445 11.7217 10.8842 12.2289 10.3768L15.8351 6.77065C17.3841 5.22177 17.3841 2.71054 15.8352 1.16166Z" fill="#E14C22"/>
</svg>
