<svg width="18" height="20" viewBox="0 0 18 20" fill="none" xmlns="http://www.w3.org/2000/svg">
<path d="M17.5206 3.24789L15.0661 0.518331C14.4477 -0.169407 13.3718 -0.170728 12.751 0.519652L1.75512 12.8578C1.70638 12.9124 1.67121 12.9796 1.65203 13.0533L0.0157015 19.4223C-0.0250667 19.5809 0.0148962 19.752 0.119981 19.8688C0.197874 19.9554 0.302153 20.0021 0.409232 20.0021C0.446779 20.0021 0.484747 19.9963 0.521488 19.9848L6.24872 18.165C6.31503 18.1437 6.37535 18.1046 6.42448 18.0504L17.5206 5.8211C17.8298 5.47725 18 5.02052 18 4.53451C18 4.04851 17.8298 3.59174 17.5206 3.24789ZM10.9683 3.82611L12.4741 5.49928L4.61212 14.2349L4.04788 12.9806C3.97835 12.8266 3.83695 12.7294 3.68193 12.7294H3.0268L10.9683 3.82611ZM1.00488 18.8857L1.53774 16.8131L2.87017 18.2936L1.00488 18.8857ZM5.72736 17.3867L3.77006 18.0079L1.79481 15.8132L2.35395 13.6384H3.429L4.1341 15.2054C4.17364 15.2933 4.23796 15.3647 4.31708 15.4087L5.72732 16.1921V17.3867H5.72736ZM6.54556 16.6391V15.9112C6.54556 15.7389 6.45808 15.5818 6.31944 15.5046L5.19058 14.8776L13.0526 6.14206L14.5585 7.81523L6.54556 16.6391ZM16.9433 5.18901L15.1395 7.17535L11.5441 3.18047L13.3307 1.1776C13.6399 0.834011 14.1784 0.834011 14.4876 1.1776L16.9422 3.90486C17.0967 4.07663 17.1819 4.30479 17.1819 4.5476C17.1819 4.79041 17.0967 5.01856 16.9433 5.18901Z" fill="#6B6B6B"/>
</svg>
