<svg width="25" height="25" viewBox="0 0 25 25" fill="none" xmlns="http://www.w3.org/2000/svg">
<g clip-path="url(#clip0)">
<path d="M13.0208 0C12.7333 0 12.5 0.23335 12.5 0.52085V11.9792C12.5 12.2667 12.7333 12.5 13.0208 12.5H24.4792C24.7667 12.5 25 12.2667 25 11.9792C25 5.37397 19.626 0 13.0208 0Z" fill="white"/>
<path d="M18.6406 22.076L11.4584 12.8427V1.56251C11.4584 1.27501 11.225 1.04166 10.9375 1.04166C4.90625 1.04166 0 6.41563 0 13.0208C0 19.626 5.37397 25 11.9791 25C14.9344 25 16.5333 24.4646 18.5594 22.7979C18.7771 22.6188 18.8135 22.299 18.6406 22.076Z" fill="white"/>
<path d="M24.4793 13.5417H14.0626C13.8626 13.5417 13.6793 13.6573 13.5928 13.8385C13.5064 14.0198 13.5314 14.2344 13.6585 14.3896L20.4293 22.7718C20.5199 22.8843 20.6533 22.9541 20.7981 22.9646C20.8106 22.9656 20.822 22.9656 20.8345 22.9656C20.9658 22.9656 21.0929 22.9156 21.1898 22.826C23.6105 20.5667 25.0001 17.3729 25.0001 14.0625C25.0001 13.775 24.7668 13.5417 24.4793 13.5417Z" fill="white"/>
</g>
<defs>
<clipPath id="clip0">
<rect width="25" height="25" fill="white"/>
</clipPath>
</defs>
</svg>
