<svg width="35" height="35" viewBox="0 0 35 35" fill="none" xmlns="http://www.w3.org/2000/svg">
<path d="M28.1974 17.1708C28.1391 17.0694 28.055 16.9854 27.9537 16.9271L20.3762 12.5349L20.3381 12.5158L12.7988 8.18093C12.4821 7.99952 12.0784 8.10913 11.897 8.42575C11.8398 8.52562 11.8097 8.63867 11.8096 8.75383V26.25C11.8117 26.6141 12.1062 26.9086 12.4703 26.9107C12.6072 26.9106 12.7406 26.8679 12.8522 26.7885L20.3762 22.4651L27.9537 18.0729C28.2702 17.8911 28.3792 17.4872 28.1974 17.1708Z" fill="#D32907"/>
<path d="M17.5 0C7.83499 0 0 7.83499 0 17.5C0 27.165 7.83499 35 17.5 35C27.165 35 35 27.165 35 17.5C35 7.83499 27.165 0 17.5 0ZM17.5 31.7498C9.63006 31.7498 3.25022 25.3699 3.25022 17.5C3.25022 9.63006 9.63006 3.25022 17.5 3.25022C25.3699 3.25022 31.7498 9.63006 31.7498 17.5C31.7498 25.3699 25.3699 31.7498 17.5 31.7498Z" fill="#D32907"/>
</svg>
