<svg width="14" height="15" viewBox="0 0 14 15" fill="none" xmlns="http://www.w3.org/2000/svg">
<path d="M5.55047 3.86767C5.5722 4.03173 5.65334 4.18213 5.77852 4.29038C5.9037 4.39863 6.06424 4.45722 6.22972 4.45505H6.72824C6.76818 4.45505 6.80649 4.47091 6.83473 4.49916C6.86298 4.5274 6.87885 4.56571 6.87885 4.60566V6.09368C6.87885 6.13363 6.89472 6.17194 6.92296 6.20018C6.9512 6.22843 6.98951 6.24429 7.02946 6.24429H8.31868C8.35862 6.24429 8.39693 6.26016 8.42518 6.28841C8.45342 6.31665 8.46929 6.35496 8.46929 6.3949V6.67203C8.46494 6.83613 8.50989 6.99777 8.59835 7.13607C8.68681 7.27436 8.8147 7.38296 8.96551 7.44782C9.11631 7.51268 9.28311 7.53083 9.44434 7.49993C9.60556 7.46903 9.75382 7.39049 9.86996 7.27447C10.0235 7.11996 10.1096 6.91093 10.1094 6.69311V6.39189C10.1094 6.35195 10.1253 6.31364 10.1535 6.28539C10.1818 6.25715 10.2201 6.24128 10.26 6.24128H11.6381C11.6781 6.24128 11.7164 6.22541 11.7446 6.19717C11.7729 6.16892 11.7887 6.13062 11.7887 6.09067V4.76681C11.7887 4.72687 11.7729 4.68856 11.7446 4.66031C11.7164 4.63207 11.6781 4.6162 11.6381 4.6162H11.233C11.0246 4.61826 10.8231 4.54201 10.6683 4.40255C10.5135 4.26309 10.4167 4.07058 10.3971 3.86315C10.3866 3.74965 10.3999 3.63521 10.4362 3.52716C10.4725 3.4191 10.5309 3.31979 10.6077 3.2356C10.6845 3.1514 10.7781 3.08416 10.8824 3.03817C10.9867 2.99218 11.0994 2.96846 11.2134 2.96853H11.6652C11.6857 2.96855 11.7059 2.96442 11.7247 2.95639C11.7434 2.94835 11.7604 2.93658 11.7745 2.92179C11.7886 2.90699 11.7995 2.88949 11.8066 2.87034C11.8137 2.85119 11.8169 2.83079 11.8158 2.81039V1.47899C11.8158 1.43905 11.8 1.40074 11.7717 1.3725C11.7435 1.34425 11.7052 1.32838 11.6652 1.32838H10.2841C10.2442 1.32838 10.2059 1.31252 10.1776 1.28427C10.1494 1.25603 10.1335 1.21772 10.1335 1.17777V0.820828C10.1245 0.609412 10.0341 0.409664 9.8813 0.263272C9.7285 0.11688 9.52507 0.0351562 9.31346 0.0351562C9.10185 0.0351562 8.89841 0.11688 8.74561 0.263272C8.59281 0.409664 8.50245 0.609412 8.49339 0.820828V1.16573C8.49339 1.20567 8.47752 1.24398 8.44927 1.27222C8.42103 1.30047 8.38272 1.31634 8.34278 1.31634H7.04151C7.00156 1.31634 6.96325 1.3322 6.93501 1.36045C6.90676 1.38869 6.8909 1.427 6.8909 1.46695V2.95648C6.8909 2.99642 6.87503 3.03473 6.84678 3.06297C6.81854 3.09122 6.78023 3.10709 6.74029 3.10709H6.21014C6.11464 3.10698 6.02023 3.12742 5.93332 3.16702C5.84641 3.20662 5.76905 3.26446 5.70647 3.33661C5.6439 3.40876 5.59758 3.49352 5.57066 3.58516C5.54374 3.67679 5.53686 3.77314 5.55047 3.86767Z" fill="black"/>
<path d="M7.67409 9.24594C7.67409 9.0285 7.58782 8.81995 7.43421 8.66606C7.2806 8.51217 7.07221 8.42551 6.85478 8.42512H6.5641C6.52415 8.42512 6.48585 8.40925 6.4576 8.381C6.42936 8.35276 6.41349 8.31445 6.41349 8.27451V6.93558C6.41349 6.89564 6.39762 6.85733 6.36938 6.82909C6.34113 6.80084 6.30282 6.78497 6.26288 6.78497H5.058C5.01805 6.78497 4.97975 6.80084 4.9515 6.82909C4.92326 6.85733 4.90739 6.89564 4.90739 6.93558V6.95667C4.90911 7.20556 4.81712 7.44599 4.64969 7.63016C4.48226 7.81434 4.25166 7.92876 4.00373 7.95069C3.86848 7.96304 3.73214 7.94707 3.6034 7.90379C3.47467 7.86051 3.35637 7.79088 3.25604 7.69934C3.15571 7.6078 3.07556 7.49636 3.0207 7.37212C2.96584 7.24788 2.93748 7.11357 2.93741 6.97775V6.93558C2.93741 6.89564 2.92154 6.85733 2.8933 6.82909C2.86505 6.80084 2.82675 6.78497 2.7868 6.78497H1.62259C1.58264 6.78497 1.54433 6.80084 1.51609 6.82909C1.48784 6.85733 1.47198 6.89564 1.47198 6.93558V8.26848C1.472 8.28891 1.46787 8.30913 1.45984 8.32791C1.4518 8.34669 1.44003 8.36364 1.42523 8.37773C1.41044 8.39182 1.39294 8.40275 1.37379 8.40986C1.35464 8.41697 1.33424 8.42011 1.31384 8.41909H0.962914C0.745218 8.41909 0.536438 8.50557 0.382504 8.65951C0.228569 8.81344 0.14209 9.02222 0.14209 9.23992C0.14209 9.45761 0.228569 9.66639 0.382504 9.82033C0.536438 9.97426 0.745218 10.0607 0.962914 10.0607H1.30781C1.32821 10.0597 1.34861 10.0629 1.36776 10.07C1.38691 10.0771 1.40442 10.088 1.41921 10.1021C1.434 10.1162 1.44578 10.1331 1.45381 10.1519C1.46185 10.1707 1.46598 10.1909 1.46595 10.2114V11.5442C1.46595 11.5842 1.48182 11.6225 1.51006 11.6507C1.53831 11.679 1.57662 11.6949 1.61656 11.6949H2.94946C2.9894 11.6949 3.02771 11.7107 3.05596 11.739C3.0842 11.7672 3.10007 11.8055 3.10007 11.8455V12.4479C3.10007 12.5557 3.1213 12.6624 3.16255 12.762C3.2038 12.8616 3.26426 12.9521 3.34048 13.0283C3.4167 13.1045 3.50719 13.165 3.60678 13.2063C3.70637 13.2475 3.8131 13.2687 3.92089 13.2687C4.13631 13.2728 4.3447 13.192 4.50109 13.0438C4.65747 12.8956 4.74931 12.6919 4.75678 12.4765V11.8741C4.75678 11.8341 4.77265 11.7958 4.80089 11.7676C4.82914 11.7393 4.86744 11.7235 4.90739 11.7235H6.24179C6.28174 11.7235 6.32005 11.7076 6.34829 11.6794C6.37654 11.6511 6.3924 11.6128 6.3924 11.5729V10.2234C6.3924 10.1835 6.40827 10.1451 6.43652 10.1169C6.46476 10.0887 6.50307 10.0728 6.54301 10.0728H6.84423C6.95329 10.074 7.0615 10.0535 7.16253 10.0124C7.26356 9.97127 7.35539 9.91046 7.43265 9.83348C7.50991 9.7565 7.57105 9.66489 7.61251 9.56401C7.65397 9.46313 7.6749 9.355 7.67409 9.24594Z" fill="black"/>
<path d="M13.9515 10.8213C13.9668 10.8072 13.979 10.7901 13.9874 10.7711C13.9957 10.752 14 10.7314 14 10.7106C14 10.6898 13.9957 10.6693 13.9874 10.6502C13.979 10.6312 13.9668 10.614 13.9515 10.5999L12.9921 9.67369C12.9768 9.65958 12.9646 9.64247 12.9563 9.62341C12.948 9.60436 12.9437 9.58379 12.9437 9.56299C12.9437 9.54219 12.948 9.52161 12.9563 9.50256C12.9646 9.48351 12.9768 9.46639 12.9921 9.45229L13.1909 9.23692C13.3319 9.07853 13.406 8.87177 13.3979 8.65992C13.3898 8.44808 13.3001 8.24758 13.1475 8.10042C12.9949 7.95327 12.7912 7.87086 12.5792 7.87047C12.3672 7.87007 12.1633 7.95172 12.0102 8.09831L11.8053 8.31217C11.7755 8.34124 11.7355 8.35751 11.6939 8.35751C11.6522 8.35751 11.6122 8.34124 11.5824 8.31217L10.6306 7.39797C10.6009 7.36854 10.5609 7.35202 10.5191 7.35202C10.4774 7.35202 10.4373 7.36854 10.4077 7.39797L9.57329 8.26247C9.54432 8.29203 9.52809 8.33177 9.52809 8.37317C9.52809 8.41456 9.54432 8.45431 9.57329 8.48387L9.60341 8.51399C9.69921 8.6021 9.77642 8.70849 9.83049 8.82689C9.88456 8.94528 9.9144 9.0733 9.91825 9.20341C9.92211 9.33351 9.8999 9.46307 9.85293 9.58446C9.80597 9.70585 9.73519 9.81662 9.64478 9.91025C9.55436 10.0039 9.44613 10.0785 9.32646 10.1297C9.20678 10.1808 9.07807 10.2076 8.94792 10.2082C8.81776 10.2089 8.68878 10.1836 8.56856 10.1337C8.44835 10.0838 8.33933 10.0103 8.24792 9.91767L8.2178 9.88906C8.18817 9.85963 8.14811 9.84311 8.10635 9.84311C8.06459 9.84311 8.02453 9.85963 7.9949 9.88906L7.19365 10.7114C7.16422 10.741 7.14771 10.7811 7.14771 10.8228C7.14771 10.8646 7.16422 10.9047 7.19365 10.9343L8.15304 11.859C8.18247 11.8887 8.19899 11.9287 8.19899 11.9705C8.19899 12.0122 8.18247 12.0523 8.15304 12.0819L7.91959 12.3365C7.83972 12.4129 7.77612 12.5047 7.7326 12.6063C7.68907 12.708 7.66654 12.8174 7.66633 12.9279C7.66612 13.0385 7.68826 13.1479 7.7314 13.2497C7.77454 13.3515 7.8378 13.4436 7.91739 13.5203C7.99698 13.5971 8.09125 13.6569 8.19454 13.6964C8.29784 13.7358 8.40804 13.7539 8.51852 13.7497C8.629 13.7455 8.73749 13.719 8.83747 13.6718C8.93746 13.6246 9.02688 13.5577 9.10038 13.4751L9.33985 13.2266C9.35395 13.2113 9.37107 13.1991 9.39012 13.1907C9.40917 13.1824 9.42974 13.1781 9.45054 13.1781C9.47134 13.1781 9.49192 13.1824 9.51097 13.1907C9.53002 13.1991 9.54714 13.2113 9.56124 13.2266L10.5206 14.1528C10.5347 14.1681 10.5518 14.1803 10.5709 14.1887C10.59 14.197 10.6105 14.2013 10.6313 14.2013C10.6521 14.2013 10.6727 14.197 10.6918 14.1887C10.7108 14.1803 10.7279 14.1681 10.742 14.1528L11.6457 13.2115C11.6598 13.1962 11.6769 13.184 11.696 13.1757C11.715 13.1673 11.7356 13.163 11.7564 13.163C11.7772 13.163 11.7978 13.1673 11.8168 13.1757C11.8359 13.184 11.853 13.1962 11.8671 13.2115L12.1035 13.4404C12.261 13.587 12.4697 13.6659 12.6847 13.6602C12.8997 13.6545 13.1039 13.5645 13.2533 13.4098C13.4027 13.2551 13.4854 13.0479 13.4836 12.8328C13.4818 12.6177 13.3956 12.4119 13.2437 12.2597L13.0072 12.0307C12.9919 12.0166 12.9797 11.9995 12.9714 11.9805C12.963 11.9614 12.9587 11.9408 12.9587 11.92C12.9587 11.8992 12.963 11.8787 12.9714 11.8596C12.9797 11.8406 12.9919 11.8234 13.0072 11.8093L13.9515 10.8213Z" fill="black"/>
<path d="M0.855977 4.61017H1.29275C1.33269 4.61017 1.371 4.62604 1.39924 4.65428C1.42749 4.68253 1.44336 4.72084 1.44336 4.76078V6.09368C1.44336 6.13362 1.45922 6.17193 1.48747 6.20018C1.51571 6.22842 1.55402 6.24429 1.59397 6.24429H3.08199C3.12194 6.24429 3.16024 6.26016 3.18849 6.2884C3.21673 6.31665 3.2326 6.35495 3.2326 6.3949V6.67955C3.23083 6.84302 3.28901 7.00147 3.39612 7.12496C3.50324 7.24845 3.65188 7.32842 3.81396 7.34977C3.90592 7.36038 3.99909 7.35143 4.08735 7.32351C4.17561 7.29558 4.25697 7.24931 4.32609 7.18773C4.3952 7.12615 4.45052 7.05065 4.48841 6.96618C4.5263 6.88172 4.54589 6.7902 4.54592 6.69763V6.39641C4.54592 6.35646 4.56179 6.31815 4.59003 6.28991C4.61828 6.26166 4.65659 6.2458 4.69653 6.2458H6.20263C6.24257 6.2458 6.28088 6.22993 6.30913 6.20168C6.33737 6.17344 6.35324 6.13513 6.35324 6.09519V4.92344C6.35324 4.8835 6.33737 4.84519 6.30913 4.81694C6.28088 4.7887 6.24257 4.77283 6.20263 4.77283H5.94358C5.8079 4.77256 5.67375 4.74403 5.54969 4.68908C5.42563 4.63413 5.31437 4.55395 5.22299 4.45364C5.13161 4.35334 5.06212 4.23511 5.01893 4.10648C4.97574 3.97785 4.95981 3.84164 4.97215 3.70651C4.99649 3.46126 5.11135 3.23387 5.29431 3.06874C5.47727 2.9036 5.71519 2.81256 5.96165 2.81339H6.21468C6.25462 2.81339 6.29293 2.79753 6.32118 2.76928C6.34942 2.74104 6.36529 2.70273 6.36529 2.66278V1.47899C6.36529 1.43905 6.34942 1.40074 6.32118 1.37249C6.29293 1.34425 6.25462 1.32838 6.21468 1.32838H4.8863C4.84635 1.32838 4.80805 1.31251 4.7798 1.28427C4.75156 1.25602 4.73569 1.21771 4.73569 1.17777V0.820824C4.73569 0.603128 4.64921 0.394348 4.49528 0.240414C4.34134 0.0864794 4.13256 0 3.91487 0C3.69717 0 3.48839 0.0864794 3.33445 0.240414C3.18052 0.394348 3.09404 0.603128 3.09404 0.820824V1.16572C3.09404 1.20567 3.07817 1.24397 3.04993 1.27222C3.02168 1.30046 2.98337 1.31633 2.94343 1.31633H1.59397C1.55402 1.31633 1.51571 1.3322 1.48747 1.36044C1.45922 1.38869 1.44336 1.427 1.44336 1.46694V2.79984C1.44438 2.82024 1.44124 2.84064 1.43413 2.85979C1.42702 2.87894 1.41608 2.89645 1.402 2.91124C1.38791 2.92603 1.37096 2.9378 1.35218 2.94584C1.33339 2.95387 1.31317 2.95801 1.29275 2.95798H0.855977C0.745327 2.95324 0.634861 2.97094 0.531231 3.01001C0.427601 3.04908 0.332951 3.10872 0.252978 3.18534C0.173005 3.26196 0.109365 3.35397 0.065889 3.45583C0.0224128 3.55769 0 3.6673 0 3.77805C0 3.8888 0.0224128 3.99841 0.065889 4.10027C0.109365 4.20213 0.173005 4.29414 0.252978 4.37076C0.332951 4.44738 0.427601 4.50702 0.531231 4.54609C0.634861 4.58517 0.745327 4.60287 0.855977 4.59812V4.61017Z" fill="black"/>
</svg>
