<svg width="39" height="35" viewBox="0 0 39 35" fill="none" xmlns="http://www.w3.org/2000/svg">
<path d="M9.94214 27.841C7.39528 27.841 5.12982 26.2102 4.30719 23.7825L4.25155 23.5996C4.05754 22.9567 3.97627 22.416 3.97627 21.8751V11.0281L0.116798 23.9113C-0.379581 25.8062 0.751547 27.7707 2.64938 28.2942L27.2496 34.8823C27.5566 34.9618 27.8637 35 28.166 35C29.7504 35 31.1982 33.9484 31.604 32.3987L33.0372 27.841H9.94214Z" fill="#D32907"/>
<path d="M14.3176 11.1365C16.0724 11.1365 17.4992 9.70941 17.4992 7.9546C17.4992 6.1998 16.0724 4.77271 14.3176 4.77271C12.5628 4.77271 11.1357 6.1998 11.1357 7.9546C11.1357 9.70941 12.5628 11.1365 14.3176 11.1365Z" fill="#D32907"/>
<path d="M34.203 0H10.3395C8.14741 0 6.3623 1.7851 6.3623 3.97744V21.4772C6.3623 23.6695 8.14741 25.4546 10.3395 25.4546H34.203C36.3953 25.4546 38.1804 23.6695 38.1804 21.4772V3.97744C38.1804 1.7851 36.3953 0 34.203 0ZM10.3395 3.1819H34.203C34.6422 3.1819 34.9985 3.53816 34.9985 3.97744V15.2712L29.973 9.40703C29.4399 8.7819 28.6682 8.44777 27.8395 8.42884C27.0154 8.4335 26.2422 8.79938 25.7141 9.43267L19.8053 16.5247L17.8804 14.6045C16.7924 13.5164 15.0216 13.5164 13.935 14.6045L9.5442 18.9938V3.97744C9.5442 3.53816 9.90047 3.1819 10.3395 3.1819Z" fill="#D32907"/>
</svg>
