<svg width="31" height="29" viewBox="0 0 31 29" fill="none" xmlns="http://www.w3.org/2000/svg">
<path d="M0 21.3934L4.47935 18.2595L9.49279 25.4253L5.01344 28.5593L0 21.3934Z" fill="white"/>
<path d="M30.1834 17.9484C30.2176 17.7592 30.1987 17.5643 30.1287 17.3852C30.03 17.1126 29.8271 16.8903 29.5645 16.7673C29.302 16.6442 29.0014 16.6304 28.7287 16.7289L23.2818 18.7141C23.145 19.1646 22.8671 19.5593 22.489 19.8399C22.1109 20.1205 21.6527 20.2722 21.1818 20.2727C21.0514 20.2735 20.9213 20.2606 20.7936 20.2344L14.8873 19.1899L15.0732 18.118L20.985 19.1625C21.2528 19.2112 21.5292 19.1588 21.7606 19.0153C21.992 18.8718 22.1619 18.6475 22.2373 18.3859C22.2833 18.2373 22.2926 18.0797 22.2646 17.9266C22.2417 17.758 22.1799 17.597 22.0842 17.4563C21.9154 17.2181 21.6603 17.0552 21.3732 17.0024L15.8826 16.0344C14.2679 15.7565 12.6106 15.8595 11.0428 16.3352L10.9443 16.3625C9.90675 16.6786 8.9264 17.1586 8.04043 17.7844L6.32324 18.982L9.77402 23.9148C11.0659 23.0275 12.6557 22.6856 14.1982 22.9633L15.1771 23.1273C16.2181 23.3129 17.2896 23.2204 18.2834 22.8594L29.4779 18.7852C29.6586 18.7199 29.819 18.6083 29.9428 18.4614C30.0667 18.3145 30.1497 18.1376 30.1834 17.9484Z" fill="white"/>
<path d="M28.8711 2.1875V0.546875C28.8711 0.401835 28.8135 0.262735 28.7109 0.160176C28.6084 0.0576171 28.4693 0 28.3242 0H22.3086V2.1875H28.8711Z" fill="white"/>
<path d="M19.1859 3.43984C19.2892 3.33739 19.4288 3.27989 19.5742 3.27989C19.7197 3.27989 19.8592 3.33739 19.9625 3.43984L21.2148 4.69766V0H17.9336V4.69766L19.1859 3.43984Z" fill="white"/>
<path d="M10.2773 0.546875V2.1875H16.8398V0H10.8242C10.6792 0 10.5401 0.0576171 10.4375 0.160176C10.335 0.262735 10.2773 0.401835 10.2773 0.546875Z" fill="white"/>
<path d="M17.1789 6.51875C17.0785 6.47852 16.9925 6.40905 16.932 6.31933C16.8715 6.22962 16.8394 6.12381 16.8398 6.01562V3.28125H10.2773V15.4383C10.3977 15.3945 10.518 15.3453 10.6438 15.3125L10.7422 15.2797C12.4682 14.7571 14.293 14.6484 16.0687 14.9625L21.5648 15.9305C21.9386 15.9956 22.288 16.1599 22.5766 16.4062H26.4211L28.357 15.7008C28.5231 15.643 28.6958 15.6062 28.8711 15.5914V3.28125H22.3086V6.01562C22.309 6.12381 22.2769 6.22962 22.2164 6.31933C22.156 6.40905 22.07 6.47852 21.9695 6.51875C21.9046 6.5494 21.8335 6.56439 21.7617 6.5625C21.6164 6.56292 21.4769 6.50592 21.3734 6.40391L19.5742 4.59922L17.775 6.40391C17.6981 6.47979 17.6004 6.53119 17.4944 6.55163C17.3883 6.57207 17.2785 6.56063 17.1789 6.51875Z" fill="white"/>
</svg>
