<svg width="13" height="14" viewBox="0 0 13 14" fill="none" xmlns="http://www.w3.org/2000/svg">
<path fill-rule="evenodd" clip-rule="evenodd" d="M6.15358 5.57883V14L0.959015 12.5107V8.21998L5.02 8.45255L6.15358 5.57883Z" fill="black"/>
<path fill-rule="evenodd" clip-rule="evenodd" d="M11.4377 5.38655L6.56342 5.08899L7.7715 8.18265L12.6459 7.88509L11.4377 5.38655Z" fill="black"/>
<path fill-rule="evenodd" clip-rule="evenodd" d="M6.49234 5.57883L7.62592 8.45255L11.6866 8.21998V12.5107L6.49234 14V5.57883Z" fill="black"/>
<path fill-rule="evenodd" clip-rule="evenodd" d="M1.20793 5.38655L0 7.88509L4.87456 8.18265L6.08234 5.08899L1.20793 5.38655Z" fill="black"/>
<path d="M9.01898 1.44378C9.01898 2.23905 8.37152 2.88756 7.5755 2.88741C6.77933 2.88771 6.13187 2.2392 6.13187 1.44378C6.13112 0.647462 6.77903 2.55925e-08 7.5755 2.55925e-08C8.37152 -0.00014868 9.01898 0.64776 9.01898 1.44378Z" fill="black"/>
<path d="M5.36751 1.40036C5.36751 1.83101 5.01702 2.1821 4.58607 2.18195C4.15497 2.1821 3.80447 1.83101 3.80447 1.40036C3.80418 0.969261 4.15467 0.618614 4.58607 0.618614C5.01687 0.618614 5.36751 0.96941 5.36751 1.40036Z" fill="black"/>
<path d="M9.38286 4.12672C9.38286 4.55737 9.03236 4.90846 8.60127 4.90832C8.17017 4.90846 7.81967 4.55737 7.81967 4.12672C7.81937 3.69563 8.16987 3.34498 8.60127 3.34498C9.03236 3.34483 9.38286 3.69577 9.38286 4.12672Z" fill="black"/>
<path d="M6.89666 3.57859C6.89666 4.00924 6.54645 4.36019 6.11506 4.36019C5.68411 4.36019 5.33347 4.00924 5.33347 3.57859C5.33302 3.14749 5.68382 2.7967 6.11506 2.7967C6.54645 2.7967 6.89666 3.14749 6.89666 3.57859Z" fill="black"/>
<path d="M4.66489 3.9795C4.66489 4.53164 4.21551 4.98192 3.66262 4.98177C3.10988 4.98192 2.66064 4.53164 2.66064 3.9795C2.6602 3.42661 3.10988 2.97723 3.66262 2.97723C4.21536 2.97723 4.66489 3.42691 4.66489 3.9795Z" fill="black"/>
</svg>
