<svg width="13" height="14" viewBox="0 0 13 14" fill="none" xmlns="http://www.w3.org/2000/svg">
<path fill-rule="evenodd" clip-rule="evenodd" d="M6.15358 5.57883V14L0.959015 12.5107V8.21998L5.02 8.45255L6.15358 5.57883Z" fill="#5E6072"/>
<path fill-rule="evenodd" clip-rule="evenodd" d="M11.4377 5.38655L6.56342 5.08899L7.7715 8.18265L12.6459 7.88509L11.4377 5.38655Z" fill="#5E6072"/>
<path fill-rule="evenodd" clip-rule="evenodd" d="M6.49234 5.57883L7.62592 8.45255L11.6866 8.21998V12.5107L6.49234 14V5.57883Z" fill="#5E6072"/>
<path fill-rule="evenodd" clip-rule="evenodd" d="M1.20793 5.38655L0 7.88509L4.87456 8.18265L6.08234 5.08899L1.20793 5.38655Z" fill="#5E6072"/>
<path d="M9.01898 1.44378C9.01898 2.23905 8.37152 2.88756 7.5755 2.88741C6.77933 2.88771 6.13187 2.2392 6.13187 1.44378C6.13112 0.647462 6.77903 2.55925e-08 7.5755 2.55925e-08C8.37152 -0.00014868 9.01898 0.64776 9.01898 1.44378Z" fill="#5E6072"/>
<path d="M5.36751 1.40036C5.36751 1.83102 5.01702 2.18211 4.58607 2.18196C4.15497 2.18211 3.80447 1.83102 3.80447 1.40036C3.80418 0.969269 4.15467 0.618622 4.58607 0.618622C5.01687 0.618622 5.36751 0.969417 5.36751 1.40036Z" fill="#5E6072"/>
<path d="M9.38286 4.12671C9.38286 4.55736 9.03236 4.90846 8.60127 4.90831C8.17017 4.90846 7.81967 4.55736 7.81967 4.12671C7.81937 3.69562 8.16987 3.34497 8.60127 3.34497C9.03236 3.34482 9.38286 3.69577 9.38286 4.12671Z" fill="#5E6072"/>
<path d="M6.89666 3.57858C6.89666 4.00923 6.54645 4.36018 6.11506 4.36018C5.68411 4.36018 5.33347 4.00923 5.33347 3.57858C5.33302 3.14749 5.68382 2.79669 6.11506 2.79669C6.54645 2.79669 6.89666 3.14749 6.89666 3.57858Z" fill="#5E6072"/>
<path d="M4.66489 3.97951C4.66489 4.53165 4.21551 4.98193 3.66262 4.98178C3.10988 4.98193 2.66064 4.53165 2.66064 3.97951C2.6602 3.42662 3.10988 2.97723 3.66262 2.97723C4.21536 2.97723 4.66489 3.42692 4.66489 3.97951Z" fill="#5E6072"/>
</svg>
