<svg width="14" height="13" viewBox="0 0 14 13" fill="none" xmlns="http://www.w3.org/2000/svg">
<path d="M13.4357 4.79138L9.70843 4.04594C9.58419 4.04594 9.45995 3.92169 9.39783 3.85957L7.53421 0.567181C7.34785 0.256578 6.91301 0.256578 6.78877 0.567181L4.92515 3.85957C4.86303 3.98381 4.73879 4.04594 4.61454 4.04594L0.88731 4.79138C0.576707 4.8535 0.390345 5.28835 0.638827 5.53683L3.24789 8.33226C3.43425 8.39438 3.43425 8.51862 3.43425 8.64286L2.99941 12.3701C2.93729 12.6807 3.31001 12.9292 3.62062 12.8049L7.03725 11.1898C7.16149 11.1277 7.28573 11.1277 7.40997 11.1898L10.8266 12.8049C11.1372 12.9292 11.5099 12.6807 11.4478 12.3701L11.013 8.64286C11.013 8.51862 11.013 8.39438 11.1372 8.27014L13.7463 5.47471C13.9326 5.28835 13.7463 4.8535 13.4357 4.79138Z" fill="#F1A40F"/>
</svg>
