<svg width="14" height="13" viewBox="0 0 14 13" fill="none" xmlns="http://www.w3.org/2000/svg">
<path d="M1.81191 10.0956H0.291667C0.130584 10.0956 0 10.2262 0 10.3873V12.1318C0 12.2929 0.130584 12.4235 0.291667 12.4235H1.81191C1.97299 12.4235 2.10358 12.2929 2.10358 12.1318V10.3873C2.10358 10.2262 1.97299 10.0956 1.81191 10.0956Z" fill="black"/>
<path d="M4.78597 8.80298H3.26573C3.10464 8.80298 2.97406 8.93356 2.97406 9.09465V12.1317C2.97406 12.2928 3.10464 12.4234 3.26573 12.4234H4.78597C4.94705 12.4234 5.07764 12.2928 5.07764 12.1317V9.09465C5.07764 8.93356 4.94705 8.80298 4.78597 8.80298Z" fill="black"/>
<path d="M7.76003 6.40271H6.23979C6.0787 6.40271 5.94812 6.53329 5.94812 6.69438V12.1318C5.94812 12.2929 6.0787 12.4235 6.23979 12.4235H7.76003C7.92111 12.4235 8.0517 12.2929 8.0517 12.1318V6.69438C8.0517 6.53329 7.92111 6.40271 7.76003 6.40271Z" fill="black"/>
<path d="M10.7341 4.01547H9.21385C9.05276 4.01547 8.92218 4.14606 8.92218 4.30714V12.1317C8.92218 12.2928 9.05276 12.4234 9.21385 12.4234H10.7341C10.8952 12.4234 11.0258 12.2928 11.0258 12.1317V4.30714C11.0258 4.14606 10.8952 4.01547 10.7341 4.01547Z" fill="black"/>
<path d="M13.7082 0.968781H12.1879C12.0268 0.968781 11.8962 1.09936 11.8962 1.26045V12.1316C11.8962 12.2927 12.0268 12.4233 12.1879 12.4233H13.7082C13.8692 12.4233 13.9998 12.2927 13.9998 12.1316V1.26045C13.9998 1.09936 13.8692 0.968781 13.7082 0.968781Z" fill="black"/>
<path d="M10.257 0.00292682L7.83451 0.413438C7.79523 0.42011 7.75864 0.437761 7.72897 0.464352C7.6993 0.490943 7.67777 0.525387 7.66685 0.563704C7.65593 0.60202 7.65608 0.642644 7.66728 0.680879C7.67848 0.719114 7.70027 0.753399 7.73013 0.779771L8.10673 1.11173C5.7158 3.63447 3.11627 5.95098 0.335799 8.03659C0.308809 8.05682 0.290258 8.08632 0.283719 8.11941C0.277181 8.1525 0.283117 8.18684 0.300385 8.21581C0.317653 8.24478 0.345031 8.26634 0.377246 8.27633C0.40946 8.28632 0.444233 8.28404 0.474866 8.26993C3.77415 6.74287 6.86579 4.80235 9.67535 2.49508L10.0487 2.82408C10.0786 2.85038 10.1153 2.86769 10.1546 2.87401C10.194 2.88032 10.2343 2.87539 10.2709 2.85977C10.3075 2.84415 10.339 2.8185 10.3617 2.78576C10.3843 2.75302 10.3973 2.71453 10.399 2.67475L10.5029 0.219927C10.5042 0.188524 10.4985 0.157223 10.4862 0.12831C10.4739 0.0993973 10.4552 0.0736016 10.4317 0.0528065C10.4081 0.0320113 10.3802 0.0167416 10.35 0.00811208C10.3197 -0.000517453 10.288 -0.00228898 10.257 0.00292682Z" fill="black"/>
</svg>
