<svg width="12" height="13" viewBox="0 0 12 13" fill="none" xmlns="http://www.w3.org/2000/svg">
<path d="M9.37557 8.24093L9.38896 8.22754C8.70604 9.25861 7.66158 9.92814 6.24219 10.1826C6.97867 10.0754 7.67497 9.80762 8.25077 9.40591L10.8619 12.0171L12.0001 10.8789L9.37557 8.24093Z" fill="#655E54"/>
<path d="M9.38874 8.22743C9.41553 8.18726 9.44231 8.14709 9.46909 8.10692C9.75029 7.63825 9.97793 7.10263 10.1118 6.51344C10.1654 6.21885 10.2056 5.91087 10.2056 5.5895C10.219 3.05869 8.14343 0.983154 5.59922 0.983154C3.05502 0.983154 0.979492 3.05869 0.979492 5.60289C0.979492 8.14709 3.05502 10.2226 5.59922 10.2226C5.81347 10.2226 6.02772 10.2092 6.24197 10.1691C7.66137 9.92803 8.70583 9.2585 9.38874 8.22743ZM5.59922 8.61576C3.9388 8.61576 2.58636 7.26331 2.58636 5.60289C2.58636 3.94246 3.9388 2.59002 5.59922 2.59002C7.25965 2.59002 8.61209 3.94246 8.61209 5.60289C8.61209 7.26331 7.25965 8.61576 5.59922 8.61576Z" fill="#655E54"/>
</svg>
