<svg width="17" height="17" viewBox="0 0 17 17" fill="none" xmlns="http://www.w3.org/2000/svg">
<path d="M16.6 6.56436L15.2934 6.28032C15.1798 5.93246 15.0391 5.59317 14.8729 5.26633L15.5963 4.14118C15.7254 3.94015 15.697 3.67621 15.5282 3.50734L13.4927 1.47183C13.3238 1.30296 13.0599 1.27456 12.8588 1.40374L11.7337 2.12708C11.4068 1.96093 11.0675 1.82021 10.7197 1.70659L10.4356 0.399994C10.3849 0.166534 10.1782 0 9.93928 0H7.06072C6.82182 0 6.61507 0.166534 6.56436 0.399994L6.28032 1.70659C5.93246 1.82021 5.59317 1.96093 5.26633 2.12708L4.14118 1.40374C3.94015 1.27456 3.67621 1.30296 3.50734 1.47183L1.47183 3.50734C1.30296 3.67621 1.27456 3.94015 1.40374 4.14118L2.12708 5.26633C1.96093 5.59317 1.82021 5.93246 1.70659 6.28032L0.399994 6.56436C0.166534 6.6152 0 6.82182 0 7.06072V9.93928C0 10.1782 0.166534 10.3848 0.399994 10.4356L1.70659 10.7197C1.82021 11.0675 1.96093 11.4068 2.12708 11.7337L1.40374 12.8588C1.27456 13.0599 1.30296 13.3238 1.47183 13.4927L3.50734 15.5282C3.67621 15.697 3.94015 15.7254 4.14118 15.5963L5.26633 14.8729C5.59317 15.0391 5.93246 15.1798 6.28032 15.2934L6.56436 16.6C6.61507 16.8335 6.82182 17 7.06072 17H9.93928C10.1782 17 10.3849 16.8335 10.4356 16.6L10.7197 15.2934C11.0675 15.1798 11.4068 15.0391 11.7337 14.8729L12.8588 15.5963C13.0599 15.7254 13.3238 15.6972 13.4927 15.5282L15.5282 13.4927C15.697 13.3238 15.7254 13.0599 15.5963 12.8588L14.8729 11.7337C15.0391 11.4068 15.1798 11.0675 15.2934 10.7197L16.6 10.4356C16.8335 10.3848 17 10.1782 17 9.93928V7.06072C17 6.82182 16.8335 6.6152 16.6 6.56436ZM11.5478 8.5C11.5478 10.1805 10.1805 11.5478 8.5 11.5478C6.81948 11.5478 5.45219 10.1805 5.45219 8.5C5.45219 6.81948 6.81948 5.45219 8.5 5.45219C10.1805 5.45219 11.5478 6.81948 11.5478 8.5Z" fill="#fff"/>
</svg>
