<svg width="16" height="16" viewBox="0 0 16 16" fill="none" xmlns="http://www.w3.org/2000/svg">
<path d="M1.99123 6.75831L1.98871 6.75802C1.98871 6.75802 2.88923 7.69931 2.88923 8.95683C2.88923 10.009 2.80178 12.567 2.77319 13.375H4.0167L4.19872 11.6424C4.20621 11.5711 4.26636 11.517 4.33809 11.517C4.4137 11.517 4.47568 11.577 4.47814 11.6525L4.53428 13.375H5.71036C5.70863 12.4172 5.65058 10.462 5.60631 9.22075C5.60825 9.0557 5.63746 8.89121 5.70736 8.74168C5.93129 8.26263 5.8937 7.75854 5.83456 7.43617C5.78988 7.19258 5.83348 6.94161 5.96205 6.72995L6.15459 6.41299L6.1532 6.41428C6.80614 5.58628 6.93018 4.44502 6.94455 3.82133C6.95028 3.57302 6.74845 3.36951 6.50007 3.36951C6.26153 3.36951 6.06498 3.55708 6.05607 3.79546C6.0244 4.64291 5.74262 6.45944 3.90873 6.45944C2.07483 6.45944 1.79305 4.64291 1.76138 3.79546C1.75247 3.55708 1.55592 3.36951 1.31738 3.36951C1.069 3.36951 0.867169 3.57302 0.872891 3.82133C0.889393 4.5374 1.05104 5.9352 1.99123 6.75831Z" fill="#5E6072"/>
<path d="M2.80428 4.23241C2.69122 4.42036 2.625 4.63969 2.625 4.875C2.625 5.56535 3.18465 6.125 3.875 6.125C4.56535 6.125 5.125 5.56535 5.125 4.875C5.125 4.18465 4.56535 3.625 3.875 3.625C3.74414 3.625 3.61805 3.64529 3.4995 3.68259C3.4968 3.37425 3.24648 3.125 2.9375 3.125C2.62684 3.125 2.375 3.37684 2.375 3.6875C2.375 3.95203 2.55826 4.17234 2.80428 4.23241ZM3.875 5.875C3.43852 5.875 3.06744 5.59344 2.9313 5.20277C3.79246 5.17732 4.09334 4.67447 4.19581 4.27714C4.3352 4.35021 4.52682 4.41867 4.77412 4.44019C4.83808 4.57188 4.875 4.71903 4.875 4.875C4.875 5.4264 4.4264 5.875 3.875 5.875Z" fill="#5E6072"/>
<path d="M8.38528 8.51524C8.38621 8.51524 8.38704 8.51508 8.38797 8.51508C8.61665 8.80966 8.97319 9 9.37498 9C10.0653 9 10.625 8.44035 10.625 7.75C10.625 7.05965 10.0653 6.5 9.37498 6.5C9.0659 6.5 8.78355 6.61275 8.56537 6.79861L8.56373 6.79905L8.55075 6.81191L8.44655 6.91515L7.67259 7.68191C7.5955 7.76156 7.57991 7.88182 7.63417 7.97847C7.75189 8.18811 7.99766 8.51524 8.38528 8.51524ZM9.37498 8.75C9.10243 8.75 8.85524 8.64012 8.6747 8.46267C9.0301 8.32291 9.18916 7.9327 9.36308 7.65473C9.56435 7.33309 9.94621 7.18405 10.1536 7.124C10.2918 7.29552 10.375 7.51311 10.375 7.75C10.375 8.3014 9.92639 8.75 9.37498 8.75Z" fill="#5E6072"/>
<path d="M11.9868 7.15096C11.7302 7.0499 11.4402 7.17475 11.3373 7.43055L10.9907 8.29187C10.7274 8.94627 10.0928 9.37496 9.38746 9.37496H8.86558C8.41884 9.37496 8.00606 9.61337 7.78284 10.0003L6.36208 12.4631C6.2403 12.6742 6.31483 12.9441 6.52765 13.0628C6.72028 13.1703 6.96277 13.1172 7.09296 12.9392L8.35285 11.2163L8.0198 13.375H8.12498C9.29833 13.375 10.3703 12.935 11.1866 12.2123C11.2036 11.2715 11.0444 10.7149 11.0444 10.7149L12.2654 7.81248C12.3746 7.55285 12.2488 7.2542 11.9868 7.15096Z" fill="#5E6072"/>
<path d="M15.2055 4.76447L14.3717 3.07273C14.336 1.65005 13.2488 0.784851 13.2018 0.74823C13.1566 0.713074 13.0934 0.713074 13.0482 0.74823C13.0024 0.783875 11.9716 1.60477 11.8836 2.96037L10.9944 4.76447C10.9125 4.93061 11.0334 5.125 11.2186 5.125H11.875V5.375C11.875 5.44403 11.9309 5.5 12 5.5H12.5993L12.4769 5.83172C12.4467 5.91334 12.5071 6 12.5941 6H12.75H12.875H13V8.75C13 10.2884 12.2867 11.6594 11.1736 12.5529C10.3387 13.2231 9.27902 13.625 8.125 13.625H7.98126H5.70925H4.4052H3.99044H2.76424H1.25C1.11193 13.625 1 13.7369 1 13.875V14.885C1 15.0238 1.11274 15.135 1.24975 15.135C1.25444 15.135 1.25916 15.1349 1.26391 15.1346L8.10004 14.7537C11.0255 14.5912 13.3015 12.1491 13.2579 9.21946L13.25 8.69203V6H13.375H13.5H13.6559C13.7429 6 13.8033 5.91334 13.7731 5.83172L13.6507 5.5H14.25C14.3191 5.5 14.375 5.44403 14.375 5.375V5.125H14.9813C15.1665 5.125 15.2874 4.93061 15.2055 4.76447ZM13.25 5.25V4.25C13.25 4.18097 13.1941 4.125 13.125 4.125C13.0559 4.125 13 4.18097 13 4.25V5.25H12.125V3.87572V3.14294C12.125 2.94624 12.149 2.76086 12.1882 2.58643C12.3434 1.89656 12.7512 1.38963 13 1.13368V2C13 2.06903 13.0559 2.125 13.125 2.125C13.1941 2.125 13.25 2.06903 13.25 2V1.13303C13.4705 1.35917 13.8164 1.78176 14.0004 2.35608C14.0765 2.59367 14.125 2.85688 14.125 3.14294V4.89681V5.25H13.25Z" fill="#5E6072"/>
<path d="M13.125 2.5C12.7798 2.5 12.5 2.77982 12.5 3.125C12.5 3.47018 12.7798 3.75 13.125 3.75C13.4702 3.75 13.75 3.47018 13.75 3.125C13.75 2.77982 13.4702 2.5 13.125 2.5ZM13.125 3.5C12.9182 3.5 12.75 3.33178 12.75 3.125C12.75 2.91822 12.9182 2.75 13.125 2.75C13.3318 2.75 13.5 2.91822 13.5 3.125C13.5 3.33178 13.3318 3.5 13.125 3.5Z" fill="#5E6072"/>
</svg>
