<svg width="16" height="16" viewBox="0 0 16 16" fill="none" xmlns="http://www.w3.org/2000/svg">
<path d="M16 9.80342V6.19658L14.1936 5.99882C14.0859 5.66561 13.9517 5.34445 13.7944 5.03707L14.9321 3.61835L12.3818 1.06788L10.9638 2.2061C10.6557 2.04813 10.334 1.91373 9.99996 1.80586L9.80342 0H6.19658L6.00092 1.80569C5.66614 1.91373 5.34357 2.04848 5.0348 2.20679L3.61835 1.06805L1.06788 3.61835L2.20697 5.03428C2.04866 5.34305 1.91373 5.66544 1.80569 6.00039L0 6.19658V9.80342L1.80569 9.99891C1.91356 10.3337 2.04848 10.6564 2.20679 10.965L1.06805 12.3816L3.61835 14.9321L5.03428 13.793C5.34235 13.951 5.66404 14.0856 5.99812 14.1934L6.19658 16H9.80342L10.0012 14.1936C10.3346 14.0859 10.6557 13.9517 10.9631 13.7943L12.3818 14.9321L14.9321 12.3816L13.7939 10.9636C13.9515 10.6563 14.0857 10.3353 14.1933 10.0019L16 9.80342ZM8 11.4473C6.09622 11.4473 4.5527 9.90396 4.5527 8C4.5527 6.09604 6.09622 4.5527 8 4.5527C9.90378 4.5527 11.4473 6.09604 11.4473 8C11.4473 9.90396 9.90378 11.4473 8 11.4473ZM8 5.96356C6.8754 5.96356 5.96356 6.8754 5.96356 8C5.96356 9.1246 6.8754 10.0364 8 10.0364C9.1246 10.0364 10.0364 9.1246 10.0364 8C10.0364 6.8754 9.1246 5.96356 8 5.96356Z" fill="#5E6072"/>
</svg>
