<svg width="16" height="16" viewBox="0 0 16 16" fill="none" xmlns="http://www.w3.org/2000/svg">
<path fill-rule="evenodd" clip-rule="evenodd" d="M10.1194 7.47943C10.3238 7.56343 10.5478 7.60977 10.7826 7.60977C11.7431 7.60977 12.5217 6.8346 12.5217 5.87837C12.5217 4.98016 11.8347 4.24169 10.9553 4.1554C11.0688 4.47794 11.1304 4.8247 11.1304 5.18581C11.1304 6.09312 10.741 6.90988 10.1194 7.47943ZM5.04473 4.1554C4.16529 4.24169 3.47827 4.98016 3.47827 5.87837C3.47827 6.8346 4.25691 7.60977 5.2174 7.60977C5.45224 7.60977 5.67621 7.56343 5.88059 7.47943C5.25903 6.90988 4.86958 6.09312 4.86958 5.18581C4.86958 4.8247 4.93127 4.47794 5.04473 4.1554Z" fill="#5E6072"/>
<path fill-rule="evenodd" clip-rule="evenodd" d="M13.1937 11.0809H13.913V10.3884C13.913 10.3884 13.913 8.92135 11.4365 8.45276C11.8735 8.72894 12.2339 9.06847 12.5205 9.46348C12.9354 10.0354 13.1308 10.6079 13.1937 11.0809ZM4.56345 8.45276C2.08694 8.92135 2.08694 10.3884 2.08694 10.3884V11.0809H2.8063C2.86919 10.6079 3.06459 10.0354 3.47952 9.46348C3.76608 9.06847 4.12651 8.72894 4.56345 8.45276Z" fill="#5E6072"/>
<path fill-rule="evenodd" clip-rule="evenodd" d="M8 15.2363C3.96592 15.2363 0.695648 11.9806 0.695648 7.96445C0.695648 3.9483 3.96592 0.692566 8 0.692566C12.0341 0.692566 15.3043 3.9483 15.3043 7.96445C15.3043 11.9806 12.0341 15.2363 8 15.2363ZM8 14.5438C11.6499 14.5438 14.6087 11.5981 14.6087 7.96445C14.6087 4.33079 11.6499 1.38513 8 1.38513C4.35011 1.38513 1.3913 4.33079 1.3913 7.96445C1.3913 11.5981 4.35011 14.5438 8 14.5438Z" fill="#5E6072"/>
<path fill-rule="evenodd" clip-rule="evenodd" d="M3.47827 12.4661H12.5217V11.4273C12.5217 10.9585 12.3395 10.3969 11.9565 9.86899C11.226 8.86193 9.91637 8.31073 8.00001 8.31073C6.08365 8.31073 4.77406 8.86193 4.04349 9.86899C3.66055 10.3969 3.47827 10.9585 3.47827 11.4273V12.4661Z" fill="#5E6072"/>
<path fill-rule="evenodd" clip-rule="evenodd" d="M7.65216 1.73459C7.65216 1.92408 7.81351 2.07768 7.99999 2.07768C8.19209 2.07768 8.34781 1.92826 8.34781 1.73459V0.343087C8.34781 0.153605 8.18647 0 7.99999 0C7.80789 0 7.65216 0.149422 7.65216 0.343087V1.73459Z" fill="#5E6072"/>
<path fill-rule="evenodd" clip-rule="evenodd" d="M7.65216 15.5858C7.65216 15.7753 7.81351 15.9289 7.99999 15.9289C8.19209 15.9289 8.34781 15.7795 8.34781 15.5858V14.1943C8.34781 14.0048 8.18647 13.8512 7.99999 13.8512C7.80789 13.8512 7.65216 14.0006 7.65216 14.1943V15.5858Z" fill="#5E6072"/>
<path fill-rule="evenodd" clip-rule="evenodd" d="M0 7.96444C0 8.15569 0.150089 8.31072 0.344618 8.31072H1.74234C1.93267 8.31072 2.08696 8.1501 2.08696 7.96444C2.08696 7.7732 1.93687 7.61816 1.74234 7.61816H0.344618C0.154291 7.61816 0 7.77879 0 7.96444Z" fill="#5E6072"/>
<path fill-rule="evenodd" clip-rule="evenodd" d="M13.9131 7.96444C13.9131 8.15569 14.0631 8.31072 14.2577 8.31072H15.6554C15.8457 8.31072 16 8.1501 16 7.96444C16 7.7732 15.8499 7.61816 15.6554 7.61816H14.2577C14.0673 7.61816 13.9131 7.77879 13.9131 7.96444Z" fill="#5E6072"/>
<path d="M8 7.61819C9.34469 7.61819 10.4348 6.53294 10.4348 5.19422C10.4348 3.85551 9.34469 2.77026 8 2.77026C6.65531 2.77026 5.56522 3.85551 5.56522 5.19422C5.56522 6.53294 6.65531 7.61819 8 7.61819Z" fill="#5E6072"/>
</svg>
