<svg width="16" height="16" viewBox="0 0 16 16" fill="none" xmlns="http://www.w3.org/2000/svg">
<path d="M0.000806625 15.2245C0.000806625 15.0188 0.081539 14.8216 0.225244 14.6761C0.368948 14.5307 0.563854 14.449 0.767083 14.449H3.64344C3.84667 14.449 4.04158 14.5307 4.18528 14.6761C4.32898 14.8216 4.40972 15.0188 4.40972 15.2245C4.40972 15.4302 4.32898 15.6274 4.18528 15.7729C4.04158 15.9183 3.84667 16 3.64344 16H0.767083C0.563854 16 0.368948 15.9183 0.225244 15.7729C0.081539 15.6274 0.000806625 15.4302 0.000806625 15.2245V15.2245ZM0.767083 13.6718H3.64344C3.84688 13.6718 4.04199 13.59 4.18585 13.4445C4.32971 13.2989 4.41052 13.1014 4.41052 12.8955C4.41052 12.6896 4.32971 12.4922 4.18585 12.3466C4.04199 12.201 3.84688 12.1192 3.64344 12.1192H0.767083C0.56364 12.1192 0.368529 12.201 0.224673 12.3466C0.0808174 12.4922 0 12.6896 0 12.8955C0 13.1014 0.0808174 13.2989 0.224673 13.4445C0.368529 13.59 0.56364 13.6718 0.767083 13.6718V13.6718ZM0.767083 11.3437H3.64344C3.74804 11.3506 3.85291 11.3356 3.95159 11.2999C4.05026 11.2641 4.14063 11.2082 4.21711 11.1357C4.29359 11.0631 4.35456 10.9755 4.39623 10.8782C4.43791 10.7808 4.45941 10.6759 4.45941 10.5698C4.45941 10.4637 4.43791 10.3588 4.39623 10.2614C4.35456 10.1641 4.29359 10.0765 4.21711 10.0039C4.14063 9.93139 4.05026 9.8755 3.95159 9.83973C3.85291 9.80395 3.74804 9.78904 3.64344 9.79592H0.767083C0.56364 9.79592 0.368529 9.87771 0.224673 10.0233C0.0808174 10.1689 0 10.3663 0 10.5722C0 10.7781 0.0808174 10.9756 0.224673 11.1212C0.368529 11.2668 0.56364 11.3486 0.767083 11.3486V11.3437ZM0.767083 9.01551H3.64344C3.84688 9.01551 4.04199 8.93372 4.18585 8.78813C4.32971 8.64254 4.41052 8.44508 4.41052 8.23918C4.41052 8.03329 4.32971 7.83583 4.18585 7.69024C4.04199 7.54465 3.84688 7.46286 3.64344 7.46286H0.767083C0.56364 7.46286 0.368529 7.54465 0.224673 7.69024C0.0808174 7.83583 0 8.03329 0 8.23918C0 8.44508 0.0808174 8.64254 0.224673 8.78813C0.368529 8.93372 0.56364 9.01551 0.767083 9.01551V9.01551ZM6.07778 16H8.95252C9.15597 16 9.35108 15.9182 9.49493 15.7726C9.63879 15.627 9.71961 15.4296 9.71961 15.2237C9.71961 15.0178 9.63879 14.8203 9.49493 14.6747C9.35108 14.5291 9.15597 14.4473 8.95252 14.4473H6.07778C5.87434 14.4473 5.67923 14.5291 5.53537 14.6747C5.39151 14.8203 5.3107 15.0178 5.3107 15.2237C5.3107 15.4296 5.39151 15.627 5.53537 15.7726C5.67923 15.9182 5.87434 16 6.07778 16V16ZM6.07778 13.6718H8.95252C9.15597 13.6718 9.35108 13.59 9.49493 13.4445C9.63879 13.2989 9.71961 13.1014 9.71961 12.8955C9.71961 12.6896 9.63879 12.4922 9.49493 12.3466C9.35108 12.201 9.15597 12.1192 8.95252 12.1192H6.07778C5.87434 12.1192 5.67923 12.201 5.53537 12.3466C5.39151 12.4922 5.3107 12.6896 5.3107 12.8955C5.3107 13.1014 5.39151 13.2989 5.53537 13.4445C5.67923 13.59 5.87434 13.6718 6.07778 13.6718V13.6718ZM6.07778 11.3437H8.95252C9.15597 11.3437 9.35108 11.2619 9.49493 11.1163C9.63879 10.9707 9.71961 10.7732 9.71961 10.5673C9.71961 10.3615 9.63879 10.164 9.49493 10.0184C9.35108 9.87281 9.15597 9.79102 8.95252 9.79102H6.07778C5.87434 9.79102 5.67923 9.87281 5.53537 10.0184C5.39151 10.164 5.3107 10.3615 5.3107 10.5673C5.3107 10.7732 5.39151 10.9707 5.53537 11.1163C5.67923 11.2619 5.87434 11.3437 6.07778 11.3437ZM11.3869 16H14.2632C14.4667 16 14.6618 15.9182 14.8056 15.7726C14.9495 15.627 15.0303 15.4296 15.0303 15.2237C15.0303 15.0178 14.9495 14.8203 14.8056 14.6747C14.6618 14.5291 14.4667 14.4473 14.2632 14.4473H11.3869C11.1834 14.4473 10.9883 14.5291 10.8445 14.6747C10.7006 14.8203 10.6198 15.0178 10.6198 15.2237C10.6198 15.4296 10.7006 15.627 10.8445 15.7726C10.9883 15.9182 11.1834 16 11.3869 16V16ZM11.3869 13.6718H14.2632C14.4667 13.6718 14.6618 13.59 14.8056 13.4445C14.9495 13.2989 15.0303 13.1014 15.0303 12.8955C15.0303 12.6896 14.9495 12.4922 14.8056 12.3466C14.6618 12.201 14.4667 12.1192 14.2632 12.1192H11.3869C11.1834 12.1192 10.9883 12.201 10.8445 12.3466C10.7006 12.4922 10.6198 12.6896 10.6198 12.8955C10.6198 13.1014 10.7006 13.2989 10.8445 13.4445C10.9883 13.59 11.1834 13.6718 11.3869 13.6718V13.6718ZM6.42462 2.65143H6.69403V8.43918C6.69403 8.49493 6.70488 8.55013 6.72595 8.60163C6.74703 8.65313 6.77793 8.69993 6.81688 8.73934C6.85582 8.77876 6.90206 8.81003 6.95295 8.83136C7.00384 8.85269 7.05838 8.86367 7.11346 8.86367H7.92007C7.97515 8.86367 8.02969 8.85269 8.08058 8.83136C8.13147 8.81003 8.17771 8.77876 8.21665 8.73934C8.2556 8.69993 8.2865 8.65313 8.30758 8.60163C8.32865 8.55013 8.3395 8.49493 8.3395 8.43918V2.65143H8.61214C8.66149 2.65251 8.7105 2.64287 8.75587 2.62316C8.80123 2.60344 8.84188 2.57411 8.87509 2.53714C8.92344 2.48005 8.9516 2.40827 8.9551 2.33316C8.95861 2.25805 8.93727 2.1839 8.89445 2.12245L7.78617 0.551837C7.75524 0.508348 7.71453 0.472926 7.66741 0.448494C7.62029 0.424062 7.5681 0.411321 7.51515 0.411321C7.46221 0.411321 7.41002 0.424062 7.36289 0.448494C7.31577 0.472926 7.27506 0.508348 7.24413 0.551837L6.13585 2.12245C6.0954 2.17957 6.07365 2.24809 6.07365 2.31837C6.07365 2.38865 6.0954 2.45716 6.13585 2.51429C6.1699 2.55856 6.21381 2.59406 6.26399 2.6179C6.31417 2.64173 6.36921 2.65322 6.42462 2.65143V2.65143ZM11.7337 2.65143H12.0031V10.7657C12.0031 10.8783 12.0473 10.9863 12.126 11.0659C12.2046 11.1455 12.3113 11.1902 12.4225 11.1902H13.2292C13.3404 11.1902 13.4471 11.1455 13.5257 11.0659C13.6044 10.9863 13.6486 10.8783 13.6486 10.7657V2.65143H13.9244C13.9738 2.65251 14.0228 2.64287 14.0682 2.62316C14.1135 2.60344 14.1542 2.57411 14.1874 2.53714C14.2355 2.47986 14.2634 2.40799 14.2666 2.33288C14.2698 2.25777 14.2482 2.18372 14.2051 2.12245L13.0969 0.551837C13.0659 0.508348 13.0252 0.472926 12.9781 0.448494C12.931 0.424062 12.8788 0.411321 12.8258 0.411321C12.7729 0.411321 12.7207 0.424062 12.6736 0.448494C12.6265 0.472926 12.5858 0.508348 12.5548 0.551837L11.4449 2.12245C11.4045 2.17957 11.3827 2.24809 11.3827 2.31837C11.3827 2.38865 11.4045 2.45716 11.4449 2.51429C11.479 2.55856 11.5229 2.59406 11.5731 2.6179C11.6233 2.64173 11.6783 2.65322 11.7337 2.65143ZM1.86891 3.89878C2.48193 4.10775 2.71907 4.30204 2.71907 4.58939C2.71907 4.87673 2.43514 5.06122 1.96893 5.06122C1.66846 5.05934 1.37035 5.00749 1.0865 4.90775C1.03146 4.88859 0.9737 4.87867 0.915498 4.87837C0.800783 4.87762 0.689173 4.91606 0.598715 4.98746C0.508258 5.05886 0.44424 5.15905 0.417016 5.27184V5.31102C0.384752 5.44058 0.402283 5.5777 0.466065 5.69468C0.529848 5.81166 0.635127 5.89977 0.76063 5.94122C1.07448 6.04196 1.39975 6.10176 1.72856 6.11918V6.46531C1.72856 6.58482 1.77547 6.69943 1.85897 6.78394C1.94247 6.86844 2.05572 6.91592 2.1738 6.91592C2.29189 6.91592 2.40514 6.86844 2.48864 6.78394C2.57214 6.69943 2.61905 6.58482 2.61905 6.46531V6.05551C3.516 5.89224 4.09191 5.26694 4.09191 4.47184C4.09191 3.67673 3.66925 3.22612 2.67551 2.86857C1.94311 2.58939 1.70759 2.42286 1.70759 2.18612C1.70759 1.91347 1.95279 1.75673 2.3803 1.75673C2.62442 1.75573 2.86737 1.79093 3.1014 1.86122C3.14799 1.8753 3.19636 1.88245 3.24498 1.88245C3.36978 1.88051 3.48972 1.83315 3.58285 1.74905C3.67598 1.66494 3.73607 1.54971 3.75213 1.42444C3.76819 1.29917 3.73914 1.17223 3.6703 1.06686C3.60147 0.961488 3.49744 0.884723 3.37726 0.850612C3.13963 0.789029 2.89637 0.752373 2.65132 0.741224V0.450612C2.65132 0.331102 2.60441 0.216487 2.52091 0.131981C2.43741 0.0474751 2.32416 0 2.20607 0C2.08798 0 1.97473 0.0474751 1.89123 0.131981C1.80773 0.216487 1.76082 0.331102 1.76082 0.450612V0.803265C0.8913 0.979592 0.355713 1.56735 0.355713 2.32653C0.355713 3.26531 1.16716 3.65714 1.86891 3.89878Z" fill="#5E6072"/>
</svg>
