<svg width="14" height="16" viewBox="0 0 14 16" fill="none" xmlns="http://www.w3.org/2000/svg">
<path d="M8.54468 9.42979L6.80851 11.1319L5.07234 9.39575C2.14468 10.1787 0 12.834 0 16H13.617C13.617 12.834 11.4723 10.1787 8.54468 9.42979Z" fill="#5E6072"/>
<path d="M6.80851 0C4.73191 0 3.02979 1.70213 3.02979 3.77872C3.02979 5.85532 4.73191 7.55745 6.80851 7.55745C8.8851 7.55745 10.5872 5.85532 10.5872 3.77872C10.5872 1.70213 8.8851 0 6.80851 0ZM6.60425 3.16596C6.67234 3.26809 6.77447 3.37021 6.94468 3.4383C7.31915 3.60851 7.59149 3.81277 7.7617 3.98298C7.93191 4.15319 8.03404 4.42553 8.03404 4.8C8.03404 5.14043 7.93191 5.41277 7.7617 5.61702C7.59149 5.82128 7.35319 5.9234 7.04681 5.99149V6.57021H6.6383V5.95745C6.33191 5.9234 6.05957 5.78723 5.85532 5.54894C5.65106 5.31064 5.54893 5.00426 5.54893 4.5617H6.36596C6.36596 4.83404 6.4 5.00426 6.50213 5.14043C6.60425 5.24255 6.70638 5.31064 6.84255 5.31064C6.97872 5.31064 7.04681 5.2766 7.11489 5.17447C7.18298 5.07234 7.21702 4.97021 7.21702 4.8C7.21702 4.62979 7.18298 4.49362 7.11489 4.42553C7.04681 4.3234 6.94468 4.22128 6.77447 4.15319C6.4 3.98298 6.12766 3.81277 5.95744 3.60851C5.78723 3.40426 5.6851 3.16596 5.6851 2.79149C5.6851 2.48511 5.78723 2.21277 5.95744 2.00851C6.12766 1.80426 6.36596 1.66809 6.67234 1.63404V1.02128H7.08085V1.63404C7.35319 1.70213 7.59149 1.8383 7.7617 2.0766C7.93191 2.31489 8 2.62128 8 2.99574H7.18298C7.18298 2.75745 7.14893 2.58723 7.08085 2.48511C7.01276 2.34894 6.91064 2.31489 6.80851 2.31489C6.70638 2.31489 6.60425 2.34894 6.53617 2.45106C6.46808 2.55319 6.46808 2.68936 6.46808 2.82553C6.53617 2.92766 6.57021 3.06383 6.60425 3.16596Z" fill="#5E6072"/>
</svg>
