<svg width="30" height="30" viewBox="0 0 30 30" fill="none" xmlns="http://www.w3.org/2000/svg">
<circle cx="15" cy="15" r="15" fill="#ECEFF1"/>
<path d="M19.1995 14.5998C19.7533 14.5998 20.2946 14.4356 20.7551 14.1279C21.2155 13.8203 21.5744 13.383 21.7863 12.8714C21.9982 12.3597 22.0537 11.7968 21.9456 11.2537C21.8376 10.7105 21.5709 10.2116 21.1794 9.82007C20.7878 9.4285 20.2889 9.16183 19.7458 9.0538C19.2027 8.94577 18.6397 9.00121 18.1281 9.21313C17.6165 9.42505 17.1792 9.78391 16.8715 10.2444C16.5639 10.7048 16.3997 11.2461 16.3997 11.7999C16.3997 12.5425 16.6946 13.2546 17.2197 13.7797C17.7448 14.3048 18.457 14.5998 19.1995 14.5998ZM19.3745 12.3249C19.3808 12.257 19.3607 12.1894 19.3185 12.1359H19.0246C18.9211 12.1246 18.8208 12.0929 18.7296 12.0428C18.6384 11.9926 18.5579 11.925 18.4929 11.8437C18.4279 11.7624 18.3795 11.6691 18.3507 11.5691C18.3218 11.4691 18.3129 11.3644 18.3246 11.2609C18.3133 11.0845 18.358 10.909 18.4522 10.7594C18.5465 10.6099 18.6855 10.4939 18.8496 10.4279V10.253C18.8496 10.1601 18.8864 10.0711 18.9521 10.0055C19.0177 9.93984 19.1067 9.90296 19.1995 9.90296C19.2924 9.90296 19.3814 9.93984 19.447 10.0055C19.5127 10.0711 19.5495 10.1601 19.5495 10.253V10.3999H19.7245C19.8173 10.3999 19.9064 10.4368 19.972 10.5025C20.0376 10.5681 20.0745 10.6571 20.0745 10.7499C20.0745 10.8428 20.0376 10.9318 19.972 10.9974C19.9064 11.063 19.8173 11.0999 19.7245 11.0999H19.0246C19.0595 11.0999 19.0246 11.1699 19.0246 11.2749C19.0183 11.3428 19.0384 11.4104 19.0805 11.4639H19.3745C19.478 11.4752 19.5782 11.5069 19.6695 11.557C19.7607 11.6071 19.8411 11.6748 19.9062 11.7561C19.9712 11.8374 20.0195 11.9307 20.0484 12.0307C20.0773 12.1307 20.0862 12.2354 20.0745 12.3389C20.0858 12.5153 20.0411 12.6908 19.9469 12.8403C19.8526 12.9899 19.7136 13.1059 19.5495 13.1718V13.3608C19.5495 13.4536 19.5127 13.5427 19.447 13.6083C19.3814 13.6739 19.2924 13.7108 19.1995 13.7108C19.1067 13.7108 19.0177 13.6739 18.9521 13.6083C18.8864 13.5427 18.8496 13.4536 18.8496 13.3608V13.1998H18.6746C18.5817 13.1998 18.4927 13.163 18.4271 13.0973C18.3615 13.0317 18.3246 12.9427 18.3246 12.8498C18.3246 12.757 18.3615 12.668 18.4271 12.6024C18.4927 12.5367 18.5817 12.4999 18.6746 12.4999H19.3745C19.3395 12.4999 19.3745 12.4299 19.3745 12.3249ZM10.0999 13.5498V19.1496C10.0999 19.2424 10.063 19.3314 9.99741 19.3971C9.93177 19.4627 9.84275 19.4996 9.74993 19.4996H8.34999C8.25716 19.4996 8.16814 19.4627 8.10251 19.3971C8.03687 19.3314 8 19.2424 8 19.1496V13.5498C8 13.457 8.03687 13.368 8.10251 13.3023C8.16814 13.2367 8.25716 13.1998 8.34999 13.1998H9.74993C9.84275 13.1998 9.93177 13.2367 9.99741 13.3023C10.063 13.368 10.0999 13.457 10.0999 13.5498ZM21.9994 16.5457C22.0063 16.7564 21.9509 16.9644 21.84 17.1437C21.7292 17.323 21.568 17.4656 21.3765 17.5537L15.4897 20.1995C15.4436 20.21 15.3958 20.21 15.3497 20.1995H15.2657L10.7999 19.0726V13.6268L12.4658 13.1998H15.3497C15.6282 13.1998 15.8952 13.3105 16.0921 13.5074C16.289 13.7043 16.3997 13.9713 16.3997 14.2498V14.4038C16.3999 14.638 16.3214 14.8655 16.1766 15.0496C16.0318 15.2337 15.8293 15.3637 15.6017 15.4187L13.5998 15.9227V16.0767L16.0497 16.6857L20.6975 15.5307C20.8511 15.4893 21.0124 15.4848 21.1682 15.5176C21.3239 15.5505 21.4696 15.6197 21.5934 15.7197C21.7202 15.8168 21.8228 15.9419 21.8932 16.0852C21.9636 16.2284 22 16.386 21.9994 16.5457Z" fill="#0F122B"/>
</svg>
