<svg width="30" height="30" viewBox="0 0 30 30" fill="none" xmlns="http://www.w3.org/2000/svg">
<circle cx="15" cy="15" r="15" fill="#ECEFF1"/>
<path d="M15.2501 8.51275V8.25C15.2501 8.1837 15.2238 8.12011 15.1769 8.07322C15.13 8.02634 15.0664 8 15.0001 8C14.9338 8 14.8702 8.02634 14.8233 8.07322C14.7765 8.12011 14.7501 8.1837 14.7501 8.25V8.51275C14.9164 8.49575 15.0839 8.49575 15.2501 8.51275Z" fill="black"/>
<path d="M16.25 13.75H13.75C13.6837 13.75 13.6201 13.7763 13.5732 13.8232C13.5263 13.8701 13.5 13.9337 13.5 14C13.5 14.0663 13.5263 14.1299 13.5732 14.1768C13.6201 14.2237 13.6837 14.25 13.75 14.25H16.25C16.3163 14.25 16.3799 14.2237 16.4268 14.1768C16.4737 14.1299 16.5 14.0663 16.5 14C16.5 13.9337 16.4737 13.8701 16.4268 13.8232C16.3799 13.7763 16.3163 13.75 16.25 13.75Z" fill="black"/>
<path d="M13.8894 12.663C13.9235 12.6858 13.9514 12.7168 13.9707 12.753C13.9901 12.7892 14.0001 12.8297 14.0001 12.8707V13.2502H16.0001V12.8707C16.0001 12.8297 16.0102 12.7892 16.0295 12.753C16.0488 12.7168 16.0768 12.6858 16.1109 12.663C16.4677 12.4247 16.7385 12.0779 16.8831 11.6739C17.0277 11.2699 17.0386 10.8301 16.9141 10.4194C16.7896 10.0088 16.5363 9.64906 16.1916 9.39341C15.847 9.13777 15.4292 8.99976 15.0001 8.99976C14.571 8.99976 14.1533 9.13777 13.8086 9.39341C13.464 9.64906 13.2107 10.0088 13.0862 10.4194C12.9617 10.8301 12.9725 11.2699 13.1172 11.6739C13.2618 12.0779 13.5325 12.4247 13.8894 12.663ZM15.3001 9.53021L15.2001 10.0202C15.0681 9.99384 14.9322 9.99384 14.8001 10.0202L14.7001 9.53021C14.8981 9.49032 15.1021 9.49032 15.3001 9.53021ZM14.1001 9.80021L14.4001 10.2002C14.188 10.3593 14.0477 10.5962 14.0102 10.8588C13.9727 11.1213 14.041 11.388 14.2001 11.6002L13.8001 11.9002C13.5614 11.582 13.4589 11.1819 13.5152 10.7881C13.5715 10.3943 13.7819 10.0389 14.1001 9.80021Z" fill="black"/>
<path d="M19.75 21.5H10.25C10.1837 21.5 10.1201 21.5263 10.0732 21.5732C10.0263 21.6201 10 21.6837 10 21.75C10 21.8163 10.0263 21.8799 10.0732 21.9268C10.1201 21.9737 10.1837 22 10.25 22H19.75C19.8164 22 19.8799 21.9737 19.9268 21.9268C19.9737 21.8799 20 21.8163 20 21.75C20 21.6837 19.9737 21.6201 19.9268 21.5732C19.8799 21.5263 19.8164 21.5 19.75 21.5Z" fill="black"/>
<path d="M19.25 19.853L17.3965 17.9995H13.5V17.4995H17.136L16.0783 14.7495H13.9218L12.7335 17.8393C12.7208 17.8719 12.7015 17.9015 12.6768 17.9263L11.1035 19.4995H17.5V19.9995H10.75V20.9995H19.25V19.853ZM18.5 19.9995H18V19.4995H18.5V19.9995Z" fill="black"/>
</svg>
