<svg width="30" height="30" viewBox="0 0 30 30" fill="none" xmlns="http://www.w3.org/2000/svg">
<circle cx="15" cy="15" r="15" fill="#ECEFF1"/>
<path d="M9.81191 19.0956H8.29167C8.13058 19.0956 8 19.2262 8 19.3872V21.1318C8 21.2929 8.13058 21.4235 8.29167 21.4235H9.81191C9.97299 21.4235 10.1036 21.2929 10.1036 21.1318V19.3872C10.1036 19.2262 9.97299 19.0956 9.81191 19.0956Z" fill="black"/>
<path d="M12.786 17.803H11.2657C11.1046 17.803 10.9741 17.9336 10.9741 18.0946V21.1317C10.9741 21.2928 11.1046 21.4234 11.2657 21.4234H12.786C12.9471 21.4234 13.0776 21.2928 13.0776 21.1317V18.0946C13.0776 17.9336 12.9471 17.803 12.786 17.803Z" fill="black"/>
<path d="M15.76 15.4027H14.2398C14.0787 15.4027 13.9481 15.5333 13.9481 15.6944V21.1318C13.9481 21.2929 14.0787 21.4235 14.2398 21.4235H15.76C15.9211 21.4235 16.0517 21.2929 16.0517 21.1318V15.6944C16.0517 15.5333 15.9211 15.4027 15.76 15.4027Z" fill="black"/>
<path d="M18.7341 13.0155H17.2138C17.0528 13.0155 16.9222 13.1461 16.9222 13.3072V21.1318C16.9222 21.2929 17.0528 21.4234 17.2138 21.4234H18.7341C18.8952 21.4234 19.0258 21.2929 19.0258 21.1318V13.3072C19.0258 13.1461 18.8952 13.0155 18.7341 13.0155Z" fill="black"/>
<path d="M21.7082 9.96878H20.1879C20.0268 9.96878 19.8962 10.0994 19.8962 10.2604V21.1316C19.8962 21.2927 20.0268 21.4233 20.1879 21.4233H21.7082C21.8692 21.4233 21.9998 21.2927 21.9998 21.1316V10.2604C21.9998 10.0994 21.8692 9.96878 21.7082 9.96878Z" fill="black"/>
<path d="M18.257 9.00293L15.8345 9.41344C15.7952 9.42011 15.7586 9.43776 15.729 9.46435C15.6993 9.49094 15.6778 9.52539 15.6668 9.5637C15.6559 9.60202 15.6561 9.64264 15.6673 9.68088C15.6785 9.71911 15.7003 9.7534 15.7301 9.77977L16.1067 10.1117C13.7158 12.6345 11.1163 14.951 8.3358 17.0366C8.30881 17.0568 8.29026 17.0863 8.28372 17.1194C8.27718 17.1525 8.28312 17.1868 8.30039 17.2158C8.31765 17.2448 8.34503 17.2663 8.37725 17.2763C8.40946 17.2863 8.44423 17.284 8.47487 17.2699C11.7741 15.7429 14.8658 13.8024 17.6754 11.4951L18.0487 11.8241C18.0786 11.8504 18.1153 11.8677 18.1546 11.874C18.194 11.8803 18.2343 11.8754 18.2709 11.8598C18.3075 11.8442 18.339 11.8185 18.3617 11.7858C18.3843 11.753 18.3973 11.7145 18.399 11.6747L18.5029 9.21993C18.5042 9.18852 18.4985 9.15722 18.4862 9.12831C18.4739 9.0994 18.4552 9.0736 18.4317 9.05281C18.4081 9.03201 18.3802 9.01674 18.35 9.00811C18.3197 8.99948 18.288 8.99771 18.257 9.00293Z" fill="black"/>
</svg>
