<svg width="30" height="30" viewBox="0 0 30 30" fill="none" xmlns="http://www.w3.org/2000/svg">
<circle cx="15" cy="15" r="15" fill="#ECEFF1"/>
<path d="M14.5467 11.64C14.5467 11.78 14.64 11.9044 14.7489 11.9978C14.8578 12.0911 14.8889 12.1844 15.2 12.2622V11.1111C14.8889 11.1266 14.7956 11.1733 14.7022 11.2666C14.6089 11.3755 14.5467 11.5 14.5467 11.64Z" fill="#0F122B"/>
<path d="M15.6511 13.6468C15.5267 13.5534 15.5111 13.4601 15.2 13.3823V14.6268C15.5111 14.5957 15.5889 14.5334 15.6822 14.4245C15.7756 14.3157 15.8378 14.1757 15.8378 14.0045C15.8222 13.8645 15.7756 13.7401 15.6511 13.6468Z" fill="#0F122B"/>
<path d="M15.2 8C12.8978 8 11 9.88222 11 12.2C11 14.4089 14.5311 21.5644 14.92 21.9067C14.9978 21.9689 15.0911 22 15.1844 22C15.2778 22 15.3711 21.9689 15.4489 21.9067C15.8533 21.5644 19.3844 14.4089 19.3844 12.2C19.3844 9.88222 17.5022 8 15.2 8ZM16.4289 14.9222C16.2111 15.1556 15.9778 15.3111 15.5111 15.3889V16.0889H14.8889V15.4356C14.7333 15.42 14.36 15.4044 14.1578 15.3422C13.9556 15.2956 13.7844 15.2333 13.6756 15.1711L13.94 14.3622C14.0178 14.4089 14.1733 14.4556 14.3289 14.5022C14.4844 14.5489 14.7489 14.58 14.9044 14.5956V13.1644C14.7489 13.1022 14.5778 13.0244 14.4378 12.9467C14.2978 12.8689 14.1578 12.7756 14.0333 12.6511C13.9244 12.5422 13.8156 12.4022 13.7533 12.2467C13.6911 12.0911 13.6444 11.9044 13.6444 11.6867C13.6444 11.2822 13.7844 10.9711 14.0022 10.7533C14.22 10.5356 14.4378 10.38 14.9044 10.3178V9.71111H15.5267V10.3333C15.6822 10.3489 15.9311 10.38 16.0867 10.4111C16.2422 10.4578 16.3978 10.5044 16.5222 10.5511L16.2733 11.3289C16.1956 11.2978 16.0711 11.2511 15.9467 11.22C15.8222 11.1889 15.6667 11.1578 15.5111 11.1422V12.4644C15.6667 12.5267 15.8222 12.6044 15.9778 12.6822C16.1178 12.76 16.2733 12.8689 16.3822 12.9778C16.4911 13.0867 16.6 13.2267 16.6622 13.3822C16.74 13.5378 16.7556 13.7089 16.7556 13.9267C16.7556 14.3467 16.6311 14.6733 16.4289 14.9222Z" fill="#0F122B"/>
</svg>
