<svg width="30" height="30" viewBox="0 0 30 30" fill="none" xmlns="http://www.w3.org/2000/svg">
<circle cx="15" cy="15" r="15" fill="#ECEFF1"/>
<path d="M15.8683 8C12.4827 8 9.73657 10.7537 9.73657 14.1485C9.73657 17.5434 12.4827 20.297 15.8683 20.297C19.2539 20.297 22 17.5434 22 14.1485C22 10.7537 19.2539 8 15.8683 8ZM15.8683 18.975C13.2155 18.975 11.0626 16.8127 11.0626 14.1485C11.0626 11.4891 13.2155 9.32208 15.8683 9.32208C18.5163 9.32208 20.674 11.4891 20.674 14.1485C20.674 16.8127 18.5162 18.975 15.8683 18.975Z" fill="#0F122B"/>
<path d="M12.1985 20.1397C12.2584 20.1765 12.2689 20.2579 12.2193 20.3077L10.9989 21.5337C10.3096 22.2194 9.19868 22.2194 8.51372 21.5337C7.82876 20.8435 7.82876 19.7313 8.51372 19.0456L9.73012 17.8278C9.77964 17.7782 9.86044 17.7885 9.89732 17.8482C10.4746 18.7814 11.2658 19.566 12.1985 20.1397Z" fill="#0F122B"/>
<path d="M18.8458 13.1672C17.2012 11.5255 14.5426 11.5255 12.898 13.1672L12.086 13.9777C12 14.0636 12 14.2032 12.086 14.289L12.898 15.0995C14.5426 16.7412 17.2012 16.7412 18.8458 15.0996L19.6579 14.289C19.7439 14.2032 19.7439 14.0636 19.6579 13.9777L18.8458 13.1672ZM15.8719 15.4509C15.1449 15.4509 14.558 14.8624 14.558 14.1334C14.558 13.4043 15.1449 12.8158 15.8719 12.8158C16.599 12.8158 17.1859 13.4043 17.1859 14.1334C17.1859 14.8624 16.599 15.4509 15.8719 15.4509Z" fill="#0F122B"/>
<path d="M15.8894 15.0045C16.3694 15.0045 16.7586 14.6143 16.7586 14.133C16.7586 13.6517 16.3694 13.2615 15.8894 13.2615C15.4094 13.2615 15.0203 13.6517 15.0203 14.133C15.0203 14.6143 15.4094 15.0045 15.8894 15.0045Z" fill="#0F122B"/>
</svg>
