<svg width="30" height="30" viewBox="0 0 30 30" fill="none" xmlns="http://www.w3.org/2000/svg">
<circle cx="15" cy="15" r="15" fill="#ECEFF1"/>
<path fill-rule="evenodd" clip-rule="evenodd" d="M15.0327 13.3758V23L9.09601 21.298V16.3942L13.7371 16.66L15.0327 13.3758Z" fill="#0F122B"/>
<path fill-rule="evenodd" clip-rule="evenodd" d="M21.0716 13.1561L15.501 12.816L16.8817 16.3516L22.4525 16.0116L21.0716 13.1561Z" fill="#0F122B"/>
<path fill-rule="evenodd" clip-rule="evenodd" d="M15.4198 13.3758L16.7153 16.66L21.3561 16.3942V21.298L15.4198 23V13.3758Z" fill="#0F122B"/>
<path fill-rule="evenodd" clip-rule="evenodd" d="M9.3805 13.1561L8 16.0116L13.5709 16.3516L14.9513 12.816L9.3805 13.1561Z" fill="#0F122B"/>
<path d="M18.3074 8.65004C18.3074 9.55892 17.5674 10.3001 16.6577 10.2999C15.7478 10.3002 15.0078 9.55909 15.0078 8.65004C15.007 7.73996 15.7474 7 16.6577 7C17.5674 6.99983 18.3074 7.7403 18.3074 8.65004Z" fill="#0F122B"/>
<path d="M14.1343 8.60039C14.1343 9.09256 13.7337 9.49381 13.2412 9.49364C12.7485 9.49381 12.348 9.09256 12.348 8.60039C12.3476 8.1077 12.7482 7.70696 13.2412 7.70696C13.7336 7.70696 14.1343 8.10787 14.1343 8.60039Z" fill="#0F122B"/>
<path d="M18.7233 11.7163C18.7233 12.2084 18.3228 12.6097 17.8301 12.6095C17.3374 12.6097 16.9368 12.2084 16.9368 11.7163C16.9365 11.2236 17.3371 10.8228 17.8301 10.8228C18.3228 10.8227 18.7233 11.2237 18.7233 11.7163Z" fill="#0F122B"/>
<path d="M15.882 11.0898C15.882 11.582 15.4817 11.9831 14.9887 11.9831C14.4962 11.9831 14.0955 11.582 14.0955 11.0898C14.0949 10.5971 14.4959 10.1962 14.9887 10.1962C15.4817 10.1962 15.882 10.5971 15.882 11.0898Z" fill="#0F122B"/>
<path d="M13.3313 11.548C13.3313 12.179 12.8178 12.6936 12.1859 12.6935C11.5542 12.6936 11.0408 12.179 11.0408 11.548C11.0403 10.9161 11.5542 10.4026 12.1859 10.4026C12.8176 10.4026 13.3313 10.9165 13.3313 11.548Z" fill="#0F122B"/>
</svg>
