<svg width="18" height="18" viewBox="0 0 18 18" fill="none" xmlns="http://www.w3.org/2000/svg">
<path d="M15.6728 4.92767C15.6441 4.91013 15.6145 4.89407 15.5841 4.87954C15.7241 4.76007 15.8242 4.60054 15.8707 4.42245C15.9173 4.24436 15.9081 4.05628 15.8445 3.88357C15.7808 3.71086 15.6657 3.56181 15.5147 3.45654C15.3637 3.35127 15.1841 3.29483 15 3.29483C14.8159 3.29483 14.6363 3.35127 14.4853 3.45654C14.3343 3.56181 14.2192 3.71086 14.1555 3.88357C14.0919 4.05628 14.0827 4.24436 14.1293 4.42245C14.1758 4.60054 14.2759 4.76007 14.4159 4.87954C14.3855 4.89407 14.356 4.91013 14.3272 4.92767L12.7364 2.39999L12 2.87999L13.806 5.74953C13.8048 5.76963 13.8 5.78869 13.8 5.80911V11.1H14.85V8.39999H15.15V11.1H16.2V5.80911C16.2 5.78869 16.1952 5.76963 16.194 5.74952L18 2.87999L17.2636 2.39999L15.6728 4.92767Z" fill="#5E6072"/>
<path d="M15.3708 0.7899L15 0L14.6292 0.7899L13.8 0.9168L14.4 1.5318L14.2584 2.4L15 1.9899L15.7416 2.4L15.6 1.5318L16.2 0.9168L15.3708 0.7899Z" fill="#5E6072"/>
<path d="M18 0.899994H17.1V1.49999H18V0.899994Z" fill="#5E6072"/>
<path d="M12.9 0.899994H12V1.49999H12.9V0.899994Z" fill="#5E6072"/>
<path d="M1.20001 0H0.600006V0.6H1.20001V0Z" fill="#5E6072"/>
<path d="M1.20001 1.20001H0.600006V1.80001H1.20001V1.20001Z" fill="#5E6072"/>
<path d="M1.80001 0.600006H1.20001V1.20001H1.80001V0.600006Z" fill="#5E6072"/>
<path d="M0.6 0.600006H0V1.20001H0.6V0.600006Z" fill="#5E6072"/>
<path d="M5.70001 2.70001H5.10001V3.30001H5.70001V2.70001Z" fill="#5E6072"/>
<path d="M5.70001 3.89999H5.10001V4.49999H5.70001V3.89999Z" fill="#5E6072"/>
<path d="M6.30001 3.29999H5.70001V3.89999H6.30001V3.29999Z" fill="#5E6072"/>
<path d="M5.1 3.29999H4.5V3.89999H5.1V3.29999Z" fill="#5E6072"/>
<path d="M10.2 14.1V7.80001C10.3709 7.97086 10.4683 8.20163 10.4717 8.44324L10.5 10.5H11.1V8.33358C11.1 8.14532 11.0629 7.9589 10.9909 7.78497C10.9188 7.61104 10.8132 7.45301 10.6801 7.31989C10.547 7.18677 10.389 7.08117 10.215 7.00913C10.0411 6.93709 9.85468 6.90001 9.66643 6.90001C9.81869 6.72651 9.90218 6.50329 9.90116 6.27246C9.90015 6.04163 9.81468 5.81916 9.66089 5.64702L9.63973 5.62609C9.50776 5.50793 9.34459 5.43021 9.16968 5.40219C8.99477 5.37417 8.81549 5.39704 8.65322 5.46807C8.49094 5.53909 8.35251 5.65528 8.25442 5.80279C8.15633 5.95029 8.10273 6.12289 8.09999 6.30001C8.10056 6.52209 8.18383 6.73599 8.33356 6.90001C8.1453 6.90001 7.95889 6.93709 7.78496 7.00913C7.61103 7.08117 7.45299 7.18677 7.31987 7.31989C7.18675 7.45301 7.08116 7.61104 7.00911 7.78497C6.93707 7.9589 6.89999 8.14532 6.89999 8.33358V10.5H7.49999L7.52834 8.44324C7.53167 8.20163 7.62914 7.97086 7.79999 7.80001V14.1H8.84999V10.8H9.14999V14.1H10.2Z" fill="#5E6072"/>
<path d="M4.19999 17.1V10.8C4.37085 10.9709 4.46831 11.2016 4.47165 11.4432L4.49999 13.5H5.09999V11.3336C5.1 11.1453 5.06292 10.9589 4.99087 10.785C4.91883 10.611 4.81323 10.453 4.68012 10.3199C4.547 10.1868 4.38896 10.0812 4.21503 10.0091C4.0411 9.93709 3.85469 9.90001 3.66643 9.90001C3.81869 9.72651 3.90218 9.50329 3.90116 9.27246C3.90015 9.04163 3.81468 8.81916 3.66089 8.64702L3.63973 8.62609C3.50776 8.50793 3.34459 8.43021 3.16968 8.40219C2.99477 8.37417 2.81549 8.39704 2.65322 8.46807C2.49094 8.53909 2.35251 8.65528 2.25442 8.80279C2.15633 8.95029 2.10273 9.12289 2.09999 9.30001C2.10056 9.52209 2.18383 9.73599 2.33356 9.90001C2.1453 9.90001 1.95889 9.93709 1.78496 10.0091C1.61103 10.0812 1.45299 10.1868 1.31987 10.3199C1.18675 10.453 1.08116 10.611 1.00911 10.785C0.937072 10.9589 0.899992 11.1453 0.899994 11.3336V13.5H1.49999L1.52834 11.4432C1.53167 11.2016 1.62914 10.9709 1.79999 10.8V17.1H2.84999V13.8H3.14999V17.1H4.19999Z" fill="#5E6072"/>
<path d="M12 11.4C11.9606 11.4 11.9216 11.4077 11.8852 11.4228C11.8488 11.4379 11.8157 11.46 11.7878 11.4878C11.76 11.5157 11.7379 11.5488 11.7228 11.5852C11.7077 11.6216 11.7 11.6606 11.7 11.7V14.4H6C5.9606 14.4 5.92159 14.4077 5.88518 14.4228C5.84878 14.4379 5.8157 14.46 5.78785 14.4878C5.75999 14.5157 5.73789 14.5488 5.72282 14.5852C5.70774 14.6216 5.69999 14.6606 5.7 14.7V17.4H0V18H18V11.4H12ZM7.74761 16.2H7.0956V15.6H7.7476L7.74761 16.2ZM9.05158 16.2H8.39962V15.6H9.05158V16.2ZM10.3556 16.2H9.70358V15.6H10.3556V16.2ZM11.6596 16.2H11.0076V15.6H11.6596V16.2ZM13.8 13.2H13.2V12.6H13.8V13.2ZM15 13.2H14.4V12.6H15V13.2ZM16.2 13.2H15.6V12.6H16.2V13.2ZM17.4 13.2H16.8V12.6H17.4V13.2Z" fill="#5E6072"/>
</svg>
