<svg width="14" height="7" viewBox="0 0 14 7" fill="none" xmlns="http://www.w3.org/2000/svg">
<path d="M13.7973 2.89876C13.7973 2.89876 11.0255 0 7.00004 0C2.97454 0 0.202728 2.89876 0.202728 2.89876C-0.0675761 3.18148 -0.0675761 3.644 0.202728 3.92671C0.202728 3.92671 2.97454 6.8255 7.00004 6.8255C11.0255 6.8255 13.7973 3.92671 13.7973 3.92671C14.0676 3.644 14.0676 3.18148 13.7973 2.89876ZM6.97595 6.19961C5.43681 6.19961 4.18905 4.95191 4.18905 3.41268C4.18905 1.87365 5.43681 0.625889 6.97595 0.625889C8.51506 0.625889 9.7628 1.87365 9.7628 3.41268C9.7628 4.95191 8.51504 6.19961 6.97595 6.19961Z" fill="#5E6072"/>
<path d="M8.82241 2.19476C8.72619 2.36838 8.54136 2.486 8.32877 2.486C8.01724 2.486 7.7647 2.23347 7.7647 1.92194C7.7647 1.72704 7.86357 1.55525 8.01384 1.45392C7.70171 1.28639 7.34495 1.19116 6.9659 1.19116C5.74015 1.19116 4.74646 2.18486 4.74646 3.41052C4.74646 4.63635 5.74015 5.62999 6.9659 5.62999C8.19165 5.62999 9.18532 4.63635 9.18532 3.41052C9.1854 2.96157 9.05164 2.54402 8.82241 2.19476Z" fill="#5E6072"/>
</svg>
