<svg width="30" height="30" viewBox="0 0 30 30" fill="none" xmlns="http://www.w3.org/2000/svg">
<circle cx="15" cy="15" r="15" fill="#ECEFF1"/>
<path d="M19.4666 18.0183C16.3666 19.3446 13.3666 19.4049 10.5333 18.0183C10.5333 16.3001 11.5666 14.7929 13.0999 14.0996C13.5999 14.4915 14.2666 14.7326 14.9999 14.7326C15.7333 14.7326 16.3999 14.4915 16.8999 14.0996C18.3999 14.823 19.4666 16.3001 19.4666 18.0183Z" fill="#0F122B"/>
<path d="M14.9999 14.1599C16.2702 14.1599 17.2999 13.2287 17.2999 12.0799C17.2999 10.9312 16.2702 10 14.9999 10C13.7297 10 12.7 10.9312 12.7 12.0799C12.7 13.2287 13.7297 14.1599 14.9999 14.1599Z" fill="#0F122B"/>
<path d="M23 17.6809C21.9666 18.1331 20.9333 18.3742 19.9333 18.4345C19.5666 17.1383 18.6333 15.9928 17.3666 15.3598C17.4666 15.2694 17.5333 15.1488 17.6 15.0282C17.7666 14.9077 17.9666 14.7871 18.1666 14.6967C18.5666 14.9981 19.0666 15.179 19.6 15.179C20.1666 15.179 20.6666 14.9981 21.0333 14.6967C22.2 15.2392 23 16.3847 23 17.6809Z" fill="#0F122B"/>
<path d="M21.3666 13.1593C21.3666 14.0334 20.5999 14.7268 19.6332 14.7268C18.8332 14.7268 18.1666 14.2445 17.9666 13.5813C17.9666 13.4607 17.9332 13.3401 17.8999 13.2196V13.1894C17.8999 12.3152 18.6666 11.6219 19.6332 11.6219C20.5999 11.6219 21.3666 12.2851 21.3666 13.1593Z" fill="#0F122B"/>
<path d="M12.6333 15.4502C11.3667 16.0833 10.4333 17.2287 10.0667 18.5249C9 18.4948 8 18.2235 7 17.7412C7 16.445 7.8 15.2995 8.93333 14.7871C9.33333 15.0885 9.83333 15.2694 10.3667 15.2694C10.9 15.2694 11.4333 15.0885 11.8 14.7871C12 14.8775 12.2 14.9981 12.3667 15.1187C12.4667 15.2392 12.5333 15.3297 12.6333 15.4502Z" fill="#0F122B"/>
<path d="M12.1334 13.2196V13.2497C12.1001 13.3703 12.1001 13.4908 12.0667 13.6114C11.8667 14.2746 11.2001 14.7569 10.4001 14.7569C9.43341 14.7569 8.66675 14.0636 8.66675 13.1894C8.66675 12.3152 9.43341 11.6219 10.4001 11.6219C11.3667 11.6219 12.1334 12.3454 12.1334 13.2196Z" fill="#0F122B"/>
</svg>
