<svg width="30" height="30" viewBox="0 0 30 30" fill="none" xmlns="http://www.w3.org/2000/svg">
<circle cx="15" cy="15" r="15" fill="#ECEFF1"/>
<path d="M20.9818 8.73757H18.1643V8.36878C18.1643 8.16226 18.002 8 17.7955 8C17.589 8 17.4267 8.16226 17.4267 8.36878V8.72281H14.624C14.0487 8.72281 13.5914 9.18011 13.5914 9.75541V11.9976C13.6209 12.0271 13.6504 12.0566 13.6799 12.0861C13.7094 12.0861 13.7536 12.0861 13.8126 12.0861C13.9749 12.0861 14.1814 12.0714 14.3142 12.0419V9.77016C14.3142 9.60789 14.4469 9.46038 14.624 9.46038H20.9818C21.144 9.46038 21.2916 9.59314 21.2916 9.77016V14.9921C21.2916 15.1544 21.1588 15.3019 20.9818 15.3019H14.624C14.4617 15.3019 14.3142 15.1691 14.3142 14.9921V14.3873C14.1667 14.4021 14.0044 14.4168 13.8274 14.4168C13.7389 14.4168 13.6651 14.4168 13.5914 14.4021V14.9921C13.5914 15.5674 14.0487 16.0247 14.624 16.0247H17.4415V19.506L16.0548 20.6271C15.8926 20.7599 15.8778 20.9812 15.9958 21.1434C16.0696 21.2319 16.1728 21.2762 16.2761 21.2762C16.3499 21.2762 16.4384 21.2467 16.4974 21.1877L17.7955 20.1403L19.0936 21.1877C19.1674 21.2467 19.2411 21.2762 19.3149 21.2762C19.4181 21.2762 19.5214 21.2319 19.5952 21.1434C19.7279 20.9812 19.6984 20.7599 19.5361 20.6271L18.1495 19.506V16.01H20.967C21.5423 16.01 21.9996 15.5527 21.9996 14.9774V9.77016C22.0144 9.19486 21.5571 8.73757 20.9818 8.73757Z" fill="black"/>
<path d="M17.9431 11.1716H17.7218C16.8072 11.1716 16.0696 11.9239 16.0696 12.8385C16.0696 13.2811 16.2467 13.6941 16.5712 14.0186C16.8957 14.3432 17.3088 14.5202 17.7513 14.5202C18.6659 14.5202 19.4182 13.7826 19.4182 12.868L19.4034 12.632H18.1053C18.0316 12.632 17.9726 12.573 17.9726 12.4992V11.4224L17.9431 11.1716Z" fill="black"/>
<path d="M20.1852 12.1304L20.318 11.9828V11.8943C20.318 10.9798 19.5657 10.2422 18.6658 10.2422L18.4298 10.2569V11.8943L18.4446 12.1304H20.0967H20.1852Z" fill="black"/>
<path d="M12.2785 13.0891C12.5146 13.3251 12.7358 13.5464 12.9718 13.6496C13.6209 13.9299 14.5945 13.7381 14.7715 13.6939C15.0665 13.6349 15.2436 13.3399 15.1845 13.0448C15.1255 12.7498 14.8305 12.558 14.5355 12.6318C14.211 12.7055 13.6357 12.7498 13.3996 12.6465C13.3259 12.617 13.1636 12.44 13.0456 12.322C12.6473 11.9237 12.1458 11.4222 11.5115 11.3927L11.0394 12.6465L10.8477 11.8352H10.8624C10.9362 11.8352 10.9804 11.7762 10.9804 11.7172V11.4959C10.9804 11.4222 10.9214 11.3779 10.8624 11.3779H10.5821C10.5084 11.3779 10.4641 11.4369 10.4641 11.4959V11.7172C10.4641 11.791 10.5231 11.8352 10.5821 11.8352H10.5969L10.4051 12.6465L9.93308 11.3927C8.90049 11.4369 8.31043 12.7498 8.19242 13.2218C8.08916 13.5906 8.01541 14.8002 8.00066 15.169C7.9859 15.464 8.22193 15.7148 8.51695 15.7296H8.54645C8.82673 15.7296 9.0775 15.5083 9.09225 15.2133C9.12176 14.52 9.19551 13.6791 9.23977 13.5021C9.28402 13.3546 9.37253 13.1628 9.47579 13.0006L9.52004 15.6411L8.81198 20.6565C8.76772 21.0105 9.00374 21.3203 9.35778 21.3793C9.71181 21.4236 10.0216 21.1876 10.0806 20.8335L10.7296 16.2164L11.3787 20.8335C11.423 21.1581 11.6885 21.3793 12.013 21.3793C12.0425 21.3793 12.072 21.3793 12.1015 21.3793C12.4556 21.3351 12.6916 21.0105 12.6473 20.6565L11.9393 15.6411L11.9983 12.8088C12.0868 12.8973 12.19 13.0006 12.2785 13.0891Z" fill="black"/>
<path d="M10.7297 10.9945C11.4384 10.9945 12.013 10.4199 12.013 9.7111C12.013 9.00232 11.4384 8.42773 10.7297 8.42773C10.0209 8.42773 9.44629 9.00232 9.44629 9.7111C9.44629 10.4199 10.0209 10.9945 10.7297 10.9945Z" fill="black"/>
</svg>
