<svg width="30" height="30" viewBox="0 0 30 30" fill="none" xmlns="http://www.w3.org/2000/svg">
<circle cx="15" cy="15" r="15" fill="#ECEFF1"/>
<path d="M13.2535 11.3575C13.278 11.5424 13.3694 11.7118 13.5104 11.8338C13.6515 11.9557 13.8323 12.0218 14.0188 12.0193H14.5804C14.6255 12.0193 14.6686 12.0372 14.7004 12.069C14.7323 12.1008 14.7501 12.144 14.7501 12.189V13.8655C14.7501 13.9105 14.768 13.9537 14.7998 13.9855C14.8317 14.0173 14.8748 14.0352 14.9198 14.0352H16.3723C16.4173 14.0352 16.4605 14.0531 16.4923 14.0849C16.5241 14.1167 16.542 14.1599 16.542 14.2049V14.5171C16.5371 14.702 16.5878 14.8841 16.6874 15.0399C16.7871 15.1957 16.9312 15.3181 17.1011 15.3911C17.271 15.4642 17.4589 15.4847 17.6406 15.4498C17.8222 15.415 17.9892 15.3265 18.1201 15.1958C18.2931 15.0217 18.3901 14.7863 18.3899 14.5408V14.2015C18.3899 14.1565 18.4078 14.1133 18.4396 14.0815C18.4714 14.0497 18.5146 14.0318 18.5596 14.0318H20.1122C20.1572 14.0318 20.2004 14.0139 20.2322 13.9821C20.264 13.9503 20.2819 13.9071 20.2819 13.8621V12.3706C20.2819 12.3256 20.264 12.2824 20.2322 12.2506C20.2004 12.2188 20.1572 12.2009 20.1122 12.2009H19.6557C19.421 12.2032 19.194 12.1173 19.0196 11.9602C18.8451 11.803 18.7361 11.5861 18.714 11.3524C18.7022 11.2246 18.7172 11.0956 18.7581 10.9739C18.7989 10.8522 18.8647 10.7403 18.9513 10.6454C19.0378 10.5505 19.1432 10.4748 19.2607 10.423C19.3783 10.3712 19.5053 10.3444 19.6337 10.3445H20.1427C20.1658 10.3445 20.1885 10.3399 20.2097 10.3308C20.2309 10.3218 20.25 10.3085 20.2658 10.2919C20.2817 10.2752 20.294 10.2555 20.302 10.2339C20.31 10.2123 20.3136 10.1893 20.3124 10.1663V8.66632C20.3124 8.62132 20.2946 8.57816 20.2627 8.54633C20.2309 8.51451 20.1878 8.49664 20.1427 8.49664H18.5867C18.5417 8.49664 18.4986 8.47876 18.4667 8.44694C18.4349 8.41511 18.417 8.37195 18.417 8.32695V7.92479C18.4068 7.6866 18.305 7.46155 18.1329 7.29662C17.9607 7.13169 17.7315 7.03961 17.4931 7.03961C17.2547 7.03961 17.0255 7.13169 16.8533 7.29662C16.6812 7.46155 16.5794 7.6866 16.5692 7.92479V8.31337C16.5692 8.35838 16.5513 8.40154 16.5195 8.43336C16.4876 8.46518 16.4445 8.48306 16.3995 8.48306H14.9334C14.8884 8.48306 14.8452 8.50094 14.8134 8.53276C14.7816 8.56458 14.7637 8.60774 14.7637 8.65275V10.3309C14.7637 10.3759 14.7458 10.4191 14.714 10.4509C14.6822 10.4827 14.639 10.5006 14.594 10.5006H13.9967C13.8891 10.5005 13.7828 10.5235 13.6849 10.5681C13.5869 10.6128 13.4998 10.6779 13.4293 10.7592C13.3588 10.8405 13.3066 10.936 13.2763 11.0392C13.2459 11.1425 13.2382 11.251 13.2535 11.3575Z" fill="#0F122B"/>
<path d="M15.6461 17.417C15.6461 17.172 15.5489 16.9371 15.3758 16.7637C15.2027 16.5903 14.968 16.4927 14.723 16.4922H14.3955C14.3505 16.4922 14.3073 16.4743 14.2755 16.4425C14.2437 16.4107 14.2258 16.3675 14.2258 16.3225V14.814C14.2258 14.769 14.2079 14.7259 14.1761 14.694C14.1443 14.6622 14.1011 14.6443 14.0561 14.6443H12.6986C12.6536 14.6443 12.6105 14.6622 12.5786 14.694C12.5468 14.7259 12.529 14.769 12.529 14.814V14.8378C12.5309 15.1182 12.4272 15.3891 12.2386 15.5966C12.05 15.8041 11.7902 15.933 11.5108 15.9577C11.3585 15.9716 11.2048 15.9536 11.0598 15.9049C10.9148 15.8561 10.7815 15.7777 10.6684 15.6745C10.5554 15.5714 10.4651 15.4458 10.4033 15.3059C10.3415 15.1659 10.3095 15.0146 10.3095 14.8615V14.814C10.3095 14.769 10.2916 14.7259 10.2598 14.694C10.2279 14.6622 10.1848 14.6443 10.1398 14.6443H8.82811C8.7831 14.6443 8.73994 14.6622 8.70812 14.694C8.6763 14.7259 8.65842 14.769 8.65842 14.814V16.3158C8.65845 16.3388 8.65379 16.3615 8.64474 16.3827C8.63569 16.4039 8.62243 16.423 8.60576 16.4388C8.58909 16.4547 8.56937 16.467 8.54779 16.475C8.52622 16.4831 8.50324 16.4866 8.48025 16.4854H8.08488C7.83961 16.4854 7.60439 16.5829 7.43096 16.7563C7.25753 16.9297 7.1601 17.165 7.1601 17.4102C7.1601 17.6555 7.25753 17.8907 7.43096 18.0641C7.60439 18.2376 7.83961 18.335 8.08488 18.335H8.47346C8.49645 18.3339 8.51943 18.3374 8.54101 18.3454C8.56258 18.3534 8.5823 18.3657 8.59897 18.3816C8.61564 18.3975 8.6289 18.4166 8.63795 18.4377C8.64701 18.4589 8.65166 18.4817 8.65163 18.5047V20.0064C8.65163 20.0514 8.66951 20.0946 8.70133 20.1264C8.73315 20.1582 8.77631 20.1761 8.82132 20.1761H10.323C10.368 20.1761 10.4112 20.194 10.443 20.2258C10.4748 20.2576 10.4927 20.3008 10.4927 20.3458V21.0245C10.4927 21.146 10.5166 21.2662 10.5631 21.3784C10.6096 21.4906 10.6777 21.5926 10.7636 21.6785C10.8495 21.7643 10.9514 21.8324 11.0636 21.8789C11.1758 21.9254 11.2961 21.9493 11.4175 21.9493C11.6602 21.9539 11.895 21.8629 12.0712 21.6959C12.2474 21.5289 12.3508 21.2994 12.3593 21.0568V20.378C12.3593 20.333 12.3771 20.2899 12.409 20.258C12.4408 20.2262 12.4839 20.2083 12.529 20.2083H14.0324C14.0774 20.2083 14.1205 20.1905 14.1524 20.1586C14.1842 20.1268 14.2021 20.0837 14.2021 20.0387V18.5183C14.2021 18.4733 14.2199 18.4301 14.2518 18.3983C14.2836 18.3665 14.3267 18.3486 14.3717 18.3486H14.7111C14.834 18.3499 14.9559 18.3268 15.0697 18.2805C15.1835 18.2342 15.287 18.1657 15.374 18.079C15.4611 17.9922 15.53 17.889 15.5767 17.7754C15.6234 17.6617 15.647 17.5399 15.6461 17.417Z" fill="#0F122B"/>
<path d="M22.7185 19.1919C22.7358 19.176 22.7495 19.1568 22.7589 19.1353C22.7683 19.1138 22.7732 19.0906 22.7732 19.0672C22.7732 19.0438 22.7683 19.0206 22.7589 18.9991C22.7495 18.9777 22.7358 18.9584 22.7185 18.9425L21.6376 17.8989C21.6204 17.883 21.6067 17.8637 21.5973 17.8423C21.5879 17.8208 21.583 17.7976 21.583 17.7742C21.583 17.7508 21.5879 17.7276 21.5973 17.7061C21.6067 17.6847 21.6204 17.6654 21.6376 17.6495L21.8616 17.4068C22.0204 17.2284 22.104 16.9954 22.0949 16.7568C22.0857 16.5181 21.9846 16.2922 21.8127 16.1264C21.6407 15.9606 21.4113 15.8678 21.1725 15.8673C20.9336 15.8669 20.7038 15.9589 20.5313 16.124L20.3005 16.365C20.2669 16.3977 20.2219 16.416 20.175 16.416C20.128 16.416 20.083 16.3977 20.0494 16.365L18.977 15.335C18.9436 15.3018 18.8985 15.2832 18.8514 15.2832C18.8044 15.2832 18.7592 15.3018 18.7258 15.335L17.7858 16.309C17.7531 16.3423 17.7348 16.387 17.7348 16.4337C17.7348 16.4803 17.7531 16.5251 17.7858 16.5584L17.8197 16.5923C17.9277 16.6916 18.0146 16.8115 18.0756 16.9449C18.1365 17.0783 18.1701 17.2225 18.1744 17.3691C18.1788 17.5157 18.1538 17.6616 18.1008 17.7984C18.0479 17.9352 17.9682 18.06 17.8663 18.1655C17.7645 18.2709 17.6425 18.355 17.5077 18.4126C17.3728 18.4703 17.2278 18.5004 17.0812 18.5012C16.9346 18.502 16.7892 18.4734 16.6538 18.4172C16.5184 18.361 16.3955 18.2782 16.2925 18.1738L16.2586 18.1416C16.2252 18.1084 16.1801 18.0898 16.133 18.0898C16.086 18.0898 16.0409 18.1084 16.0075 18.1416L15.1047 19.0681C15.0716 19.1014 15.053 19.1466 15.053 19.1936C15.053 19.2407 15.0716 19.2858 15.1047 19.3192L16.1856 20.3611C16.2188 20.3944 16.2374 20.4396 16.2374 20.4866C16.2374 20.5337 16.2188 20.5788 16.1856 20.6122L15.9226 20.899C15.8326 20.9851 15.761 21.0885 15.7119 21.203C15.6629 21.3175 15.6375 21.4408 15.6373 21.5653C15.6371 21.6899 15.662 21.8132 15.7106 21.9279C15.7592 22.0426 15.8305 22.1463 15.9201 22.2328C16.0098 22.3192 16.116 22.3867 16.2324 22.4311C16.3488 22.4755 16.4729 22.4959 16.5974 22.4912C16.7219 22.4864 16.8441 22.4565 16.9568 22.4034C17.0694 22.3502 17.1702 22.2748 17.253 22.1818L17.5228 21.9018C17.5387 21.8846 17.5579 21.8708 17.5794 21.8614C17.6009 21.852 17.6241 21.8472 17.6475 21.8472C17.6709 21.8472 17.6941 21.852 17.7156 21.8614C17.737 21.8708 17.7563 21.8846 17.7722 21.9018L18.8531 22.9454C18.869 22.9626 18.8883 22.9763 18.9097 22.9857C18.9312 22.9951 18.9544 23 18.9778 23C19.0013 23 19.0244 22.9951 19.0459 22.9857C19.0674 22.9763 19.0867 22.9626 19.1025 22.9454L20.1207 21.8848C20.1365 21.8676 20.1558 21.8539 20.1773 21.8445C20.1988 21.8351 20.2219 21.8302 20.2454 21.8302C20.2688 21.8302 20.292 21.8351 20.3135 21.8445C20.3349 21.8539 20.3542 21.8676 20.3701 21.8848L20.6365 22.1428C20.8139 22.3079 21.049 22.3968 21.2913 22.3903C21.5335 22.3839 21.7636 22.2826 21.9319 22.1082C22.1002 21.9339 22.1934 21.7005 22.1914 21.4581C22.1893 21.2158 22.0923 20.9839 21.921 20.8124L21.6546 20.5545C21.6374 20.5386 21.6236 20.5193 21.6142 20.4979C21.6048 20.4764 21.6 20.4532 21.6 20.4298C21.6 20.4064 21.6048 20.3832 21.6142 20.3617C21.6236 20.3402 21.6374 20.321 21.6546 20.3051L22.7185 19.1919Z" fill="#0F122B"/>
<path d="M7.96439 12.1941H8.45648C8.50148 12.1941 8.54464 12.212 8.57647 12.2438C8.60829 12.2756 8.62617 12.3188 8.62617 12.3638V13.8655C8.62617 13.9105 8.64404 13.9536 8.67587 13.9855C8.70769 14.0173 8.75085 14.0352 8.79585 14.0352H10.4723C10.5173 14.0352 10.5605 14.053 10.5923 14.0849C10.6242 14.1167 10.642 14.1599 10.642 14.2049V14.5256C10.64 14.7097 10.7056 14.8882 10.8263 15.0274C10.9469 15.1665 11.1144 15.2566 11.297 15.2807C11.4006 15.2926 11.5056 15.2825 11.605 15.2511C11.7045 15.2196 11.7961 15.1675 11.874 15.0981C11.9519 15.0287 12.0142 14.9437 12.0569 14.8485C12.0996 14.7533 12.1217 14.6502 12.1217 14.5459V14.2066C12.1217 14.1615 12.1396 14.1184 12.1714 14.0866C12.2032 14.0547 12.2464 14.0369 12.2914 14.0369H13.9882C14.0332 14.0369 14.0764 14.019 14.1082 13.9872C14.14 13.9553 14.1579 13.9122 14.1579 13.8672V12.547C14.1579 12.502 14.14 12.4589 14.1082 12.427C14.0764 12.3952 14.0332 12.3773 13.9882 12.3773H13.6964C13.5435 12.377 13.3924 12.3449 13.2526 12.283C13.1128 12.2211 12.9875 12.1307 12.8845 12.0177C12.7816 11.9047 12.7033 11.7715 12.6546 11.6266C12.606 11.4817 12.588 11.3282 12.6019 11.176C12.6293 10.8996 12.7587 10.6435 12.9649 10.4574C13.171 10.2714 13.4391 10.1688 13.7167 10.1697H14.0018C14.0468 10.1697 14.09 10.1519 14.1218 10.12C14.1536 10.0882 14.1715 10.045 14.1715 10V8.66631C14.1715 8.62131 14.1536 8.57815 14.1218 8.54633C14.09 8.51451 14.0468 8.49663 14.0018 8.49663H12.5052C12.4602 8.49663 12.417 8.47875 12.3852 8.44693C12.3534 8.41511 12.3355 8.37195 12.3355 8.32694V7.92479C12.3355 7.67952 12.2381 7.44429 12.0646 7.27086C11.8912 7.09743 11.656 7 11.4107 7C11.1654 7 10.9302 7.09743 10.7568 7.27086C10.5834 7.44429 10.4859 7.67952 10.4859 7.92479V8.31337C10.4859 8.35837 10.468 8.40153 10.4362 8.43335C10.4044 8.46518 10.3612 8.48305 10.3162 8.48305H8.79585C8.75085 8.48305 8.70769 8.50093 8.67587 8.53275C8.64404 8.56457 8.62617 8.60774 8.62617 8.65274V10.1545C8.62732 10.1774 8.62378 10.2004 8.61577 10.222C8.60776 10.2436 8.59544 10.2633 8.57957 10.28C8.56369 10.2966 8.5446 10.3099 8.52344 10.3189C8.50228 10.328 8.4795 10.3327 8.45648 10.3326H7.96439C7.83973 10.3273 7.71527 10.3472 7.59851 10.3912C7.48176 10.4353 7.37512 10.5025 7.28502 10.5888C7.19492 10.6751 7.12322 10.7788 7.07423 10.8935C7.02525 11.0083 7 11.1318 7 11.2566C7 11.3813 7.02525 11.5048 7.07423 11.6196C7.12322 11.7344 7.19492 11.838 7.28502 11.9243C7.37512 12.0107 7.48176 12.0779 7.59851 12.1219C7.71527 12.1659 7.83973 12.1858 7.96439 12.1805V12.1941Z" fill="#0F122B"/>
</svg>
