<svg width="25" height="25" viewBox="0 0 25 25" fill="none" xmlns="http://www.w3.org/2000/svg">
    <path d="M4.82592 2.14487H4.28969V0.53623C4.28969 0.24024 4.0495 0 3.75351 0C3.45752 0 3.21728 0.24024 3.21728 0.53623V2.14487H2.68105C1.20221 2.14487 0 3.34703 0 4.82592V6.97079C0 8.44964 1.20221 9.65184 2.68105 9.65184H3.21728V24.1296C3.21728 24.4256 3.45752 24.6658 3.75351 24.6658C4.0495 24.6658 4.28969 24.4256 4.28969 24.1296V9.65184H4.82592C6.30482 9.65184 7.50697 8.44964 7.50697 6.97079V4.82592C7.50697 3.34703 6.30482 2.14487 4.82592 2.14487Z" fill="#F8F8F8"/>
    <path d="M21.9861 15.014H21.4498V0.53623C21.4499 0.24024 21.2097 0 20.9137 0C20.6177 0 20.3774 0.24024 20.3774 0.53623V15.014H19.8412C18.3623 15.014 17.1602 16.2162 17.1602 17.695V19.8399C17.1602 21.3188 18.3624 22.521 19.8412 22.521H20.3774V24.1296C20.3774 24.4256 20.6177 24.6658 20.9137 24.6658C21.2097 24.6658 21.4499 24.4256 21.4499 24.1296V22.521H21.9861C23.465 22.521 24.6672 21.3188 24.6672 19.8399V17.695C24.6672 16.2162 23.465 15.014 21.9861 15.014Z" fill="#F8F8F8"/>
    <path d="M13.404 8.57943H12.8678V0.53623C12.8678 0.24024 12.6276 0 12.3316 0C12.0356 0 11.7954 0.24024 11.7954 0.53623V8.57943H11.2592C9.78028 8.57943 8.57812 9.78164 8.57812 11.2605V13.4054C8.57812 14.8842 9.78028 16.0864 11.2592 16.0864H11.7954V24.1296C11.7954 24.4256 12.0356 24.6658 12.3316 24.6658C12.6276 24.6658 12.8678 24.4256 12.8678 24.1296V16.0864H13.404C14.8829 16.0864 16.0851 14.8842 16.0851 13.4054V11.2605C16.0851 9.78159 14.8829 8.57943 13.404 8.57943Z" fill="#F8F8F8"/>
</svg>
