<svg width="93" height="87" viewBox="0 0 93 87" fill="none" xmlns="http://www.w3.org/2000/svg">
<path d="M91.3537 78.3833H85.454V28.9375C85.454 25.7875 82.8914 23.2249 79.7414 23.2249H62.3235C61.5735 23.2249 60.9654 23.8329 60.9654 24.5829C60.9654 25.333 61.5735 25.941 62.3235 25.941H79.7414C81.3937 25.941 82.7378 27.2853 82.7378 28.9375V78.3835H78.0894C78.1595 77.8707 78.1962 77.3546 78.1962 76.8385C78.1962 70.487 73.0288 65.3196 66.6773 65.3196C65.8234 65.3196 64.9707 65.4172 64.1301 65.6104C62.6648 62.7871 59.746 60.9649 56.5167 60.9649C55.4632 60.9649 54.4399 61.157 53.4766 61.5302C53.0809 57.9514 50.0385 55.1586 46.3559 55.1586C42.6733 55.1586 39.6308 57.9514 39.2352 61.5302C38.2719 61.157 37.2486 60.9649 36.1951 60.9649C32.9657 60.9649 30.0468 62.7871 28.5817 65.6104C27.7409 65.417 26.8884 65.3196 26.0344 65.3196C19.6828 65.3196 14.5156 70.487 14.5156 76.8385C14.5156 77.3548 14.5523 77.8707 14.6224 78.3835H9.97394V28.9375C9.97394 27.2852 11.3181 25.941 12.9704 25.941H30.3888C31.1388 25.941 31.7469 25.333 31.7469 24.5829C31.7469 23.8329 31.1388 23.2249 30.3888 23.2249H12.9704C9.82039 23.2249 7.25778 25.7876 7.25778 28.9375V78.3835H1.35808C0.608059 78.3835 0 78.9915 0 79.7416V82.6446C0 84.9943 1.91164 86.9057 4.26112 86.9057H88.4507C90.8003 86.9057 92.7118 84.9941 92.7118 82.6446V79.7416C92.7118 78.9913 92.1037 78.3833 91.3537 78.3833ZM89.9956 82.6446C89.9956 83.4966 89.3025 84.1896 88.4507 84.1896H4.26112C3.40915 84.1896 2.71617 83.4964 2.71617 82.6446V81.0996H20.2276C20.9777 81.0996 21.5857 80.4916 21.5857 79.7416C21.5857 78.9915 20.9777 78.3835 20.2276 78.3835H17.3706C17.2784 77.8716 17.2315 77.3548 17.2315 76.8385C17.2315 71.9847 21.1805 68.0358 26.0343 68.0358C27.001 68.0358 27.9691 68.2013 28.9116 68.5276C29.2529 68.6458 29.627 68.6232 29.9517 68.4649C30.2762 68.3065 30.5243 68.0255 30.6412 67.6838C31.4599 65.2897 33.6919 63.6812 36.1953 63.6812C37.568 63.6812 38.8718 64.1671 39.9658 65.0864C40.4278 65.4744 41.0902 65.5114 41.5923 65.1769C42.0944 64.8425 42.3157 64.217 42.1357 63.6414C41.9803 63.1442 41.9079 62.7253 41.9079 62.3232C41.9079 59.8705 43.9034 57.8752 46.3559 57.8752C48.8084 57.8752 50.8039 59.8706 50.8039 62.3232C50.8039 62.7253 50.7315 63.1442 50.5761 63.6414C50.3961 64.2172 50.6176 64.8427 51.1195 65.1769C51.6216 65.5112 52.284 65.4744 52.7459 65.0864C53.84 64.1672 55.144 63.6812 56.5165 63.6812C59.0199 63.6812 61.2519 65.2897 62.0705 67.6838C62.1875 68.0255 62.4356 68.3065 62.7601 68.4649C63.0848 68.6234 63.459 68.646 63.8002 68.5276C64.7427 68.2013 65.7106 68.0358 66.6775 68.0358C71.5315 68.0358 75.4802 71.9847 75.4802 76.8385C75.4802 77.3548 75.4332 77.8716 75.3412 78.3835H26.0348C25.2848 78.3835 24.6767 78.9915 24.6767 79.7416C24.6767 80.4916 25.2848 81.0996 26.0348 81.0996H89.9956V82.6446Z" fill="white"/>
<path d="M28.9041 39.9207C28.0503 40.9452 27.5801 42.2441 27.5801 43.5779V47.8075C27.5801 48.2903 27.8365 48.7368 28.2533 48.9803C28.4648 49.1038 28.7015 49.1656 28.9382 49.1656C29.1683 49.1656 29.3985 49.1073 29.6056 48.9903L39.277 43.5332C39.6455 44.2061 40.0362 44.8681 40.4489 45.518L39.2332 50.3812C39.1316 50.787 39.2228 51.2167 39.4801 51.5464C39.7375 51.8761 40.1324 52.0688 40.5507 52.0688H52.163C52.5813 52.0688 52.976 51.8761 53.2335 51.5464C53.4908 51.2168 53.5821 50.787 53.4805 50.3812L52.2648 45.518C52.6774 44.8681 53.0682 44.2062 53.4367 43.5332L63.1081 48.9903C63.3154 49.1073 63.5454 49.1656 63.7755 49.1656C64.0122 49.1656 64.2489 49.1037 64.4604 48.9803C64.8772 48.737 65.1336 48.2904 65.1336 47.8075V43.5779C65.1336 42.2441 64.6633 40.9452 63.8096 39.9207L57.3625 32.1867C57.702 30.1693 57.8758 28.1124 57.8758 26.0344C57.8758 21.0817 56.917 16.2944 55.026 11.8056C53.2022 7.47643 50.6061 3.63577 47.3098 0.390313C46.7812 -0.130104 45.9328 -0.130104 45.4043 0.390313C42.1079 3.63559 39.5118 7.47625 37.688 11.8056C35.797 16.2945 34.8382 21.0817 34.8382 26.0344C34.8382 28.1091 35.0115 30.1629 35.3499 32.1772L28.9041 39.9207ZM30.2962 45.4817V43.5779C30.2962 42.8782 30.5429 42.197 30.9907 41.6596L36.0811 35.5511C36.5898 37.4538 37.2509 39.3095 38.0614 41.1004L30.2962 45.4817ZM42.2899 49.3525L43.0624 46.2626H49.6509L50.4234 49.3525H42.2899ZM61.7225 41.6596C62.1703 42.197 62.4169 42.8782 62.4169 43.5779V45.4817L54.6517 41.1002C55.4621 39.3093 56.1234 37.4538 56.632 35.5509L61.7225 41.6596ZM46.3566 3.30603C48.6372 5.75764 50.5183 8.56869 51.9479 11.6124H40.7652C42.1949 8.56869 44.0759 5.75764 46.3566 3.30603ZM39.6335 14.3284H53.0794C54.4373 18.0305 55.1591 21.9996 55.1591 26.0342C55.1591 32.2792 53.4791 38.3172 50.2932 43.5462H42.4198C39.2339 38.3172 37.5538 32.2792 37.5538 26.0342C37.5538 21.9996 38.2758 18.0307 39.6335 14.3284Z" fill="white"/>
<path d="M52.0688 24.5828C52.0688 21.4327 49.5062 18.8701 46.3562 18.8701C43.2062 18.8701 40.6436 21.4329 40.6436 24.5828C40.6436 27.7326 43.2062 30.2954 46.3562 30.2954C49.5062 30.2954 52.0688 27.7328 52.0688 24.5828ZM43.3597 24.5828C43.3597 22.9304 44.7039 21.5863 46.3562 21.5863C48.0085 21.5863 49.3527 22.9306 49.3527 24.5828C49.3527 26.2349 48.0085 27.5792 46.3562 27.5792C44.7039 27.5792 43.3597 26.2351 43.3597 24.5828Z" fill="white"/>
</svg>
