<svg width="16" height="16" viewBox="0 0 16 16" fill="none" xmlns="http://www.w3.org/2000/svg">
<path d="M13.6204 10.1761C13.0254 10.1761 12.4932 10.4579 12.1487 10.8963L9.8317 9.58121C9.98826 9.20548 10.0822 8.79843 10.0822 8.36008C10.0822 7.92172 9.98826 7.51468 9.8317 7.13894L12.1174 5.82387C12.3679 6.10568 12.7123 6.26223 13.1194 6.26223C13.8708 6.26223 14.4658 5.66732 14.4658 4.91585C14.4658 4.16438 13.8708 3.56947 13.1194 3.56947C12.3679 3.56947 11.773 4.16438 11.773 4.91585C11.773 5.07241 11.8043 5.19765 11.8356 5.3229L9.51859 6.66928C9.42466 6.54403 9.33072 6.41879 9.20548 6.29354C8.73581 5.82387 8.10959 5.51076 7.42074 5.44814V3.66341C8.29746 3.53816 8.9863 2.75538 8.9863 1.84736C8.9863 0.845401 8.17221 0 7.13894 0C6.10567 0 5.29159 0.81409 5.29159 1.84736C5.29159 2.75538 5.98043 3.53816 6.85714 3.66341V5.44814C6.1683 5.51076 5.54207 5.79256 5.07241 6.29354C4.94716 6.41879 4.85323 6.54403 4.7593 6.66928L3.13112 5.72994C3.16243 5.6047 3.19374 5.44814 3.19374 5.3229C3.19374 4.57143 2.59883 3.97652 1.84736 3.97652C1.09589 3.97652 0.500978 4.57143 0.500978 5.3229C0.500978 6.07436 1.09589 6.66928 1.84736 6.66928C2.2544 6.66928 2.59883 6.48141 2.84931 6.23092L4.4775 7.17025C4.32094 7.54599 4.22701 7.95303 4.22701 8.39139C4.22701 8.82975 4.32094 9.23679 4.4775 9.61252L3.28767 10.3014C2.94325 9.86301 2.41096 9.58121 1.84736 9.58121C0.845401 9.58121 0 10.3953 0 11.4286C0 12.4618 0.81409 13.2759 1.84736 13.2759C2.88063 13.2759 3.69472 12.4618 3.69472 11.4286C3.69472 11.2094 3.66341 10.9589 3.56947 10.771L4.7593 10.0822C4.85323 10.2074 4.94716 10.3327 5.07241 10.4579C5.54207 10.9276 6.1683 11.2407 6.85714 11.3033V13.3386C6.23092 13.4638 5.79256 14.0274 5.79256 14.6536C5.79256 15.4051 6.38748 16 7.13894 16C7.89041 16 8.48532 15.4051 8.48532 14.6536C8.48532 13.9961 8.01566 13.4638 7.42074 13.3386V11.3033C8.10959 11.2407 8.73581 10.9589 9.20548 10.4579C9.33072 10.3327 9.42466 10.2074 9.51859 10.0822L11.8669 11.4286C11.8043 11.6164 11.773 11.8356 11.773 12.0235C11.773 13.0254 12.5871 13.8708 13.6204 13.8708C14.6223 13.8708 15.4677 13.0568 15.4677 12.0235C15.4677 10.9902 14.6223 10.1761 13.6204 10.1761Z" fill="#5E6072"/>
</svg>
