<svg width="30" height="30" viewBox="0 0 30 30" fill="none" xmlns="http://www.w3.org/2000/svg">
<circle cx="15" cy="15" r="15" fill="#ECEFF1"/>
<path d="M19.8439 16.478L20.0782 16.7123C20.2076 16.8417 20.2076 17.0515 20.0782 17.1809L19.1995 18.0595C19.1672 18.0918 19.1672 18.1443 19.1995 18.1766L20.0782 19.0553C20.2076 19.1847 20.2076 19.3944 20.0782 19.5238L19.8439 19.7581C19.7145 19.8875 19.5047 19.8875 19.3753 19.7581L18.4967 18.8795C18.4644 18.8472 18.4119 18.8472 18.3796 18.8795L17.5009 19.7581C17.3715 19.8875 17.1618 19.8875 17.0324 19.7581L16.7981 19.5238C16.6687 19.3944 16.6687 19.1847 16.7981 19.0553L17.6767 18.1766C17.709 18.1443 17.709 18.0918 17.6767 18.0595L16.7981 17.1809C16.6687 17.0515 16.6687 16.8417 16.7981 16.7123L17.0324 16.478C17.1618 16.3486 17.3715 16.3486 17.5009 16.478L18.3796 17.3567C18.4119 17.389 18.4644 17.389 18.4967 17.3567L19.3753 16.478C19.5047 16.3485 19.7145 16.3485 19.8439 16.478Z" fill="black"/>
<path d="M21.9534 10.8252L20.3802 8.16279C20.252 7.94574 19.9378 7.94574 19.8096 8.16279L18.2364 10.8252C18.1059 11.046 18.2651 11.325 18.5217 11.325H19.515C19.5607 11.325 19.5978 11.3622 19.5978 11.4079V11.9878C19.5978 13.0858 18.7076 13.976 17.6096 13.976H12.6391C10.992 13.976 9.65675 15.3113 9.65675 16.9583V17.2866C9.65675 17.3238 9.6314 17.3555 9.59545 17.3651C8.60697 17.63 7.89817 18.5784 8.012 19.6739C8.11505 20.6662 8.91598 21.4736 9.90743 21.5838C11.2072 21.7281 12.3077 20.7144 12.3077 19.4436C12.3077 18.4475 11.6307 17.6115 10.7123 17.3653C10.6762 17.3555 10.6509 17.3237 10.6509 17.2864V16.9583C10.6509 15.8603 11.5411 14.9701 12.6391 14.9701H17.6096C19.2567 14.9701 20.592 13.6349 20.592 11.9878V11.4079C20.592 11.3622 20.6291 11.325 20.6748 11.325H21.6681C21.9247 11.325 22.084 11.046 21.9534 10.8252ZM11.3136 19.4436C11.3136 20.0832 10.7934 20.6034 10.1538 20.6034C9.51426 20.6034 8.99401 20.0832 8.99401 19.4436C8.99401 18.8041 9.51426 18.2838 10.1538 18.2838C10.7934 18.2838 11.3136 18.8041 11.3136 19.4436Z" fill="black"/>
<path d="M13.2165 9.18799L13.4508 9.42227C13.5802 9.55167 13.5802 9.76143 13.4508 9.89083L12.5722 10.7695C12.5398 10.8018 12.5398 10.8543 12.5722 10.8866L13.4508 11.7652C13.5802 11.8946 13.5802 12.1044 13.4508 12.2338L13.2165 12.4681C13.0871 12.5975 12.8773 12.5975 12.7479 12.4681L11.8693 11.5894C11.837 11.5571 11.7845 11.5571 11.7522 11.5894L10.8736 12.4681C10.7442 12.5975 10.5344 12.5975 10.405 12.4681L10.1707 12.2338C10.0413 12.1044 10.0413 11.8946 10.1707 11.7652L11.0493 10.8866C11.0817 10.8543 11.0817 10.8018 11.0493 10.7695L10.1707 9.89083C10.0413 9.76143 10.0413 9.55167 10.1707 9.42227L10.405 9.18799C10.5344 9.05859 10.7442 9.05859 10.8736 9.18799L11.7522 10.0666C11.7845 10.0989 11.837 10.0989 11.8693 10.0666L12.7479 9.18799C12.8773 9.05843 13.0871 9.05843 13.2165 9.18799Z" fill="black"/>
</svg>
