<svg width="30" height="30" viewBox="0 0 30 30" fill="none" xmlns="http://www.w3.org/2000/svg">
<circle cx="15" cy="15" r="15" fill="#ECEFF1"/>
<path d="M17.9501 12.0727C18.6202 12.0727 19.1636 11.2962 19.1636 10.6264C19.1636 9.95625 18.6202 9.41351 17.9501 9.41351C17.2807 9.41351 16.7379 9.95625 16.7379 10.6264C16.7379 11.2959 17.2807 12.0727 17.9501 12.0727Z" fill="black"/>
<path d="M21.1073 17.1166H20.8382V16.9127C21.0354 16.8188 21.1525 16.6064 21.1043 16.3844L20.3365 12.93C20.332 12.9132 20.3216 12.9005 20.3155 12.8832C20.3052 12.8524 20.2928 12.8236 20.2766 12.7955C20.2604 12.7686 20.2427 12.7441 20.2217 12.7211C20.2038 12.6992 20.1831 12.6793 20.1596 12.6612C20.1315 12.6394 20.1032 12.6233 20.0728 12.608C20.058 12.601 20.0476 12.5892 20.0319 12.583C19.9877 12.5674 19.0168 12.2191 18.1267 12.1756L18.013 12.4038H18.01L18.3326 14.9196L17.9495 15.5894L17.5654 14.9196L17.8884 12.4038H17.8852L17.7711 12.1756C16.8808 12.2191 15.9105 12.5676 15.8671 12.583C15.864 12.5848 15.8622 12.5864 15.8594 12.5878C15.8308 12.5984 15.8062 12.62 15.7786 12.6359C15.7504 12.6534 15.7218 12.6678 15.6988 12.6895C15.6958 12.6919 15.6935 12.6928 15.6902 12.6951L15.1604 13.2251V8.46262C15.1608 8.20798 14.9527 8 14.6981 8H8.46262C8.20829 8 8 8.20782 8 8.46262V21.5371C8 21.7914 8.20829 21.9998 8.46262 21.9998H14.6981C14.9527 21.9998 15.1608 21.7914 15.1608 21.5371V14.5823L16.2903 13.4533C16.363 13.4287 16.473 13.3944 16.6055 13.357V16.631L16.2242 21.3778C16.1981 21.6956 16.4348 21.9729 16.7516 21.9975C16.7685 21.9997 16.7834 22 16.7992 22C17.0969 22 17.3484 21.7724 17.3719 21.4702L17.718 17.1806C17.7885 17.2115 17.8666 17.2307 17.9501 17.2307C18.0324 17.2307 18.1117 17.2115 18.1822 17.1806L18.5274 21.4702C18.5516 21.7724 18.8038 22 19.1 22C19.1155 22 19.1316 21.9997 19.1471 21.9975C19.4646 21.9729 19.6995 21.6956 19.6749 21.3778L19.2936 16.631V13.357C19.3543 13.374 19.4106 13.3903 19.4588 13.4052L20.1688 16.5923C20.2131 16.799 20.3884 16.939 20.588 16.9603V17.1171H20.3189C20.2363 17.1171 20.1688 17.1851 20.1688 17.2671V20.0075C20.1688 20.0901 20.2366 20.1579 20.3189 20.1579H21.1073C21.1905 20.1579 21.2574 20.0901 21.2574 20.0075V17.2671C21.2574 17.1851 21.1906 17.1166 21.1073 17.1166ZM13.5174 15.9193C13.1092 15.9193 12.7785 15.5885 12.7785 15.1804C12.7785 14.7727 13.1092 14.4417 13.5174 14.4417C13.6406 14.4417 13.7554 14.4752 13.8578 14.5287L13.7727 14.6139C13.5854 14.8006 13.5854 15.1044 13.7727 15.2918C13.8666 15.3858 13.9892 15.4331 14.1116 15.4331C14.1465 15.4331 14.1798 15.4203 14.2144 15.4133C14.1168 15.7061 13.8428 15.9193 13.5174 15.9193Z" fill="black"/>
</svg>
