<svg width="30" height="30" viewBox="0 0 30 30" fill="none" xmlns="http://www.w3.org/2000/svg">
<circle cx="15" cy="15" r="15" fill="#ECEFF1"/>
<path d="M19.9573 12.9491C19.5063 12.9491 19.0791 13.0962 18.7259 13.3638L16.6264 11.2678C16.8863 10.9257 17.0427 10.5008 17.0427 10.0393C17.0427 8.91491 16.1265 8 15 8C13.8735 8 12.9573 8.91491 12.9573 10.0393C12.9573 10.5008 13.1134 10.9257 13.3733 11.2678L11.2732 13.3647C10.9305 13.1053 10.505 12.9491 10.0427 12.9491C8.91642 12.9491 8 13.8641 8 14.9884C8 16.1128 8.91642 17.0277 10.0427 17.0277C10.505 17.0277 10.9305 16.8716 11.2732 16.6122L13.3736 18.709C13.1137 19.0512 12.9573 19.476 12.9573 19.9379C12.9573 21.0622 13.8738 21.9771 15 21.9771C16.1262 21.9771 17.0427 21.0625 17.0427 19.9379C17.0427 19.4763 16.8863 19.0512 16.6264 18.709L18.7262 16.6127C19.0791 16.8806 19.5069 17.0277 19.9576 17.0277C21.0836 17.0277 22 16.1131 22 14.9884C22 13.8638 21.0839 12.9491 19.9573 12.9491ZM17.9218 14.8473H17.0353C16.9655 13.8355 16.1548 13.0259 15.1414 12.9562V12.0715C15.6472 12.0365 16.1033 11.8194 16.4418 11.4826L18.511 13.5487C18.1601 13.9002 17.9548 14.3569 17.9218 14.8473ZM13.5582 11.4824C13.8967 11.8194 14.3528 12.0365 14.8586 12.0715V12.9559C14.3663 12.9895 13.908 13.1947 13.5557 13.5465C13.2033 13.8982 12.9978 14.3561 12.9644 14.8473H12.0782C12.0435 14.3423 11.8257 13.8866 11.4884 13.5487L13.5582 11.4824ZM12.0782 15.1296H12.9644C12.9978 15.6208 13.2033 16.0786 13.5559 16.4304C13.9083 16.7818 14.3669 16.9876 14.8589 17.0209V17.9054C14.353 17.9401 13.897 18.1574 13.5585 18.4942L11.4884 16.4278C11.8257 16.0899 12.0432 15.6346 12.0782 15.1296ZM16.4415 18.4945C16.1036 18.1577 15.6472 17.9404 15.1417 17.9054V17.0207C16.1548 16.9509 16.9655 16.1413 17.0353 15.1296H17.9218C17.9548 15.6196 18.1601 16.0767 18.5113 16.4281L16.4415 18.4945Z" fill="black"/>
</svg>
