<svg width="14" height="14" viewBox="0 0 14 14" fill="none" xmlns="http://www.w3.org/2000/svg">
<path d="M13.3739 13.5051H13.2579V10.7969H11.0605V13.5051H10.565V8.87416L6.81083 5.70624L3.09178 8.84429V13.5045H2.5963V10.7963H0.363119V13.5045H0.247741C0.111278 13.5045 0 13.6158 0 13.7523C0 13.8887 0.111278 14 0.247741 14H13.3733C13.5098 14 13.6211 13.8887 13.6211 13.7523C13.6217 13.6164 13.5104 13.5051 13.3739 13.5051ZM6.81083 7.05798C7.4867 7.05798 8.03606 7.60793 8.03606 8.28321C8.03606 8.9585 7.4867 9.50903 6.81083 9.50903C6.13496 9.50903 5.58559 8.95908 5.58559 8.2838C5.58559 7.60851 6.13496 7.05798 6.81083 7.05798ZM8.13914 13.5051V10.7021H5.48251V13.5051H4.98762V10.4543C4.98762 10.3179 5.0989 10.2066 5.23536 10.2066H8.38688C8.52334 10.2066 8.63462 10.3179 8.63462 10.4543V13.5051H8.13914Z" fill="black"/>
<path d="M6.81081 9.01297C7.21317 9.01297 7.54057 8.68558 7.54057 8.28322C7.54057 7.88086 7.21317 7.55347 6.81081 7.55347C6.40845 7.55347 6.08047 7.88086 6.08047 8.28322C6.08047 8.68558 6.40845 9.01297 6.81081 9.01297Z" fill="black"/>
<path d="M6.46761 5.34781C6.23042 5.3197 6.00142 5.26874 5.78472 5.18733L2.06274 8.48176H2.75326L6.46761 5.34781Z" fill="black"/>
<path d="M6.81084 4.8863C8.15848 4.8863 9.25428 3.7905 9.25428 2.44344C9.25428 1.09639 8.15848 0 6.81084 0C5.4632 0 4.3674 1.0958 4.3674 2.44285C4.3674 3.78991 5.4632 4.8863 6.81084 4.8863ZM7.28055 2.67771H6.34172C5.95341 2.67771 5.63715 2.36203 5.63715 1.97314V1.73829C5.63715 1.34998 5.95283 1.03372 6.34172 1.03372H6.56369V0.854501C6.56369 0.718039 6.67497 0.60676 6.81143 0.60676C6.94789 0.60676 7.05917 0.718039 7.05917 0.854501V1.0343H7.28114C7.66944 1.0343 7.98571 1.34998 7.98571 1.73887H7.516C7.516 1.60944 7.41057 1.50402 7.28114 1.50402H6.3423C6.21287 1.50402 6.10744 1.60944 6.10744 1.73887V1.97373C6.10744 2.10316 6.21287 2.20858 6.3423 2.20858H7.28114C7.66944 2.20858 7.98571 2.52426 7.98571 2.91315V3.14684C7.98571 3.53514 7.67003 3.85141 7.28114 3.85141H7.05917V4.03121C7.05917 4.16767 6.94789 4.27895 6.81143 4.27895C6.67497 4.27895 6.56369 4.16767 6.56369 4.03121V3.85141H6.34172C5.95341 3.85141 5.63715 3.53573 5.63715 3.14684H6.10686C6.10686 3.27627 6.21228 3.38169 6.34172 3.38169H7.28055C7.40999 3.38169 7.51541 3.27627 7.51541 3.14684V2.91257C7.51541 2.78255 7.40999 2.67771 7.28055 2.67771Z" fill="black"/>
<path d="M2.59631 9.84112H0.363129V10.3015H2.59631V9.84112Z" fill="black"/>
<path d="M13.2579 9.84112H11.0605V10.3015H13.2579V9.84112Z" fill="black"/>
<path d="M7.15402 5.34781L10.8684 8.48176H11.5589L7.83692 5.18733C7.62022 5.26874 7.39122 5.3197 7.15402 5.34781Z" fill="black"/>
<path d="M0.414092 3.36354H0.551141V3.5C0.551141 3.63646 0.662419 3.74774 0.798882 3.74774C0.935344 3.74774 1.04662 3.63646 1.04662 3.5V3.36354H1.18367C1.32013 3.36354 1.43141 3.25226 1.43141 3.1158C1.43141 2.97934 1.32013 2.86806 1.18367 2.86806H1.04662V2.73101C1.04662 2.59455 0.935344 2.48327 0.798882 2.48327C0.662419 2.48327 0.551726 2.59455 0.551726 2.73101V2.86747H0.414092C0.27763 2.86747 0.166351 2.97875 0.166351 3.11521C0.166351 3.25168 0.27763 3.36354 0.414092 3.36354Z" fill="black"/>
<path d="M2.52719 1.48527H2.66424V1.62174C2.66424 1.7582 2.77552 1.86948 2.91198 1.86948C3.04844 1.86948 3.15972 1.7582 3.15972 1.62174V1.48527H3.29677C3.43323 1.48527 3.54451 1.374 3.54451 1.23753C3.54451 1.10107 3.43382 0.989792 3.29677 0.989792H3.15972V0.852744C3.15972 0.716282 3.04844 0.605003 2.91198 0.605003C2.77552 0.605003 2.66424 0.716282 2.66424 0.852744V0.989207H2.52719C2.39073 0.989207 2.27945 1.10049 2.27945 1.23695C2.27945 1.37341 2.39014 1.48527 2.52719 1.48527Z" fill="black"/>
<path d="M12.4374 3.36354H12.5745V3.5C12.5745 3.63646 12.6857 3.74774 12.8222 3.74774C12.9587 3.74774 13.0699 3.63646 13.0699 3.5V3.36354H13.207C13.3434 3.36354 13.4547 3.25226 13.4547 3.1158C13.4547 2.97934 13.3434 2.86806 13.207 2.86806H13.0699V2.73101C13.0699 2.59455 12.9587 2.48327 12.8222 2.48327C12.6857 2.48327 12.5745 2.59455 12.5745 2.73101V2.86747H12.4374C12.3009 2.86747 12.1897 2.97875 12.1897 3.11521C12.1897 3.25168 12.3009 3.36354 12.4374 3.36354Z" fill="black"/>
<path d="M10.3249 1.48527H10.4619V1.62174C10.4619 1.7582 10.5732 1.86948 10.7097 1.86948C10.8461 1.86948 10.9574 1.7582 10.9574 1.62174V1.48527H11.0945C11.2309 1.48527 11.3422 1.374 11.3422 1.23753C11.3422 1.10107 11.2309 0.989792 11.0945 0.989792H10.9574V0.852744C10.9574 0.716282 10.8461 0.605003 10.7097 0.605003C10.5732 0.605003 10.4619 0.716282 10.4619 0.852744V0.989207H10.3249C10.1884 0.989207 10.0771 1.10049 10.0771 1.23695C10.0771 1.37341 10.1878 1.48527 10.3249 1.48527Z" fill="black"/>
</svg>
