<svg width="18" height="11" viewBox="0 0 18 11" fill="none" xmlns="http://www.w3.org/2000/svg">
<path d="M14.025 9.55855C10.5375 11.1397 7.16247 11.2115 3.97498 9.55855C3.97498 7.51029 5.13747 5.71357 6.86247 4.88708C7.42497 5.35423 8.17497 5.64171 8.99997 5.64171C9.82497 5.64171 10.575 5.35423 11.1375 4.88708C12.825 5.74951 14.025 7.51029 14.025 9.55855Z" fill="#5E6072"/>
<path d="M8.99991 4.95894C10.4289 4.95894 11.5874 3.84884 11.5874 2.47947C11.5874 1.1101 10.4289 0 8.99991 0C7.57088 0 6.41241 1.1101 6.41241 2.47947C6.41241 3.84884 7.57088 4.95894 8.99991 4.95894Z" fill="#5E6072"/>
<path d="M18 9.15638C16.8375 9.69539 15.675 9.98287 14.55 10.0547C14.1375 8.50956 13.0875 7.14405 11.6625 6.38943C11.775 6.28163 11.85 6.13789 11.925 5.99415C12.1125 5.85042 12.3375 5.70668 12.5625 5.59888C13.0125 5.95822 13.575 6.17383 14.175 6.17383C14.8125 6.17383 15.375 5.95822 15.7875 5.59888C17.1 6.24569 18 7.6112 18 9.15638Z" fill="#5E6072"/>
<path d="M16.1624 3.76612C16.1624 4.80822 15.2999 5.63471 14.2124 5.63471C13.3124 5.63471 12.5625 5.05976 12.3375 4.2692C12.3375 4.12547 12.3 3.98173 12.2625 3.83799V3.80206C12.2625 2.75996 13.125 1.93347 14.2124 1.93347C15.2999 1.93347 16.1624 2.72403 16.1624 3.76612Z" fill="#5E6072"/>
<path d="M6.33749 6.4971C4.91249 7.25172 3.86249 8.61722 3.45 10.1624C2.25 10.1265 1.125 9.80306 0 9.22811C0 7.68293 0.899999 6.31743 2.175 5.70654C2.625 6.06589 3.1875 6.28149 3.7875 6.28149C4.38749 6.28149 4.98749 6.06589 5.39999 5.70654C5.62499 5.81435 5.84999 5.95808 6.03749 6.10182C6.14999 6.24556 6.22499 6.35336 6.33749 6.4971Z" fill="#5E6072"/>
<path d="M5.77506 3.83799V3.87393C5.73756 4.01766 5.73756 4.1614 5.70006 4.30514C5.47506 5.09569 4.72506 5.67064 3.82506 5.67064C2.73756 5.67064 1.87506 4.84415 1.87506 3.80206C1.87506 2.75996 2.73756 1.93347 3.82506 1.93347C4.91256 1.93347 5.77506 2.7959 5.77506 3.83799Z" fill="#5E6072"/>
</svg>
