<svg width="21" height="12" viewBox="0 0 21 12" fill="none" xmlns="http://www.w3.org/2000/svg">
<path d="M15.586 10.6206C11.711 12.3774 7.96098 12.4572 4.41931 10.6206C4.41931 8.34474 5.71098 6.34838 7.62765 5.43005C8.25265 5.94911 9.08598 6.26852 10.0027 6.26852C10.9193 6.26852 11.7527 5.94911 12.3777 5.43005C14.2527 6.38831 15.586 8.34474 15.586 10.6206Z" fill="black"/>
<path d="M10.0026 5.50995C11.5904 5.50995 12.8776 4.2765 12.8776 2.75497C12.8776 1.23344 11.5904 0 10.0026 0C8.41481 0 7.12762 1.23344 7.12762 2.75497C7.12762 4.2765 8.41481 5.50995 10.0026 5.50995Z" fill="black"/>
<path d="M20.0027 10.1737C18.711 10.7726 17.4193 11.092 16.1693 11.1719C15.711 9.45502 14.5443 7.93778 12.961 7.09931C13.086 6.97953 13.1693 6.81982 13.2527 6.66012C13.461 6.50041 13.711 6.3407 13.961 6.22092C14.461 6.62019 15.086 6.85975 15.7527 6.85975C16.461 6.85975 17.086 6.62019 17.5443 6.22092C19.0027 6.93961 20.0027 8.45684 20.0027 10.1737Z" fill="black"/>
<path d="M17.961 4.1846C17.961 5.34249 17.0026 6.26081 15.7943 6.26081C14.7943 6.26081 13.961 5.62198 13.711 4.74358C13.711 4.58387 13.6693 4.42416 13.6276 4.26445V4.22453C13.6276 3.06664 14.586 2.14832 15.7943 2.14832C17.0026 2.14832 17.961 3.02671 17.961 4.1846Z" fill="black"/>
<path d="M7.04436 7.21909C5.46102 8.05756 4.29436 9.5748 3.83602 11.2917C2.50269 11.2517 1.25269 10.8924 0.00268555 10.2536C0.00268555 8.53669 1.00269 7.01946 2.41935 6.3407C2.91936 6.73997 3.54436 6.97953 4.21102 6.97953C4.87769 6.97953 5.54436 6.73997 6.00269 6.3407C6.25269 6.46048 6.50269 6.62019 6.71103 6.7799C6.83603 6.9396 6.91936 7.05939 7.04436 7.21909Z" fill="black"/>
<path d="M6.4194 4.26445V4.30438C6.37773 4.46409 6.37773 4.6238 6.33606 4.78351C6.08606 5.6619 5.25273 6.30074 4.25273 6.30074C3.04439 6.30074 2.08606 5.38241 2.08606 4.22453C2.08606 3.06664 3.04439 2.14832 4.25273 2.14832C5.46106 2.14832 6.4194 3.10657 6.4194 4.26445Z" fill="black"/>
</svg>
