<svg width="20" height="20" viewBox="0 0 20 20" fill="none" xmlns="http://www.w3.org/2000/svg">
    <path d="M13.7809 2.03186H6.22266V3.20369H13.7809V2.03186Z" fill="#fff"/>
    <path d="M5.04918 2.6178H3.89062V3.07362H5.04918V2.6178Z" fill="#fff"/>
    <path d="M16.1078 2.6178H14.9492V3.07362H16.1078V2.6178Z" fill="#fff"/>
    <path d="M17.2809 2.03198V4.24557H13.7787V2.61788H6.22045V4.24557H2.71823V2.03198H0V5.66462H19.9991V2.03198H17.2809Z" fill="#fff"/>
    <path d="M0 6.83655V20.0001H19.9991V6.83655H0ZM4.37092 17.8126H2.43468V16.6408H4.37092V17.8126ZM4.37092 15.2737H2.43468V14.1019H4.37092V15.2737ZM4.37092 12.7347H2.43468V11.5629H4.37092V12.7347ZM7.66919 17.8126H5.73334V16.6408H7.66919V17.8126ZM7.66919 15.2737H5.73334V14.1019H7.66919V15.2737ZM7.66919 12.7347H5.73334V11.5629H7.66919V12.7347ZM10.9675 17.8126H9.03165V16.6408H10.9675V17.8126ZM10.9675 15.2737H9.03165V14.1019H10.9675V15.2737ZM10.9675 12.7347H9.03165V11.5629H10.9675V12.7347ZM10.9675 10.1958H9.03165V9.02396H10.9675V10.1958ZM14.2658 17.8126H12.33V16.6408H14.2658V17.8126ZM14.2658 15.2737H12.33V14.1019H14.2658V15.2737ZM14.2658 12.7347H12.33V11.5629H14.2658V12.7347ZM14.2658 10.1958H12.33V9.02396H14.2658V10.1958ZM17.5645 15.2737H15.6282V14.1019H17.5645V15.2737ZM17.5645 12.7347H15.6282V11.5629H17.5645V12.7347ZM17.5645 10.1958H15.6282V9.02396H17.5645V10.1958Z" fill="#fff"/>
    <path d="M5.04918 0H3.89062V3.0737H5.04918V0Z" fill="#fff"/>
    <path d="M16.1078 0H14.9492V3.0737H16.1078V0Z" fill="#fff"/>
</svg>