<svg width="15" height="15" viewBox="0 0 15 15" fill="none" xmlns="http://www.w3.org/2000/svg">
<path d="M7.5 15C5.49668 15 3.61327 14.2199 2.19668 12.8033C0.780147 11.3867 0 9.50332 0 7.5C0 5.49668 0.780147 3.61327 2.19668 2.19668C3.61327 0.780147 5.49668 0 7.5 0C9.50332 0 11.3867 0.780147 12.8033 2.19668C14.2199 3.61327 15 5.49668 15 7.5C15 9.50332 14.2199 11.3867 12.8033 12.8033C11.3867 14.2199 9.50332 15 7.5 15ZM7.5 0.878906C5.73144 0.878906 4.06875 1.56762 2.81818 2.81818C1.56762 4.06875 0.878906 5.73144 0.878906 7.5C0.878906 9.26856 1.56762 10.9312 2.81818 12.1818C4.06875 13.4324 5.73144 14.1211 7.5 14.1211C9.26856 14.1211 10.9312 13.4324 12.1818 12.1818C13.4324 10.9312 14.1211 9.26856 14.1211 7.5C14.1211 5.73144 13.4324 4.06875 12.1818 2.81818C10.9312 1.56762 9.26856 0.878906 7.5 0.878906Z" fill="#787878"/>
<path d="M7.06055 1.75885H7.93945V2.93167H7.06055V1.75885Z" fill="#787878"/>
<path d="M10.418 3.95973L11.2472 3.13056L11.8685 3.75194L11.0394 4.58112L10.418 3.95973Z" fill="#787878"/>
<path d="M12.0684 7.06055H13.2412V7.93945H12.0684V7.06055Z" fill="#787878"/>
<path d="M10.417 11.041L11.0384 10.4197L11.8676 11.2488L11.2462 11.8702L10.417 11.041Z" fill="#787878"/>
<path d="M7.06055 12.0683H7.93945V13.2411H7.06055V12.0683Z" fill="#787878"/>
<path d="M3.12793 11.2481L3.95711 10.4189L4.5785 11.0403L3.74932 11.8694L3.12793 11.2481Z" fill="#787878"/>
<path d="M1.75879 7.06055H2.93161V7.93945H1.75879V7.06055Z" fill="#787878"/>
<path d="M3.12891 3.75117L3.7503 3.12979L4.57948 3.95897L3.95809 4.58035L3.12891 3.75117Z" fill="#787878"/>
<path d="M10.6023 7.93945H7.06055V4.39769H7.93945V7.06054H10.6023V7.93945Z" fill="#787878"/>
</svg>
