<svg width="21" height="21" viewBox="0 0 21 21" fill="none" xmlns="http://www.w3.org/2000/svg">
<path d="M0.000121617 10.3749C0.000121366 16.1048 4.64514 20.7498 10.3751 20.7498C16.105 20.7498 20.75 16.1048 20.75 10.3749C20.75 4.64499 16.105 -2.03039e-07 10.3751 -4.535e-07C4.64514 -7.03962e-07 0.000121867 4.64499 0.000121617 10.3749Z" fill="white"/>
<path d="M16.8339 6.94074C16.3812 7.14135 15.9009 7.27287 15.4092 7.3309C15.9267 7.02189 16.3145 6.53538 16.5001 5.96189C16.0133 6.2498 15.4808 6.45236 14.9257 6.56084C14.552 6.16249 14.0573 5.89856 13.5184 5.80996C12.9794 5.72137 12.4263 5.81307 11.9447 6.07084C11.4632 6.32861 11.0801 6.73806 10.855 7.23567C10.6299 7.73329 10.5752 8.29129 10.6995 8.82313C9.71334 8.77378 8.74858 8.51752 7.8679 8.07101C6.98723 7.62451 6.21034 6.99774 5.58771 6.23142C5.27043 6.77768 5.17346 7.42438 5.31655 8.03966C5.45965 8.65495 5.83205 9.1925 6.35781 9.54271C5.96385 9.53058 5.57856 9.42406 5.23431 9.23212C5.23431 9.24239 5.23431 9.25351 5.23431 9.26378C5.23467 9.83649 5.43315 10.3915 5.79607 10.8345C6.15899 11.2776 6.66402 11.5815 7.22547 11.6946C6.86022 11.7939 6.47715 11.8085 6.10539 11.7374C6.26361 12.2302 6.57198 12.6612 6.98732 12.97C7.40267 13.2789 7.9042 13.4501 8.42171 13.4598C7.38117 14.273 6.06143 14.642 4.75 14.4866C5.8159 15.1694 7.04594 15.5527 8.31106 15.5964C9.57618 15.6401 10.8297 15.3424 11.9402 14.7347C13.0506 14.127 13.977 13.2316 14.6222 12.1426C15.2673 11.0535 15.6074 9.81085 15.6068 8.54505C15.6068 8.43724 15.6068 8.33028 15.6 8.22419C16.0856 7.87347 16.5046 7.43883 16.8373 6.94074H16.8339Z" fill="black"/>
</svg>
