<svg width="13" height="10" viewBox="0 0 13 10" fill="none" xmlns="http://www.w3.org/2000/svg">
    <path d="M12.0839 1.16364C11.6312 1.36425 11.1509 1.49577 10.6592 1.5538C11.1767 1.24479 11.5645 0.758283 11.7501 0.184795C11.2633 0.472697 10.7308 0.675262 10.1757 0.783738C9.80202 0.38539 9.30734 0.121455 8.76837 0.0328633C8.2294 -0.0557288 7.67626 0.0359718 7.19472 0.293743C6.71317 0.551515 6.33014 0.960956 6.105 1.45857C5.87987 1.95619 5.82521 2.51419 5.94952 3.04603C4.96334 2.99668 3.99858 2.74042 3.1179 2.29391C2.23723 1.84741 1.46034 1.22064 0.837707 0.454318C0.52043 1.00058 0.423455 1.64728 0.566553 2.26256C0.70965 2.87785 1.08205 3.4154 1.60781 3.76561C1.21385 3.75348 0.82856 3.64696 0.484313 3.45502C0.484313 3.46529 0.484313 3.47641 0.484313 3.48668C0.484674 4.0594 0.683148 4.61436 1.04607 5.05742C1.40899 5.50048 1.91402 5.80437 2.47547 5.91753C2.11022 6.01676 1.72715 6.03139 1.35539 5.96031C1.51361 6.4531 1.82198 6.88409 2.23732 7.19294C2.65267 7.50178 3.1542 7.67303 3.67171 7.6827C2.63117 8.49586 1.31143 8.86492 0 8.70946C1.0659 9.39227 2.29594 9.77563 3.56106 9.81929C4.82618 9.86295 6.07973 9.56532 7.19018 8.95761C8.30062 8.34991 9.22702 7.45454 9.87217 6.36547C10.5173 5.27639 10.8574 4.03375 10.8568 2.76795C10.8568 2.66014 10.8568 2.55318 10.85 2.44709C11.3356 2.09637 11.7546 1.66173 12.0873 1.16364H12.0839Z" fill="#D32907"/>
</svg>
