<svg width="31" height="31" viewBox="0 0 31 31" fill="none" xmlns="http://www.w3.org/2000/svg">
<path d="M15.0474 30.6151C6.7765 30.6151 0.0474854 23.8585 0.0474854 15.5535C0.0474854 7.2486 6.77638 0.491943 15.0474 0.491943C23.3185 0.491943 30.0475 7.24848 30.0475 15.5535C30.0475 23.8584 23.3186 30.6151 15.0474 30.6151Z" fill="#33CCFF"/>
<path d="M23.6678 10.0562C23.1125 10.3085 22.5011 10.4616 21.9018 10.5627C22.1862 10.5146 22.6059 9.99726 22.7735 9.78816C23.0292 9.46918 23.242 9.10551 23.3617 8.71286C23.377 8.68217 23.3884 8.64374 23.3579 8.62053C23.3196 8.60519 23.2948 8.61304 23.2645 8.62839C22.5954 8.98838 21.9033 9.24953 21.1667 9.43431C21.1057 9.44966 21.0603 9.43431 21.0219 9.39588C20.9609 9.32676 20.9035 9.26156 20.8385 9.20766C20.5291 8.9432 20.1968 8.7357 19.8222 8.58235C19.3306 8.38099 18.7933 8.29578 18.2637 8.33028C17.7483 8.36392 17.2423 8.50966 16.7851 8.7497C16.3268 8.9901 15.9178 9.32455 15.5922 9.728C15.2553 10.1453 15.0069 10.6383 14.8798 11.1606C14.7571 11.6647 14.7672 12.1636 14.8422 12.6732C14.8535 12.7577 14.8461 12.7691 14.7698 12.7577C11.8886 12.3272 9.50013 11.292 7.5613 9.07346C7.47718 8.97721 7.43132 8.97721 7.36248 9.08095C6.514 10.3577 6.92559 12.4094 7.98548 13.4175C8.12683 13.5518 8.27198 13.6864 8.42849 13.8091C8.37127 13.8208 7.6661 13.744 7.03759 13.4175C6.95347 13.3642 6.91104 13.3948 6.90358 13.4907C6.89575 13.6284 6.90761 13.7555 6.92632 13.9052C7.08932 15.1997 7.98194 16.3969 9.20458 16.8639C9.34972 16.9252 9.51027 16.9792 9.66679 17.0059C9.38812 17.0671 9.10126 17.1111 8.30242 17.0485C8.20301 17.0291 8.16499 17.0792 8.20301 17.175C8.80327 18.8178 10.0992 19.3067 11.0694 19.5852C11.1994 19.608 11.3294 19.608 11.4597 19.6387C11.4519 19.6505 11.4442 19.6505 11.4366 19.6619C11.1148 20.1547 9.99865 20.5214 9.47909 20.7036C8.53389 21.0353 7.50493 21.1846 6.50593 21.0858C6.34612 21.0622 6.31249 21.064 6.26908 21.0858C6.22531 21.1131 6.26358 21.1514 6.31494 21.1931C6.51767 21.3274 6.72383 21.4465 6.93415 21.5617C7.56852 21.8992 8.22991 22.168 8.92139 22.3598C12.4928 23.3503 16.5162 22.6224 19.1979 19.9472C21.3039 17.8462 22.0421 14.9487 22.0421 12.0478C22.0421 11.9342 22.1756 11.8715 22.2551 11.8116C22.803 11.3982 23.2384 10.9035 23.6471 10.3511C23.739 10.2271 23.7334 10.1166 23.7334 10.0714C23.7334 10.0634 23.7334 10.0561 23.7334 10.0561C23.7334 10.0097 23.739 10.0235 23.6678 10.0561V10.0562Z" fill="white"/>
<path fill-rule="evenodd" clip-rule="evenodd" d="M11.4399 22.721C11.4172 22.721 11.1537 22.721 11.4399 22.721C11.4399 22.721 11.3941 22.721 11.4399 22.721Z" fill="white"/>
<path fill-rule="evenodd" clip-rule="evenodd" d="M12.032 22.7363C12.032 22.7069 12.3393 22.7363 12.032 22.7363C12.032 22.7211 12.0698 22.7363 12.032 22.7363Z" fill="white"/>
<path fill-rule="evenodd" clip-rule="evenodd" d="M18.2147 8.34467C18.1955 8.35987 18.1689 8.35987 18.1425 8.34467C18.169 8.34467 18.1955 8.34467 18.2147 8.34467Z" fill="white"/>
</svg>
