<svg width="34" height="34" viewBox="0 0 34 34" fill="none" xmlns="http://www.w3.org/2000/svg">
    <circle cx="16.9261" cy="17.1481" r="15.8519" fill="#D32907" stroke="white" stroke-width="2"/>
    <path d="M24.8127 12.1751C24.2259 12.4351 23.6033 12.6056 22.9659 12.6809C23.6368 12.2803 24.1394 11.6496 24.3801 10.9062C23.749 11.2794 23.0587 11.542 22.3392 11.6826C21.8548 11.1662 21.2135 10.8241 20.5148 10.7093C19.8162 10.5944 19.0991 10.7133 18.4749 11.0474C17.8507 11.3816 17.3542 11.9124 17.0623 12.5574C16.7705 13.2025 16.6996 13.9258 16.8608 14.6152C15.5824 14.5512 14.3318 14.2191 13.1902 13.6403C12.0485 13.0615 11.0415 12.249 10.2344 11.2556C9.82307 11.9637 9.69736 12.802 9.88286 13.5996C10.0684 14.3972 10.5511 15.094 11.2326 15.548C10.722 15.5323 10.2225 15.3942 9.77625 15.1454C9.77625 15.1587 9.77625 15.1731 9.77625 15.1864C9.77672 15.9288 10.034 16.6482 10.5045 17.2226C10.9749 17.7969 11.6296 18.1908 12.3574 18.3375C11.8839 18.4662 11.3873 18.4851 10.9054 18.393C11.1105 19.0318 11.5103 19.5905 12.0487 19.9908C12.5871 20.3912 13.2372 20.6132 13.9081 20.6257C12.5592 21.6798 10.8484 22.1582 9.14844 21.9567C10.5302 22.8418 12.1247 23.3388 13.7646 23.3954C15.4046 23.452 17.0296 23.0662 18.469 22.2784C19.9085 21.4906 21.1094 20.33 21.9457 18.9182C22.782 17.5064 23.2229 15.8956 23.2221 14.2547C23.2221 14.115 23.2221 13.9764 23.2132 13.8388C23.8427 13.3842 24.3859 12.8208 24.8171 12.1751H24.8127Z" fill="white"/>
</svg>
