<svg width="27" height="27" viewBox="0 0 27 27" fill="none" xmlns="http://www.w3.org/2000/svg">
<path d="M17.5401 18.0298L14.1808 13.7945C14.0209 13.5929 13.7779 13.4755 13.5207 13.4755C13.2635 13.4756 13.0204 13.593 12.8606 13.7945L9.47923 18.0588C9.27842 18.312 9.24019 18.6578 9.38082 18.9488C9.52146 19.2397 9.81615 19.4246 10.1393 19.4246H10.9489V22.7942C10.9489 23.2595 11.3261 23.6366 11.7913 23.6366H15.1609C15.6262 23.6366 16.0033 23.2595 16.0033 22.7942V19.4246H16.903C16.9033 19.4246 16.9037 19.4246 16.9041 19.4246C17.3693 19.4246 17.7465 19.0475 17.7465 18.5822C17.7465 18.3708 17.6687 18.1777 17.5401 18.0298ZM14.3185 18.5822V21.9518H12.6337V18.5822C12.6337 18.1465 12.3031 17.7881 11.879 17.7443L13.5208 15.6737L15.1596 17.7398C14.6949 17.7405 14.3185 18.1174 14.3185 18.5822Z" fill="#D1D3D4"/>
<path d="M25.413 9.97688C24.4113 8.9786 23.0939 8.42018 21.6953 8.39901C21.2933 7.65051 20.7182 7.00773 20.0088 6.51907C19.1126 5.90178 18.0634 5.57549 16.9745 5.57549C16.2743 5.57549 15.5874 5.71034 14.9488 5.97007C14.5648 5.32708 14.0483 4.77013 13.4248 4.33227C12.5223 3.6984 11.4619 3.36337 10.3582 3.36337C7.5206 3.36337 5.19207 5.58839 5.02074 8.38806C2.22365 8.55739 0 10.8913 0 13.736C0 15.1343 0.504669 16.5423 1.38469 17.5992C2.33875 18.7449 3.63473 19.3932 5.03385 19.4245C5.04017 19.4247 5.04643 19.4248 5.05275 19.4248H7.66845C8.13368 19.4248 8.51093 19.0477 8.51093 18.5824C8.51093 18.1171 8.13373 17.74 7.6685 17.74H5.0627C3.04171 17.6887 1.68492 15.6303 1.68492 13.7361C1.68492 11.7108 3.32761 10.0632 5.34681 10.0632C5.47691 10.0632 5.61792 10.072 5.79051 10.091C6.04582 10.1189 6.30023 10.029 6.48109 9.84641C6.66195 9.66382 6.74957 9.40866 6.71903 9.15351C6.70318 9.02109 6.69549 8.87914 6.69549 8.71945C6.69549 6.69514 8.3386 5.04829 10.3582 5.04829C11.867 5.04829 13.2423 5.99692 13.7806 7.40884C13.8705 7.64466 14.0614 7.82779 14.3008 7.90777C14.5402 7.98785 14.8028 7.95615 15.0165 7.82179C15.6001 7.45454 16.2771 7.26041 16.9745 7.26041C18.4829 7.26041 19.8211 8.16534 20.3837 9.56588C20.5245 9.91612 20.8804 10.1301 21.2563 10.0893C21.3241 10.082 21.4336 10.0826 21.5305 10.083L21.6128 10.0833C23.6542 10.0833 25.3151 11.7404 25.3151 13.7773C25.3151 15.8138 23.7776 17.4432 21.8148 17.4865C21.8092 17.4866 21.8035 17.4868 21.7979 17.4871L19.7636 17.573C19.2987 17.5926 18.9378 17.9854 18.9575 18.4502C18.9771 18.9151 19.3703 19.2758 19.8346 19.2563L21.8611 19.1708C23.2595 19.1375 24.5602 18.5556 25.5244 17.5318C26.476 16.5211 27 15.1877 27 13.7772C27 12.3464 26.4364 10.9968 25.413 9.97688Z" fill="#D1D3D4"/>
</svg>
