<svg width="27" height="27" viewBox="0 0 27 27" fill="none" xmlns="http://www.w3.org/2000/svg">
<path d="M7.03073 20.8477C5.22968 20.8477 3.62763 19.6945 3.04589 17.9777L3.00654 17.8483C2.86935 17.3937 2.81187 17.0114 2.81187 16.6288V8.95825L0.0825956 18.0688C-0.268426 19.4088 0.531467 20.798 1.87355 21.1682L19.2699 25.8271C19.4871 25.8833 19.7042 25.9103 19.918 25.9103C21.0384 25.9103 22.0622 25.1666 22.3492 24.0707L23.3627 20.8477H7.03073Z" fill="#D1D3D4"/>
<path d="M10.1241 9.03467C11.3651 9.03467 12.3741 8.02548 12.3741 6.78455C12.3741 5.54361 11.3651 4.53442 10.1241 4.53442C8.88321 4.53442 7.87402 5.54361 7.87402 6.78455C7.87402 8.02548 8.88321 9.03467 10.1241 9.03467Z" fill="#D1D3D4"/>
<path d="M24.1869 1.15942H7.31152C5.76138 1.15942 4.49902 2.42178 4.49902 3.97213V16.3473C4.49902 17.8976 5.76138 19.16 7.31152 19.16H24.1869C25.7373 19.16 26.9996 17.8976 26.9996 16.3473V3.97213C26.9996 2.42178 25.7373 1.15942 24.1869 1.15942ZM7.31152 3.40955H24.1869C24.4976 3.40955 24.7495 3.66148 24.7495 3.97213V11.9587L21.1956 7.81174C20.8187 7.36967 20.273 7.13339 19.6869 7.12C19.1041 7.12329 18.5574 7.38203 18.1839 7.82987L14.0055 12.8451L12.6442 11.4872C11.8748 10.7178 10.6225 10.7178 9.85417 11.4872L6.74915 14.5912V3.97213C6.74915 3.66148 7.00108 3.40955 7.31152 3.40955Z" fill="#D1D3D4"/>
</svg>
