<svg width="13" height="14" viewBox="0 0 13 14" fill="none" xmlns="http://www.w3.org/2000/svg">
<path d="M12.0709 10.4414L9.85659 12.6571V14H6.76516L6.77373 12.2857C6.77639 11.4528 7.1075 10.6545 7.69516 10.0643L9.59659 8.16857C9.65943 8.10568 9.73474 8.05664 9.81768 8.02459C9.90061 7.99255 9.98934 7.97823 10.0781 7.98253C10.1669 7.98684 10.2539 8.00968 10.3333 8.0496C10.4128 8.08951 10.483 8.14561 10.5394 8.21429C10.6389 8.34192 10.6876 8.50181 10.6763 8.6632C10.6649 8.82459 10.5943 8.97609 10.478 9.08857L9.56659 10C9.5451 10.0216 9.52855 10.0477 9.51806 10.0763C9.50758 10.1049 9.50342 10.1355 9.50586 10.1659C9.50831 10.1963 9.5173 10.2258 9.53222 10.2524C9.54714 10.279 9.56763 10.3021 9.5923 10.32C9.63541 10.3507 9.68822 10.3645 9.74083 10.359C9.79344 10.3535 9.84222 10.3289 9.87802 10.29L10.9252 9.24286C10.9997 9.16832 11.0577 9.0789 11.0954 8.98044C11.133 8.88198 11.1495 8.77669 11.1437 8.67143L10.9809 6.23572C10.9726 6.06232 11.0328 5.89262 11.1485 5.76322C11.2642 5.63382 11.4262 5.5551 11.5994 5.54404C11.7726 5.53298 11.9433 5.59046 12.0745 5.70409C12.2057 5.81772 12.287 5.97839 12.3009 6.15143L12.5337 9.22143C12.5485 9.44607 12.5148 9.67126 12.4349 9.88174C12.3551 10.0922 12.2309 10.2831 12.0709 10.4414ZM4.83802 10.0643L2.93659 8.16857C2.87374 8.10568 2.79843 8.05664 2.7155 8.02459C2.63256 7.99255 2.54384 7.97823 2.45503 7.98253C2.36623 7.98684 2.2793 8.00968 2.19986 8.0496C2.12041 8.08951 2.0502 8.14561 1.99373 8.21429C1.89431 8.34192 1.84558 8.50181 1.85692 8.6632C1.86826 8.82459 1.93886 8.97609 2.05516 9.08857L2.96659 10C2.98808 10.0216 3.00463 10.0477 3.01511 10.0763C3.02559 10.1049 3.02975 10.1355 3.02731 10.1659C3.02487 10.1963 3.01588 10.2258 3.00096 10.2524C2.98604 10.279 2.96554 10.3021 2.94087 10.32C2.89777 10.3507 2.84495 10.3645 2.79235 10.359C2.73974 10.3535 2.69096 10.3289 2.65516 10.29L1.60802 9.24286C1.53354 9.16827 1.4756 9.07884 1.43794 8.9804C1.40029 8.88195 1.38376 8.77668 1.38944 8.67143L1.55087 6.24286C1.55917 6.06947 1.49896 5.89976 1.38325 5.77036C1.26753 5.64096 1.10559 5.56224 0.932348 5.55118C0.75911 5.54012 0.588467 5.5976 0.457235 5.71124C0.326003 5.82487 0.244703 5.98553 0.230874 6.15857L0.00373097 9.22143C-0.011747 9.44565 0.0210515 9.67058 0.0999128 9.88104C0.178774 10.0915 0.301863 10.2826 0.460874 10.4414L2.67516 12.6557V14H5.76802L5.75944 12.2857C5.75678 11.4528 5.42568 10.6545 4.83802 10.0643ZM6.96087 7.51857H7.98087C8.15937 7.51047 8.32788 7.43386 8.45133 7.30467C8.57478 7.17549 8.64367 7.00369 8.64367 6.825C8.64367 6.64632 8.57478 6.47451 8.45133 6.34533C8.32788 6.21615 8.15937 6.13953 7.98087 6.13143H6.96087V5.10572C6.95277 4.92721 6.87616 4.75871 6.74697 4.63526C6.61779 4.51181 6.44599 4.44292 6.2673 4.44292C6.08862 4.44292 5.91681 4.51181 5.78763 4.63526C5.65845 4.75871 5.58183 4.92721 5.57373 5.10572V6.13H4.5523C4.3738 6.1381 4.2053 6.21472 4.08184 6.3439C3.95839 6.47308 3.8895 6.64489 3.8895 6.82357C3.8895 7.00226 3.95839 7.17406 4.08184 7.30325C4.2053 7.43243 4.3738 7.50904 4.5523 7.51714H5.57659V8.54286C5.57233 8.63659 5.58712 8.73021 5.62006 8.81806C5.65299 8.90592 5.70339 8.98618 5.76822 9.05402C5.83304 9.12185 5.91094 9.17584 5.99721 9.21272C6.08348 9.24961 6.17633 9.26863 6.27016 9.26863C6.36398 9.26863 6.45684 9.24961 6.54311 9.21272C6.62938 9.17584 6.70728 9.12185 6.7721 9.05402C6.83692 8.98618 6.88733 8.90592 6.92026 8.81806C6.9532 8.73021 6.96798 8.63659 6.96373 8.54286L6.96087 7.51857ZM4.80659 3.92429C4.80659 3.78903 4.75286 3.65931 4.65721 3.56366C4.56157 3.46802 4.43185 3.41429 4.29659 3.41429H3.5423V2.66C3.5423 2.59303 3.52911 2.52671 3.50348 2.46483C3.47785 2.40296 3.44028 2.34674 3.39293 2.29938C3.34557 2.25202 3.28935 2.21445 3.22747 2.18882C3.16559 2.16319 3.09928 2.15 3.0323 2.15C2.96533 2.15 2.89901 2.16319 2.83713 2.18882C2.77526 2.21445 2.71904 2.25202 2.67168 2.29938C2.62432 2.34674 2.58675 2.40296 2.56112 2.46483C2.53549 2.52671 2.5223 2.59303 2.5223 2.66V3.41429H1.76944C1.63418 3.41429 1.50446 3.46802 1.40882 3.56366C1.31318 3.65931 1.25944 3.78903 1.25944 3.92429C1.25944 4.05955 1.31318 4.18927 1.40882 4.28491C1.50446 4.38056 1.63418 4.43429 1.76944 4.43429H2.52373V5.18857C2.52373 5.32383 2.57746 5.45355 2.67311 5.5492C2.76875 5.64484 2.89847 5.69857 3.03373 5.69857C3.16899 5.69857 3.29871 5.64484 3.39436 5.5492C3.49 5.45355 3.54373 5.32383 3.54373 5.18857V4.42857H4.29802C4.43204 4.42821 4.56054 4.37509 4.65571 4.28072C4.75089 4.18635 4.80509 4.05831 4.80659 3.92429ZM8.43659 4.54714H9.08516V5.19572C9.08516 5.31203 9.13136 5.42358 9.21361 5.50583C9.29586 5.58808 9.40741 5.63429 9.52373 5.63429C9.64005 5.63429 9.7516 5.58808 9.83385 5.50583C9.91609 5.42358 9.9623 5.31203 9.9623 5.19572V4.54714H10.6109C10.7274 4.54714 10.8391 4.50086 10.9215 4.41848C11.0039 4.3361 11.0502 4.22436 11.0502 4.10786C11.0502 3.99135 11.0039 3.87962 10.9215 3.79724C10.8391 3.71485 10.7274 3.66857 10.6109 3.66857H9.96373V3.02143C9.96373 2.90511 9.91752 2.79356 9.83528 2.71131C9.75303 2.62907 9.64147 2.58286 9.52516 2.58286C9.40884 2.58286 9.29729 2.62907 9.21504 2.71131C9.13279 2.79356 9.08659 2.90511 9.08659 3.02143V3.67H8.43659C8.32008 3.67 8.20835 3.71628 8.12597 3.79867C8.04358 3.88105 7.9973 3.99278 7.9973 4.10929C7.9973 4.22579 8.04358 4.33753 8.12597 4.41991C8.20835 4.50229 8.32008 4.54857 8.43659 4.54857V4.54714ZM6.76516 2.32688e-06C6.64884 2.32688e-06 6.53729 0.0462088 6.45504 0.128457C6.37279 0.210705 6.32659 0.322257 6.32659 0.438574V1.08714H5.67802C5.5617 1.08714 5.45015 1.13335 5.3679 1.2156C5.28565 1.29785 5.23944 1.4094 5.23944 1.52572C5.23944 1.64203 5.28565 1.75358 5.3679 1.83583C5.45015 1.91808 5.5617 1.96429 5.67802 1.96429H6.32659V2.61429C6.32659 2.7306 6.37279 2.84216 6.45504 2.9244C6.53729 3.00665 6.64884 3.05286 6.76516 3.05286C6.88147 3.05286 6.99303 3.00665 7.07527 2.9244C7.15752 2.84216 7.20373 2.7306 7.20373 2.61429V1.96572H7.8523C7.90989 1.96572 7.96693 1.95437 8.02013 1.93233C8.07335 1.91029 8.12169 1.87799 8.16242 1.83726C8.20314 1.79654 8.23545 1.74819 8.25749 1.69498C8.27953 1.64177 8.29087 1.58474 8.29087 1.52714C8.29087 1.46955 8.27953 1.41252 8.25749 1.35931C8.23545 1.3061 8.20314 1.25775 8.16242 1.21703C8.12169 1.1763 8.07335 1.144 8.02013 1.12196C7.96693 1.09992 7.90989 1.08857 7.8523 1.08857H7.20516V0.438574C7.20516 0.380859 7.19377 0.323712 7.17164 0.270409C7.14951 0.217106 7.11708 0.168695 7.0762 0.127951C7.03532 0.0872069 6.98681 0.0549318 6.93343 0.0329757C6.88006 0.0110196 6.82287 -0.000185668 6.76516 2.32688e-06Z" fill="black"/>
</svg>
