<svg width="14" height="15" viewBox="0 0 14 15" fill="none" xmlns="http://www.w3.org/2000/svg">
<path d="M7.86829 0C4.48271 0 1.73657 2.75367 1.73657 6.14852C1.73657 9.54337 4.48271 12.297 7.86829 12.297C11.2539 12.297 14 9.54337 14 6.14852C14 2.75367 11.2539 0 7.86829 0ZM7.86829 10.975C5.21551 10.975 3.06256 8.81273 3.06256 6.14852C3.06256 3.48914 5.21551 1.32208 7.86829 1.32208C10.5163 1.32208 12.674 3.48915 12.674 6.14852C12.674 8.81273 10.5162 10.975 7.86829 10.975Z" fill="black"/>
<path d="M4.19852 12.1397C4.25837 12.1765 4.26892 12.2579 4.21932 12.3077L2.99889 13.5337C2.30956 14.2194 1.19868 14.2194 0.513721 13.5337C-0.17124 12.8435 -0.17124 11.7313 0.513721 11.0456L1.73012 9.82776C1.77964 9.77818 1.86044 9.78855 1.89732 9.84818C2.47456 10.7814 3.26582 11.566 4.19852 12.1397Z" fill="black"/>
<path d="M10.8458 5.16716C9.2012 3.5255 6.54262 3.52552 4.89801 5.1672L4.08604 5.97774C4.00005 6.06357 4.00005 6.20315 4.08604 6.28899L4.89801 7.09952C6.54262 8.74121 9.2012 8.74123 10.8458 7.09956L11.6579 6.28899C11.7439 6.20315 11.7439 6.06357 11.6579 5.97774L10.8458 5.16716ZM7.87195 7.4509C7.14489 7.4509 6.55801 6.86241 6.55801 6.13336C6.55801 5.40434 7.14489 4.81582 7.87195 4.81582C8.59898 4.81582 9.18589 5.40434 9.18589 6.13336C9.18589 6.86241 8.59898 7.4509 7.87195 7.4509Z" fill="black"/>
<path d="M7.88944 7.0045C8.36944 7.0045 8.75856 6.61432 8.75856 6.133C8.75856 5.65169 8.36944 5.26151 7.88944 5.26151C7.40944 5.26151 7.02032 5.65169 7.02032 6.133C7.02032 6.61432 7.40944 7.0045 7.88944 7.0045Z" fill="black"/>
</svg>
