<?xml version="1.0" encoding="UTF-8"?>
<!DOCTYPE svg PUBLIC "-//W3C//DTD SVG 1.1//EN" "http://www.w3.org/Graphics/SVG/1.1/DTD/svg11.dtd">
<!-- Creator: CorelDRAW 2018 (64-Bit) -->
<svg xmlns="http://www.w3.org/2000/svg" xml:space="preserve" width="17px" height="17px" version="1.1" style="shape-rendering:geometricPrecision; text-rendering:geometricPrecision; image-rendering:optimizeQuality; fill-rule:evenodd; clip-rule:evenodd"
viewBox="0 0 56.67 55.24"
 xmlns:xlink="http://www.w3.org/1999/xlink">
 <defs>
  <style type="text/css">
   <![CDATA[
    .fil0 {fill:#fff}
   ]]>
  </style>
 </defs>
 <g id="Layer_x0020_1">
  <metadata id="CorelCorpID_0Corel-Layer"/>
  <g id="_2372631188096">
   <path class="fil0" d="M27.14 13.91c-0.14,0.13 -0.25,0.21 -0.47,0.28 -0.47,0.14 -1.11,0.83 -1.3,0.91l-0.01 -0.04c-0.01,0.02 -0.02,0.03 -0.03,0.04l-4.81 3.99c-0.41,0.29 -1.22,1.07 -1.81,1.5l-3.82 3.14c-0.14,0.13 -0.07,0.06 -0.23,0.17 -0.1,0.08 -0.08,0.08 -0.18,0.16l-0.78 0.65c-0.13,0.1 -0.12,0.06 -0.24,0.17 -0.09,0.08 -0.04,0.06 -0.18,0.17 -0.2,0.15 -0.65,0.56 -0.8,0.62 -0.22,0.04 -0.37,0.17 -0.46,0.34 -0.2,0.53 0.01,0.03 -0.38,0.42l-0.29 0.23c-0.01,0.01 -0.02,0.02 -0.03,0.03l-0.73 0.59c-0.18,0.19 0.03,0.05 -0.3,0.24 -0.19,0.11 -0.13,0.14 -0.28,0.24l-0.46 0.35c-0.19,0.14 -0.01,0 -0.15,0.14l-0.87 0.71c-0.07,0.06 -0.08,0.04 -0.15,0.09l-0.06 0.06c-0.34,0.34 -0.17,0.1 -0.39,0.35 -0.19,0.22 -0.13,0.09 -0.29,0.22 -0.11,0.08 -0.03,0.05 -0.14,0.14l-0.73 0.63c-0.12,0.14 -0.09,0.03 -0.22,0.23 -0.22,0.33 -0.3,0.38 -0.41,0.68 -0,0.02 -0.07,0.17 -0.08,0.2 -0.22,0.4 -0.22,0.46 -0.26,1.1 -0.08,1.32 0,2.93 0,4.28l0 12.83c0,0.66 -0.11,2.5 0.2,3.05 0.08,0.14 0.11,0.22 0.15,0.35 0.13,0.37 -0.03,0.1 0.24,0.31l0 0.2c0.11,-0.04 0.09,-0.05 0.06,0.06 0.2,0.1 0.13,0.23 0.67,0.58 0.1,0.06 0.07,0.07 0.11,0.1 0.08,0.09 0.01,0.05 0.13,0.12 0.13,0.08 0.15,0.01 0.28,0.11 0.2,0.16 -0.13,0.08 0.26,0.2 0.11,0.03 0.29,0.04 0.4,0.07 0.22,0.05 0.14,0.08 0.28,0.16 0.29,0.17 2.85,0.08 3.43,0.08 2.36,0 4.71,0 7.07,0 0.22,0 0.25,-0.06 0.46,0.06 0.39,0 2.07,0.08 2.26,-0.05 0.1,-0.08 0.08,-0.15 0.08,-0.44 -0,-0.17 -0,-0.34 -0,-0.52 -0,-2.26 -0.09,-7.52 0.07,-9.24 0.08,-0.81 0.71,-2.16 1.25,-2.84 0.17,-0.21 0.29,-0.37 0.46,-0.56 0.33,-0.37 0.54,-0.49 0.84,-0.75l0.93 -0.61c0.26,-0.17 0.26,-0 0.74,-0.29 0.36,-0.21 2.04,-0.44 2.69,-0.35 0.84,0.13 2.05,0.42 2.76,0.89 0.15,0.1 0.1,0.11 0.3,0.22 0.56,0.3 1.2,1.04 1.59,1.54 0.37,0.48 0.93,1.59 0.99,2.11 0.06,0.07 0.03,0.02 0.09,0.12 0.37,0.71 0.23,4.3 0.23,5.13l0.05 5.54 9.24 0.02c0.24,0 0.18,-0.06 0.45,0.04 0.5,0 3.09,0.03 3.48,-0.03l0.85 -0.33c0.16,-0.07 0.14,-0.13 0.34,-0.23 0.33,-0.17 0.7,-0.52 0.93,-0.84 0.69,-0.94 0.56,-1.29 0.79,-1.59l0 -19.17c0,-0.98 -0.07,-1.36 -0.54,-2.08 -0.57,-0.85 -1.29,-1.26 -1.75,-1.73l-1 -0.77c-0.17,-0.17 -0.27,-0.37 -0.52,-0.35l-1.41 -1.14c-0.23,-0.19 -0.24,-0.02 -0.39,-0.38 -0.13,-0.13 -0.35,-0.39 -0.5,-0.49 -0.17,-0.12 -0.15,-0.06 -0.3,-0.21 -0.16,-0.15 -0.11,-0.16 -0.36,-0.21l-0.88 -0.67c-0.11,-0.09 -0.02,-0.06 -0.13,-0.15 -0.09,-0.08 -0.06,-0.03 -0.14,-0.08 -0.22,-0.13 -0.09,-0.11 -0.27,-0.24l-3 -2.5c-0.2,-0.19 -0.4,-0.51 -0.71,-0.56 -0.25,-0.09 -0.13,-0.07 -0.3,-0.22l-2.17 -1.77c-0.13,-0.14 -0.16,-0.1 -0.29,-0.22 -0.19,-0.19 -0.05,-0.07 -0.28,-0.23 -0.15,-0.1 -0.09,-0.11 -0.23,-0.22l-0.83 -0.65c-0.21,-0.13 -0.12,-0.03 -0.22,-0.28 -0.14,-0.13 -0.22,-0.17 -0.37,-0.33 -0.16,-0.16 -0.2,-0.25 -0.44,-0.29 -0.27,-0.07 -0.14,-0.05 -0.31,-0.21l-0.74 -0.63c-0.18,-0.14 -0.1,0.01 -0.3,-0.22l-2.3 -1.86c-0.24,-0.2 -0.31,-0.01 -0.6,-0.34 -0.2,-0.13 -1.53,-0.21 -1.91,-0.17 -0.27,0.04 -0.25,0.11 -0.63,0.11z"/>
   <path class="fil0" d="M27.92 0.06c-0.26,0.23 -0.44,0.16 -0.7,0.31 -0.15,0.08 -0.17,0.17 -0.17,0.17 -0.17,0.16 -0.44,0.24 -0.67,0.53 -0.12,0.15 -0.21,0.16 -0.33,0.29 -0.12,0.13 -0.12,0.05 -0.31,0.26 -0.21,0.23 -0.48,0.37 -0.71,0.59l-0.7 0.61c-0.08,0.07 -0.03,0.04 -0.08,0.09l-0.65 0.56c-0.1,0.1 -0,0.03 -0.14,0.14 -0.14,0.1 -0.06,0 -0.2,0.15l-0.7 0.61c-0.12,0.12 0.01,0.04 -0.17,0.17l-0.7 0.62c-0.41,0.26 -0.7,0.63 -1.07,0.92 -0.63,0.49 -1.19,1.1 -1.81,1.55l-1.23 1.1c-0.12,0.11 -0.07,0.03 -0.2,0.15 -0.12,0.11 0,0.04 -0.17,0.16l-0.17 0.12c-0.01,0.01 -0.02,0.02 -0.03,0.03l-1.09 0.91c-0.2,0.23 -0.52,0.43 -0.69,0.62l-2.12 1.87c-0.13,0.15 -0.02,0.01 -0.19,0.14l-0.41 0.35c-0.01,0.01 -0.02,0.03 -0.02,0.04l-0.09 0.12c-0.03,0.02 -0.14,0.06 -0.22,0.11l-1.51 1.35c-0.26,0.29 -0.69,0.52 -0.96,0.81 -0.19,0.2 0.08,0.01 -0.17,0.16 -0.28,0.18 -0.45,0.41 -0.71,0.61l-0.55 0.48c-0.14,0.16 0.02,0.02 -0.18,0.17 -0.22,0.16 -0.13,0.15 -0.34,0.29l-2.51 2.17c-0.15,0.12 -0.22,0.21 -0.39,0.28 -0.06,-0.02 -0.07,-0.14 -0.39,0.19 -0.39,0.4 -0.42,0.31 -1.02,0.91 -0.46,0.46 -0.43,0.31 -0.71,0.59 -0.22,0.23 -0.43,0.44 -0.65,0.65 -0.01,0.01 -0.02,0.01 -0.03,0.04 -0.03,0.15 -0.65,0.6 -0.75,0.69 -0.15,0.14 -0.09,0.1 -0.28,0.23 -0.25,0.18 -0.8,0.79 -0.85,1.16l-0.1 -0.07c-0.03,0.24 -0.07,0.3 -0.06,0.63 0,0.24 0,0.49 0,0.74 0.09,0.08 0.08,0.03 0.15,0.15 0.06,0.11 0.02,0.03 0.06,0.18 0.1,0.33 0.08,0.11 0.34,0.56 0.2,0.35 0.69,0.51 0.81,0.57 0.39,0.2 0.18,0.2 0.74,0.2 0.82,0.01 0.57,0.07 1.13,-0.2 0.44,-0.21 0.14,0.02 0.52,-0.31l0.96 -0.86c0.07,-0.07 0.08,-0.05 0.13,-0.1 0.15,-0.12 0.12,-0.18 0.2,-0.24 0.08,-0.07 0.06,0.03 0.27,-0.2 0.2,-0.23 -0.17,0.07 0.11,-0.11 0.02,-0.01 0.12,-0.05 0.19,-0.09l0.71 -0.61c0.01,-0.01 0.02,-0.02 0.03,-0.03l1.94 -1.7c0.26,-0.2 0.26,-0.3 0.46,-0.33l4.09 -3.56c0.08,-0.07 0.07,-0.04 0.17,-0.12l0.3 -0.27c0.12,-0.09 0.15,-0.15 0.3,-0.27l2.14 -1.85c0.12,-0.1 0.13,-0.15 0.3,-0.28l1.84 -1.58c0.21,-0.19 0.39,-0.36 0.6,-0.53l1.52 -1.33c0.13,-0.13 0.19,-0.15 0.31,-0.26 1.07,-1.01 2.95,-2.55 4.12,-3.57l0.46 -0.4c0.13,-0.13 0.18,-0.15 0.31,-0.26l2.75 -2.38c0.3,-0.25 0.22,-0.48 0.99,0.25l0.76 0.67c0.07,0.06 0.08,0.06 0.16,0.13 0.1,0.09 0.06,0.07 0.14,0.15l0.46 0.39c0.69,0.53 2.14,1.92 2.81,2.43 0.22,0.17 0.4,0.37 0.6,0.53 0.16,0.13 0.17,0.15 0.31,0.27 0.09,0.08 0.08,0.06 0.16,0.13l6.04 5.24c0.12,0.11 0.21,0.17 0.33,0.29l2.5 2.18c0.13,0.12 0.16,0.13 0.3,0.26 0.13,0.14 0.17,0.12 0.31,0.26l4.35 3.77c0.27,0.09 0.07,0.03 0.31,0.24l3.57 3.09c0.07,0.06 0.05,0.02 0.13,0.1l0.64 0.56c0.01,0.01 0.02,0.02 0.03,0.03l0.48 0.28c0.3,0.15 0.17,0.32 1.34,0.26 0.23,-0.01 0.53,-0.01 0.72,-0.12 0.35,-0.2 0.43,-0.32 0.62,-0.5 0.15,-0.13 0.06,-0.03 0.19,-0.21 0.12,-0.17 0.2,-0.25 0.28,-0.51 0.25,-0.78 0.22,-1.85 -0.45,-2.48l-4.24 -3.72 -0.02 0.02c-0.26,-0.1 -0.07,-0.04 -0.26,-0.21l-2.61 -2.24c-0.13,-0.11 -0.11,-0.13 -0.27,-0.24l-0.53 -0.44c-0.26,-0.28 -0.17,-0.08 -0.44,-0.42 -0.01,-0.01 -0.02,-0.03 -0.03,-0.04l-0.06 -0.08c-0.79,-0.87 -0.85,-0.73 -1.57,-1.47l-1.73 -1.46c-0.55,-0.33 -0.75,-0.89 -1.16,-0.93 -0.28,-0.1 -0.17,-0.15 -0.4,-0.3l-1.03 -0.93c-0,-0.02 -0.02,-0.03 -0.03,-0.04 -0.04,-0.04 -0.07,-0.08 -0.12,-0.13 -0.03,-0.03 -0.05,-0.05 -0.09,-0.07 -0.1,-0.07 -0,-0.02 -0.1,-0.05l-0.17 -0.04c-0.13,-0.25 -0.06,-0.13 -0.27,-0.29 -0.19,-0.14 -0.04,-0.11 -0.26,-0.26l-1.19 -0.98c-0.23,-0.19 -0.39,-0.3 -0.54,-0.57 -0.18,-0.2 -0.57,-0.61 -0.78,-0.78 -0.2,-0.16 -0.25,-0.13 -0.46,-0.34 -0.07,-0.07 -0.12,-0.14 -0.2,-0.2 -0.16,-0.15 -0.12,-0.14 -0.3,-0.09 -0.21,-0.09 -0.8,-0.62 -0.97,-0.8 -0.06,-0.06 -0.04,-0.04 -0.12,-0.1l-2.74 -2.39c-0.08,-0.07 -0.07,-0.04 -0.14,-0.09l-3.33 -2.94c-0.17,-0.14 -0.11,-0.02 -0.3,-0.21 -0.33,-0.32 -0.8,-0.12 -0.91,-0.48 -0.35,0 -0.52,0.06 -0.79,0.06z"/>
  </g>
 </g>
</svg>
