<?xml version="1.0" standalone="no"?>
<!DOCTYPE svg PUBLIC "-//W3C//DTD SVG 20010904//EN"
 "http://www.w3.org/TR/2001/REC-SVG-20010904/DTD/svg10.dtd">
<svg version="1.0" xmlns="http://www.w3.org/2000/svg"
 width="598.000000pt" height="598.000000pt" viewBox="0 0 598.000000 598.000000"
 preserveAspectRatio="xMidYMid meet">
<metadata>
Created by potrace 1.11, written by Peter Selinger 2001-2013
</metadata>
<g transform="translate(0.000000,598.000000) scale(0.100000,-0.100000)"
fill="#000000" stroke="none">
<path d="M4320 5964 c-170 -35 -326 -164 -390 -322 -19 -47 -5 -54 64 -31 32
11 82 24 110 30 28 5 62 11 75 14 13 2 49 7 80 11 160 18 296 59 381 116 60
40 85 43 97 12 18 -48 -184 -158 -329 -179 -131 -19 -340 -58 -383 -72 -113
-36 -135 -57 -135 -126 0 -51 16 -127 26 -127 3 0 31 21 61 46 31 25 74 54 95
65 53 27 174 57 298 74 285 39 406 88 486 197 36 49 31 70 -34 136 -83 85
-181 140 -279 158 -58 11 -164 10 -223 -2z"/>
<path d="M1638 5665 c-2 -2 -32 -6 -68 -9 -291 -30 -545 -173 -724 -407 -65
-85 -129 -219 -151 -314 -4 -16 -9 -39 -12 -50 -3 -11 -6 -69 -8 -130 -13
-386 170 -655 650 -956 55 -34 251 -149 437 -255 442 -253 524 -307 628 -413
135 -136 203 -294 194 -451 -5 -96 -10 -117 -55 -207 -45 -94 -123 -184 -202
-236 -211 -139 -556 -159 -858 -51 -252 90 -464 285 -550 504 -11 30 -29 75
-39 101 -9 25 -30 103 -45 175 -36 175 -36 174 -84 174 -22 0 -41 -5 -43 -12
-4 -11 -3 -1143 1 -1189 1 -21 44 -30 72 -15 12 6 24 22 26 36 7 52 36 111 64
131 35 25 99 31 161 17 24 -5 54 -12 68 -14 14 -3 93 -27 175 -54 130 -42 214
-68 250 -76 195 -43 416 -59 555 -40 25 4 63 9 85 12 367 48 714 327 839 674
34 93 37 117 41 270 5 175 -18 285 -88 425 -131 264 -311 407 -942 750 -475
258 -712 420 -828 566 -232 291 -44 714 363 819 58 15 100 19 185 16 127 -4
148 -8 253 -37 313 -87 539 -302 650 -619 16 -47 35 -112 43 -145 7 -33 13
-62 14 -65 1 -3 5 -30 9 -60 14 -92 20 -102 63 -98 l38 3 3 612 2 613 -24 6
c-45 11 -63 -3 -82 -63 -46 -147 -144 -176 -329 -98 -188 79 -366 131 -506
150 -47 6 -227 14 -231 10z"/>
<path d="M4865 5586 c-83 -86 -192 -141 -315 -160 -19 -3 -64 -10 -100 -16
-36 -5 -83 -12 -105 -16 -22 -3 -49 -7 -60 -9 -43 -5 -149 -37 -198 -59 -60
-26 -137 -99 -137 -130 0 -12 24 -52 53 -91 55 -73 74 -81 107 -47 47 52 189
110 310 128 30 4 57 8 60 9 3 1 32 5 65 9 32 4 68 10 80 12 11 2 36 7 55 10
80 13 202 68 265 118 29 23 30 27 28 93 -3 73 -19 155 -37 189 -10 21 -14 19
-71 -40z"/>
<path d="M4850 5205 c-49 -24 -146 -50 -225 -60 -27 -3 -57 -8 -65 -10 -8 -2
-33 -6 -55 -10 -116 -17 -215 -39 -262 -61 -62 -27 -113 -61 -113 -75 0 -5 28
-23 61 -39 56 -26 64 -28 88 -15 41 21 136 53 194 65 86 17 93 18 169 25 153
13 215 46 263 141 14 29 25 55 25 58 0 12 -36 4 -80 -19z"/>
<path d="M4584 4990 c-106 -19 -230 -51 -260 -68 -29 -16 45 -31 132 -27 86 4
157 23 233 63 104 54 75 63 -105 32z"/>
<path d="M3741 4698 c-8 -23 -5 -47 8 -49 3 0 35 -2 71 -4 140 -7 249 -47 303
-111 36 -42 43 -65 52 -159 10 -99 12 -1952 2 -2055 -11 -117 -33 -175 -84
-220 -57 -50 -116 -70 -233 -76 -52 -3 -101 -7 -107 -9 -7 -3 -13 -18 -13 -35
0 -36 27 -51 75 -41 16 4 301 7 633 6 470 0 606 3 614 12 6 7 7 24 4 37 -6 23
-11 25 -64 25 -100 -1 -155 11 -232 49 -100 49 -125 86 -140 202 -13 97 -9
2104 4 2155 13 54 47 114 82 144 47 42 154 73 256 75 73 1 82 3 91 23 25 55
54 53 -658 53 l-656 0 -8 -22z"/>
<path d="M3627 1513 c-1 -1 -22 -4 -47 -8 -242 -35 -396 -318 -288 -529 50
-98 143 -171 416 -326 246 -140 306 -204 306 -325 0 -36 -7 -72 -16 -91 -93
-175 -396 -184 -563 -17 -49 48 -77 103 -105 204 -19 71 -36 97 -53 80 -7 -7
-12 -341 -8 -468 1 -35 37 -30 49 6 19 54 39 56 180 17 172 -47 259 -57 355
-41 188 32 335 176 355 348 9 76 0 132 -32 202 -48 105 -121 166 -346 288
-116 62 -259 150 -303 186 -110 86 -127 218 -39 306 117 118 333 100 468 -40
48 -50 77 -109 100 -202 19 -77 29 -94 50 -86 20 8 21 488 1 496 -17 7 -28 -1
-50 -35 -31 -49 -47 -51 -134 -19 -100 36 -163 51 -236 54 -32 1 -59 1 -60 0z"/>
<path d="M888 1482 c-500 -2 -508 -3 -508 -22 0 -11 6 -20 13 -21 100 -4 149
-24 174 -72 15 -29 17 -85 17 -602 0 -530 -2 -573 -19 -608 -21 -45 -52 -63
-125 -72 -63 -8 -65 -9 -56 -30 5 -13 42 -15 308 -13 269 3 303 5 306 19 2 13
-9 17 -49 22 -67 8 -120 36 -138 73 -12 22 -15 90 -18 301 -3 251 -1 273 15
281 31 15 303 7 344 -11 48 -20 82 -84 87 -164 1 -7 10 -13 20 -13 18 0 20 9
23 128 5 226 -1 349 -18 356 -16 6 -22 -6 -45 -83 -28 -92 -75 -112 -271 -113
-114 -1 -133 1 -144 16 -20 28 -19 520 1 536 11 9 69 11 222 8 186 -4 212 -7
249 -26 60 -30 102 -79 126 -144 11 -32 25 -61 30 -64 21 -13 34 17 32 68 -2
29 -5 92 -7 139 -4 96 -7 105 -39 110 -13 2 -251 3 -530 1z"/>
<path d="M1566 1474 c-9 -22 13 -36 63 -39 90 -6 130 -51 137 -154 3 -31 6
-236 8 -456 2 -220 6 -412 9 -427 23 -121 86 -228 175 -293 53 -38 173 -81
261 -93 137 -19 322 7 428 60 118 59 208 187 227 324 3 21 8 58 11 82 3 23 7
215 7 425 1 210 6 400 10 422 5 22 21 52 35 67 24 25 105 54 122 44 13 -8 45
20 37 32 -5 9 -79 12 -257 12 -242 0 -249 -1 -249 -20 0 -12 7 -20 18 -21 107
-3 156 -28 172 -88 10 -37 15 -818 6 -871 -3 -14 -7 -45 -10 -70 -13 -101 -94
-206 -199 -258 -65 -32 -159 -50 -242 -45 -191 10 -292 90 -332 262 -16 67
-18 129 -18 526 0 414 1 453 18 478 26 41 63 60 119 63 53 3 79 17 62 34 -14
14 -613 18 -618 4z"/>
<path d="M4850 1482 c-289 -1 -468 -6 -474 -12 -17 -17 7 -30 66 -34 30 -2 67
-11 81 -20 52 -35 52 -36 51 -662 0 -539 -1 -584 -18 -609 -20 -31 -64 -52
-125 -59 -49 -5 -71 -20 -55 -36 7 -7 200 -9 558 -8 l548 3 18 50 c76 208 100
287 92 300 -12 22 -29 5 -90 -85 -68 -101 -95 -128 -161 -158 -53 -24 -63 -25
-262 -27 -224 -1 -263 4 -280 37 -17 31 -18 576 -2 586 7 4 95 7 197 6 167 -2
190 -4 230 -24 54 -26 70 -48 86 -123 14 -61 20 -70 42 -62 11 4 14 51 13 245
-1 139 -5 244 -11 250 -16 16 -32 -4 -39 -50 -12 -79 -47 -124 -109 -141 -55
-15 -404 -19 -415 -5 -5 6 -8 129 -8 273 0 209 2 265 13 274 10 8 86 10 256 7
222 -3 246 -5 283 -24 50 -26 89 -82 105 -151 12 -57 20 -66 43 -57 12 4 15
18 12 57 -2 29 -4 91 -4 138 -1 54 -6 92 -14 103 -16 22 -7 22 -627 18z"/>
</g>
</svg>
